<svg width="517" height="438" viewBox="0 0 517 438" fill="none" xmlns="http://www.w3.org/2000/svg">
<g clip-path="url(#clip0_27_515)">
<g clip-path="url(#clip1_27_515)">
<rect y="0.508545" width="516.036" height="436.577" rx="40" fill="#0B0B38"/>
<mask id="mask0_27_515" style="mask-type:luminance" maskUnits="userSpaceOnUse" x="-30" y="-12" width="993" height="496">
<path d="M962.073 -11.1423H-30V483.382H962.073V-11.1423Z" fill="white"/>
</mask>
<g mask="url(#mask0_27_515)">
<path d="M467.128 62.2121C462.25 62.2121 458.282 60.9099 455.835 58.3713C453.834 56.2943 453.189 53.5415 454.049 50.8381C454.826 48.3819 456.777 46.0742 459.671 44.1455C462.878 42.0026 467.111 40.4036 472.237 39.4146C476.007 38.6728 480.058 37.453 484.34 36.1672C491.88 33.8924 499.668 31.5516 506.579 31.7165C514.565 31.9143 520.055 35.5078 523.395 42.6949C525.379 46.9808 525.66 50.2117 524.238 52.5359C521.493 57.0196 513.011 57.3988 502.28 57.8603C494.129 58.223 484.902 58.6186 476.321 60.9264C473.03 61.7836 469.922 62.2121 467.128 62.2121ZM505.868 33.0022C499.337 33.0022 491.913 35.2441 484.72 37.4035C480.405 38.7058 476.321 39.9256 472.485 40.6839C463.259 42.4806 456.827 46.4203 455.305 51.2172C454.578 53.492 455.107 55.7009 456.777 57.4482C458.348 59.0802 460.795 60.2011 463.837 60.6461C467.309 61.1736 471.493 60.811 475.941 59.6241C484.671 57.2834 493.98 56.8713 502.181 56.5086C512.118 56.08 520.683 55.7009 523.064 51.8106C524.238 49.882 523.94 47.0797 522.155 43.2059C519.013 36.4145 514.036 33.1671 506.513 32.9858C506.314 33.0022 506.1 33.0022 505.868 33.0022Z" fill="white" fill-opacity="0.19"/>
<path d="M518.567 73.0422C518.435 73.0422 518.302 73.0422 518.17 73.0422C514.251 72.9928 508.795 72.4653 502.495 71.8719C485.729 70.2894 462.763 68.13 444.343 72.0532C439.714 73.0422 435.547 72.7455 432.29 71.2125C429.165 69.7454 427.065 67.1574 426.37 63.9595C425.758 61.1407 426.238 57.9428 427.776 54.7119C429.429 51.2008 432.24 47.7556 436.076 44.4752C445.12 36.7771 459.373 30.645 477.247 26.7383H477.264C477.412 26.7053 491.549 23.8536 506.679 23.4909C515.591 23.2766 523.097 23.969 529.017 25.535C536.523 27.5295 541.467 30.9582 543.732 35.7222C546.097 40.7168 547.238 45.4478 547.155 49.7996C547.072 53.7228 545.981 57.3329 543.898 60.5308C538.326 69.185 526.95 73.0422 518.567 73.0422ZM469.046 68.5256C480.934 68.5256 492.823 69.6465 502.611 70.5696C508.894 71.1631 514.334 71.6741 518.187 71.7235C526.255 71.8389 537.4 68.1794 542.773 59.8549C546.94 53.3932 546.858 45.4808 542.525 36.3156C540.442 31.9143 535.779 28.7329 528.686 26.8372C522.899 25.3042 515.525 24.6283 506.728 24.8426C491.814 25.1888 477.842 27.9911 477.545 28.057C455.223 32.9363 443.136 40.2388 436.952 45.5137C429.958 51.4645 426.486 58.256 427.676 63.7122C428.718 68.5421 433.149 71.3279 439.218 71.3279C440.739 71.3279 442.376 71.1466 444.079 70.7839C451.867 69.1025 460.464 68.5256 469.046 68.5256Z" fill="white" fill-opacity="0.19"/>
<path d="M519.774 88.1746C519.459 88.1746 519.162 88.1746 518.848 88.1746C507.439 88.0263 500.031 86.0647 492.872 84.169C481.298 81.1029 470.352 78.2182 443.93 83.7733C434.009 85.8668 425.56 85.6031 418.847 83.0151C412.911 80.7238 408.628 76.6687 406.462 71.3113C404.346 66.0694 404.445 59.9538 406.743 54.0854C409.108 48.0357 413.721 42.6454 419.707 38.9365C435.481 29.1614 458.612 19.4852 474.717 15.9081C483.166 14.0289 495.947 11.4409 509.34 10.5673C526.999 9.41338 539.929 11.6552 547.8 17.2433C552.942 20.8863 555.935 25.9799 556.679 32.3923C559.192 54.0195 556.464 68.9047 548.345 77.905C545.154 81.4326 541.037 84.0865 536.143 85.7844C531.497 87.3669 526.007 88.1746 519.774 88.1746ZM469.839 79.3062C479.611 79.3062 486.291 81.07 493.203 82.8997C500.296 84.7789 507.621 86.7075 518.864 86.8559C531.877 87.0207 541.202 83.7898 547.353 76.9984C555.224 68.3112 557.836 53.7557 555.356 32.5241C554.662 26.5074 551.851 21.7105 547.023 18.2983C539.4 12.8915 526.751 10.7321 509.406 11.8695C496.096 12.7432 483.398 15.3147 474.982 17.1774C458.993 20.7215 436.043 30.3318 420.384 40.0409C408.926 47.1291 403.47 60.3659 407.669 70.8003C412.15 81.9106 425.593 86.2625 443.632 82.4711C454.661 80.1633 463.011 79.3062 469.839 79.3062Z" fill="white" fill-opacity="0.19"/>
<path d="M513.49 107.51C510.316 107.51 507.042 107.362 503.702 107.065C491.748 106.01 486.06 102.862 481.05 100.093C473.94 96.1529 467.789 92.7572 445.633 96.5485C433.199 98.675 421.079 98.0651 410.563 94.7847C400.361 91.6033 392.425 86.213 387.63 79.1578C380.85 69.2014 381.181 57.069 388.555 44.9697C390.771 41.3432 395.979 37.0738 404.032 32.2604C410.877 28.1723 419.574 23.804 429.875 19.2874C448.642 11.0453 468.368 4.2868 476.585 2.50652C477.445 2.32519 478.355 2.12738 479.297 1.91309C490.359 -0.510082 507.092 -4.15308 523.047 -4.15308H523.064C531.86 -4.15308 539.549 -3.03215 545.898 -0.806796C553.405 1.81418 559.291 6.03412 563.425 11.7376C571.973 23.5732 576.189 37.354 575.627 51.5963C575.098 64.5034 570.601 77.2126 562.945 87.3834C557.753 94.2902 549.966 99.7465 540.425 103.175C532.423 106.06 523.395 107.51 513.49 107.51ZM462.051 93.5649C471.972 93.5649 476.585 96.1199 481.678 98.9387C486.572 101.642 492.128 104.725 503.801 105.747C529.81 108.054 550.974 101.082 561.871 86.6086C575.578 68.3771 581.034 38.3925 562.333 12.5289C554.976 2.35816 541.765 -2.80138 523.047 -2.80138H523.031C507.207 -2.80138 490.574 0.825134 479.562 3.23182C478.619 3.42963 477.71 3.62744 476.85 3.82525C468.698 5.58905 449.088 12.3146 430.388 20.5237C408.033 30.3317 393.582 39.2662 389.663 45.6785C382.57 57.2998 382.223 68.9376 388.704 78.4325C396.492 89.856 412.745 96.4496 431.396 96.4496C435.943 96.4496 440.639 96.054 445.385 95.2463C452.313 94.0594 457.703 93.5649 462.051 93.5649Z" fill="white" fill-opacity="0.19"/>
<path d="M514.334 128.478C512.383 128.478 510.465 128.413 508.613 128.264C492.26 127.044 483.447 122.247 475.66 118.028C464.929 112.192 455.669 107.164 430.157 112.852C419.062 115.324 407.868 115.11 396.873 112.192C386.985 109.571 377.643 104.807 369.855 98.3949C357.322 88.0758 350.047 74.5588 350.41 62.2122C350.625 55.1075 352.312 48.7611 355.586 42.8269C358.76 37.0739 363.357 31.8319 369.607 26.8043C380.834 17.8039 397.666 9.46295 422.584 0.561516C445.649 -7.68056 467.359 -13.7302 487.102 -17.4392C506.893 -21.1481 523.709 -22.302 537.086 -20.8679C556.001 -18.8403 570.485 -13.6643 581.382 -5.04309C591.319 2.81985 598.296 13.617 602.744 27.9911C604.943 35.0958 605.687 42.8598 604.96 51.036C604.298 58.4703 602.447 66.086 599.454 73.6852C593.997 87.5319 584.953 100.389 575.28 108.071C566.467 115.077 555.191 120.681 542.707 124.275C533.183 127.028 523.312 128.478 514.334 128.478ZM449.767 109.027C461.853 109.027 468.715 112.753 476.288 116.874C483.96 121.044 492.641 125.759 508.712 126.962C510.498 127.094 512.366 127.16 514.284 127.16C532.423 127.16 556.596 121.209 574.437 107.049C591.732 93.3343 610.747 58.3549 601.471 28.3868C592.41 -0.955021 572.503 -15.7413 536.937 -19.5491C510.448 -22.3844 468.93 -14.6039 423.03 1.81431C380.851 16.8808 352.577 32.9364 351.733 62.2617C351.386 74.2127 358.479 87.3341 370.698 97.3894C387.101 110.873 409.207 116.181 429.859 111.566C437.895 109.769 444.36 109.027 449.767 109.027Z" fill="white" fill-opacity="0.19"/>
<path d="M311.934 349.333C308.644 349.333 304.891 348.773 300.823 347.635C294.176 345.805 288.306 342.822 283.875 339.014C279.89 335.602 277.179 331.613 276.236 327.805C275.327 324.063 276.153 320.766 278.584 318.508C282.767 314.617 290.902 314.337 301.484 317.7C319.11 323.321 327.262 334.563 324.98 342.212C324.037 345.36 321.342 347.668 317.407 348.69C315.77 349.119 313.935 349.333 311.934 349.333ZM288.521 316.711C284.57 316.711 281.445 317.634 279.46 319.48C277.394 321.392 276.699 324.244 277.493 327.492C279.113 334.085 287.05 342.476 301.154 346.366C307.486 348.113 312.992 348.476 317.043 347.421C320.565 346.498 322.864 344.569 323.674 341.833C324.699 338.388 323.244 334.085 319.656 330.047C316.762 326.766 311.174 322.184 301.038 318.969C296.342 317.453 292.093 316.711 288.521 316.711Z" fill="white" fill-opacity="0.19"/>
<path d="M324.087 362.256C321.772 362.256 319.276 362.059 316.63 361.663C305.42 359.982 293.531 355.119 285.661 351.904C283.197 350.899 281.064 350.025 279.51 349.481C272.88 347.157 266.531 343.052 261.653 337.942C256.974 333.03 253.882 327.508 252.972 322.381C252.013 317.007 253.485 312.54 257.205 309.474C261.438 305.996 268.267 304.545 277.509 305.188C287.992 305.914 301.27 309.342 316.977 315.359L317.126 315.409C322.682 317.502 341.134 325.266 345.681 337.679C347.418 342.41 346.905 347.272 344.177 352.152C340.407 358.877 333.677 362.256 324.087 362.256ZM273.541 306.359C265.059 306.359 260.479 308.502 258.048 310.496C253.832 313.958 253.667 318.755 254.278 322.151C255.138 327.013 258.114 332.305 262.612 337.036C267.341 341.997 273.508 345.987 279.94 348.245C281.527 348.805 283.677 349.679 286.157 350.685C293.961 353.882 305.767 358.696 316.829 360.361C329.825 362.306 338.638 359.339 343.019 351.509C345.549 346.976 346.029 342.475 344.441 338.124C342.49 332.783 337.513 327.673 329.676 322.942C324.368 319.727 319.226 317.617 316.647 316.645L316.498 316.595C296.26 308.831 282.652 306.359 273.541 306.359Z" fill="white" fill-opacity="0.19"/>
<path d="M322.285 375.922C308.793 375.922 292.573 372.065 276.286 364.976C263.753 359.52 251.517 352.399 241.812 344.915C229.923 335.767 222.251 326.568 218.994 317.601C216.415 310.463 216.745 303.59 219.97 297.177C223.161 290.864 229.808 287.007 239.745 285.721C248.161 284.633 258.925 285.358 271.772 287.88C295.218 292.496 320.913 302.271 335.794 309.244C336.059 309.359 340.738 311.502 346.211 315.541C351.303 319.315 358.033 325.53 361.092 333.657C363.688 340.563 363.291 347.784 359.918 355.119C356.743 362.009 351.882 367.284 345.45 370.779C339.663 373.927 332.586 375.642 324.435 375.905C323.724 375.905 322.996 375.922 322.285 375.922ZM247.962 286.528C245.069 286.528 242.39 286.693 239.91 287.006C230.436 288.243 224.12 291.853 221.143 297.754C218.085 303.837 217.77 310.365 220.218 317.14C223.343 325.761 231.081 334.992 242.605 343.86C252.228 351.262 264.381 358.333 276.815 363.757C292.92 370.779 308.975 374.603 322.285 374.603C322.996 374.603 323.707 374.587 324.402 374.57C341.317 374.043 352.874 367.301 358.727 354.559C361.952 347.553 362.332 340.662 359.868 334.102C356.925 326.272 350.394 320.255 345.434 316.579C340.043 312.59 335.298 310.447 335.265 310.414H335.248C320.433 303.474 294.854 293.749 271.524 289.149C262.612 287.419 254.742 286.528 247.962 286.528Z" fill="white" fill-opacity="0.19"/>
<path d="M326.27 397.071C321.954 397.071 318.234 396.758 315.522 396.445C314.861 396.362 314.167 396.28 313.456 396.197C302.146 394.879 285.066 392.868 264.232 384.609C252.807 380.076 241.381 374.092 230.237 366.806C217.191 358.267 204.129 347.701 191.431 335.371C184.453 328.596 179.393 319.579 177.178 309.969C174.88 299.996 175.938 290.204 180.138 282.407C182.287 278.402 185.263 274.923 188.95 272.072C192.886 269.022 197.681 266.665 203.17 265.082C215.389 261.571 231.031 261.819 249.665 265.841C276.451 271.627 307.784 281.748 346.591 295.15C365.688 301.15 377.229 309.046 382.868 319.991C388.225 330.393 388.225 343.448 382.835 359.932C379.875 368.966 375.245 376.499 369.078 382.318C363.853 387.246 357.454 390.988 350.08 393.477C341.697 396.28 333.214 397.071 326.27 397.071ZM222.433 263.945C215.422 263.945 209.09 264.753 203.517 266.352C193.266 269.302 185.594 275.072 181.295 283.034C173.094 298.265 177.856 320.354 192.34 334.415C246.557 387.032 290.158 392.142 313.588 394.879C314.299 394.961 314.993 395.043 315.655 395.126C318.581 395.472 322.302 395.769 326.468 395.769C344.607 395.769 371.492 390.214 381.528 359.52C386.803 343.399 386.836 330.656 381.644 320.601C376.171 309.985 364.895 302.304 346.144 296.419H346.128C307.354 283.017 276.071 272.912 249.351 267.143C239.513 265 230.518 263.945 222.433 263.945Z" fill="white" fill-opacity="0.19"/>
<path d="M330.701 426.94C304.973 426.94 275.145 419.176 241.977 403.846C216.117 391.878 192.77 377.405 174.483 361.976C165.025 353.998 156.973 345.805 150.557 337.662C143.861 329.156 138.95 320.65 135.941 312.375C130.848 298.397 131.162 285.16 136.883 273.028C141.778 262.659 148.424 254.236 156.642 247.988C163.636 242.664 171.837 238.856 181.031 236.664C198.408 232.51 215.141 235.032 223.574 236.911C238.968 240.34 295.913 255.011 328.618 263.994C351.932 270.324 369.921 277.38 383.612 285.572C391.681 290.402 398.493 295.776 403.834 301.545C409.637 307.793 413.936 314.749 416.648 322.216C423.526 341.206 418.053 360.872 412.25 374.026C405.305 389.752 395.054 402.725 387.977 408.593C381.776 413.736 374.551 417.89 366.499 420.924C357.223 424.418 346.839 426.413 335.645 426.874C334.025 426.907 332.371 426.94 330.701 426.94ZM201.137 235.757C180.468 235.757 152.806 242.334 138.057 273.572C132.485 285.374 132.187 298.265 137.148 311.914C142.951 327.838 156.146 344.8 175.293 360.954C193.498 376.317 216.729 390.725 242.489 402.643C275.492 417.907 305.122 425.622 330.668 425.622C332.322 425.622 333.959 425.589 335.579 425.523C361.538 424.484 377.924 415.171 387.117 407.555C394.078 401.769 404.164 388.994 411.026 373.466C416.73 360.542 422.121 341.223 415.391 322.645C406.016 296.765 379.147 279.077 328.254 265.264C295.565 256.28 238.653 241.609 223.26 238.197C218.696 237.158 210.66 235.757 201.137 235.757Z" fill="white" fill-opacity="0.19"/>
<path d="M524.783 147.023C512.812 147.023 500.908 144.32 489.333 138.962C455.719 123.401 439.631 126.039 425.444 128.38C419.888 129.286 414.647 130.16 408.645 129.995C382.438 130.143 362.464 123.599 349.286 110.544C337.017 98.3785 330.618 80.6086 330.271 57.6956C330.073 44.36 335.298 32.6892 346.243 22.0075C358.462 10.1059 377.924 -0.80658 405.768 -11.3235C433.381 -21.7579 460.53 -31.4836 489.019 -35.6541C504.38 -37.8959 518.996 -38.4234 533.696 -37.2365C550.015 -35.9178 566.021 -32.555 582.638 -26.9504C592.029 -23.7855 600.925 -17.3731 608.366 -8.42225C615.542 0.215439 621.163 10.9631 624.603 22.6339C628.339 35.3102 629.364 48.6129 627.562 61.0914C625.562 74.8886 620.32 87.2022 611.954 97.6532C604.86 106.522 597.056 114.5 588.723 121.357C579.347 129.088 569.576 135.171 559.655 139.457C548.527 144.27 537.217 146.809 526.057 146.99C525.627 147.023 525.197 147.023 524.783 147.023ZM442.954 125.248C445.269 125.248 447.699 125.363 450.295 125.61C461.77 126.748 474.717 130.72 489.879 137.743C549.684 165.436 597.618 113.429 610.895 96.829C626.537 77.2623 631.167 49.6679 623.313 22.9965C616.286 -0.872517 600.528 -19.5326 582.191 -25.7141C516.252 -47.9677 465.59 -32.555 406.231 -10.1201C378.569 0.33083 359.256 11.1444 347.169 22.9141C336.488 33.3156 331.395 44.6732 331.594 57.6297C332.305 104.741 357.933 128.627 407.719 128.627C408.033 128.627 408.331 128.627 408.645 128.627H408.661H408.678C414.548 128.792 419.74 127.935 425.229 127.028C430.685 126.171 436.291 125.248 442.954 125.248Z" fill="white" fill-opacity="0.19"/>
<path d="M331.082 448.6C307.751 448.6 285.678 445.271 264.249 438.578C250.724 434.358 237.397 428.786 223.508 421.583C212.132 415.682 200.426 408.709 186.669 399.642C166.927 386.62 151.318 374.85 138.967 363.625C125.408 351.311 115.719 339.64 109.337 327.969C102.558 315.573 99.6311 303.375 100.375 290.715C101.152 277.61 105.832 264.374 114.694 250.247C119.076 243.257 124.119 237.175 129.674 232.18C134.899 227.482 140.736 223.592 147.019 220.641C158.213 215.383 171.358 212.828 186.09 213.075C213.157 213.52 241.15 223.015 263.637 230.647C274.666 234.389 284.206 237.62 291.564 239.087C320.847 244.906 346.955 252.307 369.177 261.077C391.35 269.83 408.728 279.572 420.864 290.072C426.007 294.507 430.372 300.293 433.86 307.265C437.217 313.974 439.664 321.59 441.152 329.915C444.128 346.613 442.938 365.125 437.829 382.054C432.819 398.637 424.237 413.16 413.01 424.006C400.213 436.386 384.389 443.869 366.003 446.26C354.015 447.826 342.408 448.6 331.082 448.6ZM184.156 214.377C158.064 214.377 133.196 223.196 115.802 250.939C98.887 277.924 97.1509 302.914 110.494 327.327C122.449 349.217 146.887 371.85 187.396 398.538C231.626 427.682 274.219 447.315 330.635 447.315C341.78 447.315 353.469 446.556 365.821 444.941C399.981 440.49 425.775 417.412 436.556 381.658C441.599 364.91 442.773 346.613 439.846 330.129C436.87 313.43 429.826 299.551 420.004 291.045C395.699 270.028 349.997 252.027 291.316 240.356C283.876 238.873 274.302 235.625 263.224 231.867C240.406 224.152 211.62 214.377 184.156 214.377Z" fill="white" fill-opacity="0.19"/>
<path d="M528.57 450.892C528.471 450.892 528.372 450.892 528.273 450.892C523.577 450.826 519.559 449.21 516.351 446.062C512.862 442.666 510.448 437.573 509.142 430.929C506.53 417.594 509.853 408.495 513.061 399.676C517.988 386.192 522.634 373.449 506.877 346.448C501.338 336.97 498.56 328.843 498.61 322.315C498.659 316.678 500.875 312.244 505.008 309.524C509.374 306.656 515.706 305.765 522.403 307.101C528.835 308.386 534.473 311.551 537.466 315.541C547.535 329.008 555.637 342.096 561.557 354.476C571.593 375.493 574.999 393.692 571.643 408.528C569.245 419.176 562.929 430.023 554.314 438.281C545.964 446.309 536.606 450.892 528.57 450.892ZM516.401 307.809C512.284 307.809 508.563 308.766 505.752 310.628C500.825 313.876 494.592 322.744 508.018 345.789C515.21 358.136 518.815 368.735 519.013 378.213C519.195 386.703 516.698 393.543 514.301 400.137C511.143 408.775 507.885 417.709 510.432 430.682C512.829 442.913 518.997 449.441 528.289 449.573C528.388 449.573 528.471 449.573 528.57 449.573C536.259 449.573 545.287 445.122 553.405 437.342C561.838 429.248 568.005 418.649 570.353 408.247C573.627 393.708 570.27 375.807 560.35 355.053C554.48 342.756 546.427 329.733 536.391 316.348C533.58 312.606 528.256 309.639 522.138 308.403C520.187 308.007 518.253 307.809 516.401 307.809Z" fill="white" fill-opacity="0.19"/>
<path d="M271.954 139.819C266.861 139.819 260.413 137.479 252.923 129.814C240.422 116.989 231.031 103.142 226.434 90.7956C224.169 84.713 223.094 79.1248 223.243 74.1961C223.392 69.1025 224.847 64.8331 227.542 61.5198C229.477 58.8658 233.23 54.7942 237.264 51.6293C240.819 48.8435 245.895 45.7774 249.897 46.9972C253.534 48.1017 255.519 52.3876 255.816 59.756C256.279 71.0971 267.01 81.4821 276.484 90.6472C282.734 96.6969 288.654 102.417 291.15 107.873C292.936 111.747 292.92 117.417 291.101 123.039C289.216 128.89 285.678 133.918 281.395 136.852C279.262 138.303 276.054 139.819 271.954 139.819ZM247.979 48.0357C241.762 48.0357 232.403 57.1185 228.617 62.311L228.6 62.344C223.574 68.4761 223.26 78.416 227.691 90.334C232.221 102.499 241.514 116.198 253.882 128.89C260.082 135.253 266.299 138.501 272.037 138.501C275.079 138.501 277.989 137.594 280.684 135.748C289.646 129.632 293.283 115.604 289.977 108.417C287.579 103.192 281.759 97.5541 275.591 91.5868C265.952 82.2568 255.006 71.674 254.526 59.8054C254.262 53.0634 252.575 49.1731 249.533 48.25C249.037 48.1017 248.524 48.0357 247.979 48.0357Z" fill="white" fill-opacity="0.19"/>
<path d="M418.4 250.972C412.828 250.972 405.47 250.708 398.129 249.818C390.722 248.928 384.306 247.56 379.048 245.73C372.583 243.488 367.821 240.554 364.928 236.994C361.455 232.741 360.596 227.565 362.381 221.647C363.704 217.246 366.846 213.273 371.74 209.828C376.188 206.696 381.975 204.058 388.952 201.981C401.899 198.124 418.086 196.509 433.331 197.564C444.211 198.305 453.718 200.349 460.778 203.448C468.665 206.91 473.279 211.657 474.138 217.196C474.998 222.735 473.692 227.812 470.253 232.279C465.441 238.527 456.645 243.521 444.095 247.148C434.803 249.835 426.783 250.708 426.701 250.725H426.684C425.08 250.84 422.137 250.972 418.4 250.972ZM424.088 198.569C411.853 198.569 399.551 200.201 389.3 203.251C382.454 205.278 376.8 207.866 372.467 210.916C367.838 214.18 364.845 217.921 363.621 222.026C361.968 227.515 362.745 232.263 365.92 236.169C370.913 242.302 382.107 246.571 398.261 248.516C411.638 250.131 423.973 249.62 426.552 249.406C426.816 249.373 434.654 248.5 443.731 245.879C452.164 243.439 463.424 238.972 469.178 231.471C472.386 227.301 473.609 222.57 472.799 217.394C471.261 207.536 456.083 200.448 433.199 198.882C430.206 198.668 427.147 198.569 424.088 198.569Z" fill="white" fill-opacity="0.19"/>
<path d="M428.023 265.775C410.447 265.775 393.979 263.566 380.09 259.296C365.06 254.697 353.75 247.922 347.384 239.713C344.689 236.235 342.904 232.51 342.077 228.669C341.234 224.68 341.416 220.526 342.623 216.322C344.226 210.751 346.707 206.086 350.195 202.047C353.998 197.662 358.892 194.118 365.159 191.25C378.585 185.085 398.079 182.167 424.766 182.349C450.031 182.513 469.409 186.849 482.356 195.206C487.796 198.717 492.111 202.97 495.154 207.833C497.816 212.053 499.519 216.751 500.263 221.779L500.312 222.174C501.205 228.306 502.71 238.576 494.988 247.708C490.64 252.835 483.877 256.923 474.866 259.873C464.234 263.335 450.196 265.313 433.149 265.725C431.43 265.758 429.727 265.775 428.023 265.775ZM343.267 216.52L343.896 216.701C341.614 224.63 343.152 232.114 348.426 238.922C354.627 246.917 365.705 253.527 380.47 258.06C395.55 262.676 413.754 264.885 433.1 264.407C464.267 263.648 484.737 257.747 493.963 246.867C501.305 238.18 499.866 228.29 498.99 222.372L498.94 221.976C497.419 211.542 491.433 202.673 481.628 196.327C468.897 188.101 449.766 183.849 424.75 183.684C398.278 183.502 378.965 186.371 365.705 192.453C354.18 197.745 347.054 205.674 343.879 216.701L343.267 216.52Z" fill="white" fill-opacity="0.19"/>
<path d="M356.115 471.761C353.287 471.761 350.377 471.711 347.401 471.612C326.303 470.904 303.039 467.739 280.122 462.48C253.452 456.348 228.187 447.644 205.039 436.616C178.368 423.907 155.154 408.363 136.056 390.411C119.753 375.098 107.038 361.202 97.1837 347.932C87.759 335.239 81.2114 323.453 77.1604 311.897C73.374 301.1 71.8528 290.682 72.4977 280.067C73.0764 270.572 75.4243 260.846 79.6571 250.346C82.8814 242.351 87.0481 233.037 93.4469 224.564C100.739 214.921 109.651 207.932 120.712 203.185C127.095 200.448 134.271 198.47 142.042 197.3C150.442 196.03 159.817 195.684 169.886 196.245C192.125 197.498 218.878 203.3 249.401 213.487C249.913 213.635 267.572 218.894 286.091 222.735C317.044 229.147 326.435 226.806 328.849 223.707C331.445 220.377 332.156 215.844 332.95 210.586C333.876 204.536 334.917 197.695 339.25 191.151C344.226 183.618 352.659 177.898 365.043 173.628C376.518 169.672 389.68 167.233 404.131 166.408C417.012 165.667 430.884 166.244 444.26 168.073C456.794 169.788 468.715 172.573 478.702 176.101C488.705 179.645 496.361 183.783 500.825 188.085C513.11 199.921 522.155 221.795 521.857 238.955C521.708 247.411 519.294 253.989 514.846 257.978C506.215 265.725 490.193 270.011 474.701 274.165C459.902 278.121 445.914 281.863 442.789 287.995C441.962 289.611 441.929 291.325 442.673 293.237C442.872 293.748 443.103 294.325 443.335 294.935C450.097 312.244 470.65 364.894 459.555 396.659C453.04 415.302 445.666 429.05 436.324 439.913C425.163 452.903 411.009 461.953 393.02 467.59C384.323 470.31 371.409 471.761 356.115 471.761ZM160.693 197.382C145.349 197.382 132.187 199.723 121.258 204.404C98.275 214.262 88.2882 232.543 80.8972 250.84C72.1174 272.599 71.3568 291.292 78.417 311.469C86.5024 334.53 105.649 360.048 136.966 389.455C182.105 431.853 239.893 451.881 280.42 461.194C303.254 466.453 326.435 469.601 347.434 470.294C366.383 470.936 382.438 469.519 392.64 466.321C433.414 453.546 448.725 423.709 458.331 396.214C469.261 364.91 448.841 312.59 442.127 295.413C441.896 294.803 441.665 294.243 441.466 293.715C440.59 291.457 440.639 289.331 441.631 287.402C445.021 280.742 458.629 277.116 474.386 272.896C489.019 268.989 505.604 264.555 513.987 257.005C518.153 253.263 520.419 247.016 520.567 238.939C520.865 222.092 511.986 200.646 499.932 189.041C495.6 184.871 488.11 180.832 478.289 177.354C468.368 173.843 456.546 171.09 444.095 169.392C427.362 167.101 394.888 164.76 365.49 174.898C338.357 184.261 336.091 198.981 334.289 210.817C333.496 216.026 332.735 220.954 329.924 224.548C327.725 227.35 322.219 228.504 313.092 228.026C306.032 227.663 296.871 226.328 285.843 224.037C267.109 220.163 249.219 214.822 249.037 214.756H249.021C214.381 203.168 184.833 197.382 160.693 197.382Z" fill="white" fill-opacity="0.19"/>
<path d="M281.991 160.639C276.369 160.639 270.532 159.304 264.662 156.666C249.748 149.974 234.784 135.121 220.184 112.522C214.844 104.263 210.76 96.4991 208.015 89.4274C205.469 82.8667 204.014 76.7016 203.683 71.1135C203.104 61.4044 205.783 53.0963 211.868 45.7114C218.994 36.1012 226.153 29.3757 233.131 25.7162C239.348 22.4688 245.416 21.6281 251.17 23.2271C259.504 25.5349 265.175 32.3263 268.465 37.6013C272.434 43.9641 275.178 51.9095 275.84 58.8328C277.162 72.7784 288.241 84.1525 305.007 101.362C307.206 103.62 309.488 105.961 311.869 108.434C318.631 115.456 321.293 122.973 319.805 130.786C317.341 143.627 304.048 153.93 295.714 157.721C291.548 159.617 287.034 160.589 282.272 160.639C282.189 160.639 282.09 160.639 281.991 160.639ZM245.433 23.7546C241.646 23.7546 237.744 24.7931 233.759 26.8866C226.947 30.4471 219.936 37.0573 212.926 46.5192L212.909 46.5521C207.039 53.6733 204.46 61.7011 205.006 71.0641C205.684 82.4381 211.157 96.1529 221.292 111.829C246.425 150.715 267.936 159.304 282.007 159.304C287.695 159.304 292.176 157.903 295.185 156.534C303.271 152.858 316.167 142.902 318.532 130.555C319.937 123.187 317.391 116.049 310.943 109.373C308.562 106.901 306.28 104.56 304.081 102.302C287.116 84.8943 275.906 73.3883 274.533 58.9812C273.889 52.2557 271.21 44.5246 267.357 38.3266C264.199 33.233 258.76 26.7217 250.839 24.5293C249.054 24.0018 247.251 23.7546 245.433 23.7546Z" fill="white" fill-opacity="0.19"/>
<path d="M280.452 174.98C279.527 174.98 278.617 174.964 277.708 174.914C257.569 173.909 238.389 162.024 220.713 139.572C210.594 126.715 202.657 114.467 197.118 103.159C192.141 92.9881 188.983 83.3119 187.727 74.427C186.619 66.6135 186.966 59.2121 188.752 52.4042C190.257 46.6842 192.819 41.2444 196.358 36.2332C203.848 25.6504 216.728 14.0291 229.989 5.90239C237.33 1.40222 244.341 -1.79571 250.839 -3.57599C258.147 -5.58706 264.563 -5.7519 269.903 -4.05403C275.624 -2.22429 280.056 1.71542 283.081 7.68267C286.388 14.1774 288.025 23.1613 287.976 34.354V34.6178C287.926 46.8984 287.893 54.3163 292.556 63.2837C297.136 72.0697 306.131 82.2569 325.774 100.851C334.157 108.796 337.927 118.077 337.001 128.445C336.19 137.594 331.825 145.638 328.303 150.765C324.137 156.848 319.342 161.496 316.448 163.392C311.207 166.837 305.767 169.557 300.31 171.486C293.73 173.81 287.066 174.98 280.452 174.98ZM261.967 -3.90568C253.204 -3.90568 242.406 -0.180261 230.7 7.00682C217.588 15.0511 204.84 26.5405 197.449 36.975C189.893 47.6567 187.065 60.1847 189.033 74.2292C191.645 92.7903 202.657 114.5 221.738 138.748C242.688 165.353 263.174 173.579 280.502 173.579C294.986 173.579 307.272 167.826 315.737 162.271C318.532 160.441 323.161 155.941 327.229 149.99C330.651 144.996 334.901 137.166 335.694 128.297C336.587 118.341 332.95 109.423 324.864 101.774C305.122 83.0647 296.045 72.795 291.398 63.8606C286.57 54.613 286.62 46.6512 286.669 34.5848V34.321C286.719 23.3261 285.115 14.5566 281.924 8.24314C279.064 2.60556 274.897 -1.11986 269.523 -2.83421C267.241 -3.54303 264.695 -3.90568 261.967 -3.90568Z" fill="white" fill-opacity="0.19"/>
<path d="M277.377 183.684C271.127 183.684 264.877 182.942 258.792 181.475C251.583 179.728 244.672 176.975 238.256 173.266C231.428 169.326 225.111 164.299 219.506 158.315C208.577 146.677 197.234 133.968 189.05 117.83C184.85 109.555 181.758 100.999 179.608 91.6529C177.244 81.3998 176.053 70.4708 175.987 58.2396C175.905 46.5358 178.401 35.7057 183.395 26.0131C187.892 17.3094 194.374 9.57838 202.674 3.03418C217.059 -8.30691 236.487 -15.6259 256.015 -17.06C263.687 -18.2468 270.648 -18.3128 276.716 -17.2743C283.297 -16.1369 288.488 -13.7302 292.143 -10.1202C297.202 -5.10898 299.104 1.99568 297.764 10.996C295.631 25.3702 296.392 39.8433 299.93 52.8328C303.022 64.2068 308.082 73.8006 314.15 79.8338C318.647 84.301 323.409 86.411 327.593 85.7846C327.708 85.1087 326.319 82.4218 325.079 80.0316C322.599 75.2677 318.862 68.0806 316.862 59.6078C314.464 49.47 315.175 39.8598 318.945 31.0572C324.335 18.4633 336.24 7.28709 355.304 -3.1144C371.74 -12.0818 390.854 -19.0711 407.702 -25.2361C421.691 -30.3462 433.777 -34.7804 441.747 -39.3136C463.953 -51.9569 502.495 -54.5449 553.554 -54.5449C567.095 -54.5449 578.207 -53.0614 587.532 -49.9953C596.692 -46.9952 604.447 -42.3631 611.226 -35.8189C617.542 -29.7363 623.148 -21.9887 628.885 -11.4059C634.738 -0.608814 640.294 12.4961 644.973 23.8866C650.496 37.3542 653.257 49.3216 653.439 60.4484C653.604 70.9159 651.471 80.4602 646.908 89.6583C637.615 108.368 619.014 123.368 600.297 136.803C577.43 153.205 556.117 161.216 535.266 161.216C534.489 161.216 533.729 161.2 532.952 161.183C514.152 160.656 498.295 153.699 484.324 147.567C470.435 141.468 458.43 136.21 446.112 137.693C437.514 138.715 429.611 139.16 422.336 139.16C394.458 139.16 375.873 132.764 363.754 128.594C357.603 126.484 353.138 124.951 350.394 125.363C345.566 126.088 343.565 131.594 340.82 139.226C338.423 145.869 335.446 154.111 329.461 161.694C322.434 170.579 312.761 176.728 299.881 180.486C292.539 182.612 284.95 183.684 277.377 183.684ZM267.523 -16.6479C263.968 -16.6479 260.165 -16.3512 256.18 -15.7248H256.13C224.268 -13.4005 176.979 8.22668 177.31 58.2396C177.641 107.857 196.209 131.561 220.465 157.408C235.793 173.744 255.981 182.448 277.113 182.448C284.52 182.448 292.027 181.376 299.5 179.2C327.989 170.892 334.686 152.315 339.58 138.765C342.374 131.001 344.59 124.868 350.212 124.044C353.287 123.583 357.619 125.083 364.2 127.341C379.379 132.567 404.776 141.303 445.98 136.374C458.662 134.858 471.394 140.446 484.886 146.364C512.498 158.463 546.857 173.53 599.553 135.748C618.138 122.412 636.59 107.544 645.75 89.0814C654.91 70.6027 654.282 50.047 643.783 24.3976C621.18 -30.7583 606.696 -53.2097 553.587 -53.2097C502.743 -53.2097 464.383 -50.6547 442.442 -38.1432C434.373 -33.5441 422.236 -29.1099 408.182 -23.9668C391.366 -17.8183 372.302 -10.8455 355.966 -1.92755C337.166 8.34208 325.46 19.304 320.185 31.6177C311.686 51.4151 321.177 69.6631 326.27 79.4711C328.452 83.6746 329.312 85.4219 328.783 86.4769C328.601 86.8396 328.254 87.0703 327.824 87.1363C323.145 87.8451 318.118 85.6527 313.241 80.8228C307.007 74.6248 301.832 64.8332 298.674 53.2284C295.086 40.0576 294.325 25.4032 296.475 10.8477C297.748 2.29239 295.979 -4.43313 291.217 -9.13111C286.256 -14.0599 277.906 -16.6479 267.523 -16.6479Z" fill="white" fill-opacity="0.19"/>
<path d="M280.089 194.052C274.252 194.052 268.217 193.574 262.033 192.602C253.286 191.234 244.87 188.646 237.05 184.887C229.874 181.442 222.929 176.909 216.431 171.387C205.402 162.04 195.498 150.023 185.23 133.589C176.037 118.868 169.423 100.604 166.579 82.158C163.339 61.1242 165.174 40.9806 171.887 23.903C178.699 6.57818 192.373 -5.22447 202.641 -12.0654C216.084 -21.0163 229.196 -25.4011 237 -26.5055C238.174 -26.6703 239.53 -26.8846 241.067 -27.1319C248.343 -28.2693 259.322 -29.9837 270.135 -29.8188C283.131 -29.621 292.771 -26.7033 298.79 -21.1646C304.626 -15.7908 307.173 -7.87842 306.379 2.34175C306.247 4.12204 306.081 6.0342 305.916 8.06174C304.444 25.947 302.212 52.981 308.231 59.5088C308.991 60.333 309.851 60.778 310.843 60.8605C310.827 60.3824 310.628 59.3604 310.43 58.3878C309.785 55.058 308.677 49.5029 309.19 41.9367C309.801 32.7715 312.629 23.3755 317.589 13.9631C321.21 7.10567 326.072 2.11097 335.529 -4.48269C345.219 -11.2412 359.471 -19.5162 385.827 -34.4014C391.73 -37.7477 396.889 -40.6983 401.436 -43.3028C435.464 -62.8036 438.242 -64.4025 495.518 -76.8975C525.875 -83.5241 555.373 -82.6835 580.786 -74.4579C603.62 -67.073 622.172 -53.9846 633.002 -37.5828C649.123 -13.1863 651.289 -12.6753 668.138 -8.78504C672.851 -7.69709 678.72 -6.34539 686.326 -4.13652C703.82 0.924118 713.393 7.71558 719.412 19.3039C725.315 30.6615 727.646 46.7995 730.87 69.119C733.036 84.0701 732.739 93.7463 729.928 100.472C727.282 106.785 722.537 110.082 717.047 113.906C712.104 117.335 706.515 121.242 700.728 128.231C691.204 139.737 683.201 135.847 673.958 131.33C664.765 126.846 654.348 121.769 638.789 128.412C627.083 133.407 616.848 141.995 606.927 150.303C598.478 157.392 589.731 164.711 580.009 169.936C570.419 175.079 560.796 177.601 550.726 177.601C549.304 177.601 547.866 177.552 546.411 177.453C530.091 176.315 515.491 169.705 501.371 163.309C482.273 154.672 464.251 146.496 442.194 150.551C439.697 151.012 436.969 151.21 434.075 151.21C421.74 151.21 406.248 147.551 392.276 144.254C382.239 141.897 372.765 139.655 365.639 139.028C358 138.352 354.064 139.572 353.221 142.869C350.939 151.82 347.037 159.914 341.631 166.936C336.273 173.876 329.544 179.629 321.607 184.046C309.719 190.673 295.598 194.052 280.089 194.052ZM268.68 -28.5001C258.445 -28.5001 248.177 -26.9011 241.266 -25.8132C239.712 -25.5659 238.356 -25.3516 237.165 -25.1868C229.51 -24.0988 216.613 -19.7965 203.352 -10.961C193.233 -4.21893 179.774 7.3859 173.094 24.3975C158.56 61.4044 169.274 105.565 186.338 132.913C201.335 156.93 223.508 185.283 262.232 191.316C268.449 192.289 274.484 192.767 280.271 192.767C316.581 192.767 343.879 174.189 351.932 142.572C353.287 137.281 360.463 137.281 365.754 137.743C372.98 138.385 382.504 140.627 392.59 143.001C409.736 147.04 429.181 151.622 441.979 149.281C452.065 147.419 462.333 147.979 473.378 150.979C483.199 153.65 492.723 157.969 501.949 162.139C515.954 168.485 530.455 175.046 546.527 176.167C571.957 177.947 589.318 163.392 606.101 149.331C616.087 140.957 626.405 132.303 638.293 127.242C654.415 120.352 665.575 125.808 674.554 130.193C679.233 132.468 683.267 134.446 687.302 134.528C691.683 134.627 695.635 132.369 699.719 127.44C705.622 120.302 711.293 116.363 716.303 112.868C721.842 109.011 726.224 105.961 728.721 100.01C731.449 93.5155 731.714 84.0701 729.581 69.3663C723.033 24.1503 720.569 7.22106 685.979 -2.8013C678.406 -4.99369 672.553 -6.34539 667.857 -7.43335C659.176 -9.44441 654.398 -10.5489 649.553 -14.3402C644.643 -18.181 639.748 -24.923 631.911 -36.7916C612.251 -66.562 562.549 -90.1013 495.832 -75.5458C438.738 -63.1003 435.977 -61.5178 402.114 -42.0995C397.567 -39.495 392.408 -36.5279 386.489 -33.1981C360.728 -18.6755 345.896 -10.0543 336.306 -3.37824C327.031 3.08354 322.285 7.96284 318.78 14.606C307.421 36.1342 310.446 51.5634 311.736 58.1571C312.182 60.3989 312.364 61.322 311.901 61.8825C311.72 62.0968 311.455 62.2122 311.174 62.2122C309.669 62.2122 308.363 61.6187 307.272 60.4319C304.395 57.3329 302.989 50.0963 302.956 38.3266C302.923 28.4362 303.866 17.0951 304.61 7.97932C304.775 5.95177 304.94 4.02314 305.073 2.25933C305.833 -7.54873 303.419 -15.0985 297.897 -20.1756C292.126 -25.5 282.768 -28.3023 270.119 -28.4836C269.639 -28.5001 269.16 -28.5001 268.68 -28.5001Z" fill="white" fill-opacity="0.19"/>
<path d="M273.359 125.346C269.606 125.346 265.125 123.55 260.578 120.17C255.237 116.214 250.128 110.263 246.21 103.456C245.565 102.335 244.788 101.065 243.961 99.7301C240.885 94.7354 237.066 88.5044 235.346 82.2569C234.404 78.8117 234.189 75.6633 234.735 72.9104C235.363 69.696 237.033 66.8772 239.695 64.5529C242.522 62.0803 244.622 61.1737 246.292 61.7177C248.772 62.5089 249.616 66.2508 250.707 70.9818C251.583 74.7896 252.575 79.1249 254.593 82.9328C257.883 89.1473 263.835 93.598 269.589 97.9168C277.295 103.703 284.586 109.159 282.47 117.681C281.081 123.253 277.576 124.868 274.88 125.248C274.368 125.313 273.872 125.346 273.359 125.346ZM247.35 102.796C255.998 117.797 267.886 124.885 274.682 123.945C277.972 123.484 280.221 121.209 281.164 117.368C283.065 109.687 276.451 104.725 268.779 98.9718C263.191 94.7849 256.841 90.0209 253.419 83.5592C251.319 79.603 250.31 75.1852 249.417 71.295C248.458 67.141 247.648 63.5474 245.879 62.987C244.738 62.6243 242.952 63.4815 240.571 65.5585C230.121 74.6907 239.133 89.3451 245.102 99.0542C245.912 100.389 246.689 101.659 247.35 102.796Z" fill="white" fill-opacity="0.19"/>
<path d="M348.013 485.673C316.763 485.673 287.778 478.783 265.803 473.574C262.976 472.898 260.297 472.272 257.718 471.678C239.298 467.409 217.721 460.106 196.953 451.122C175.21 441.71 156.394 431.243 143.977 421.649L142.604 420.594C129.377 410.39 114.396 398.835 100.028 384.444C83.4107 367.795 70.7122 350.421 61.2213 331.332C51.4329 311.65 46.7867 295.166 46.5717 279.457C46.3072 260.747 52.4084 242.516 65.1896 223.74C75.3749 208.773 88.8836 196.525 104.228 188.316C111.635 184.36 119.241 181.458 126.88 179.711C134.602 177.931 142.174 177.37 149.4 178.03C183.941 181.195 210.214 186.024 229.725 192.75C234.371 194.349 238.819 196.047 243.118 197.695C257.172 203.069 269.755 207.866 284.438 207.866C288.72 207.866 293.184 207.454 297.913 206.531C316.283 202.937 326.865 196.278 353.238 163.87C353.717 163.293 354.213 162.6 354.759 161.875C359.273 155.76 366.813 145.523 389.597 150.007C418.582 155.694 456.562 159.221 467.508 160.177C477.925 161.084 489.135 164.842 499.056 170.76C510.481 177.585 519.476 186.865 525.065 197.596C530.902 208.806 534.853 221.07 536.226 232.164C537.598 243.257 536.275 252.39 532.489 257.862C523.924 270.242 512.052 278.764 499.04 281.847C497.072 282.308 495.171 282.753 493.335 283.182C478.619 286.578 467.988 289.05 464.135 296.237C462.713 298.875 462.201 302.139 462.564 306.194C462.945 310.447 464.3 315.606 466.681 321.953C472.568 337.563 476.04 350.042 477.594 361.168C478.917 370.597 478.95 379.103 477.743 390.51C475.875 408.198 470.319 423.792 461.258 436.864C449.138 454.353 430.554 467.623 406.033 476.294C386.539 483.168 366.862 485.673 348.013 485.673ZM143.398 179.085C115.504 179.085 85.1633 196.739 66.2644 224.482C37.4777 266.78 47.3984 300.54 62.4118 330.739C83.6256 373.416 116.777 398.983 143.415 419.539L144.787 420.594C172.085 441.661 223.806 462.447 258.032 470.376C260.611 470.969 263.29 471.612 266.117 472.288C301.187 480.629 354.214 493.223 405.57 475.041C448.212 459.958 472.055 431.473 476.42 390.362C478.504 370.713 477.379 354.064 465.441 322.398C460.63 309.623 459.869 301.364 462.961 295.611C467.111 287.896 477.975 285.374 493.038 281.896C494.873 281.468 496.774 281.039 498.742 280.561C511.424 277.544 523.031 269.22 531.398 257.104C538.921 246.225 535.697 220.905 523.891 198.206C511.97 175.31 486.258 163.128 467.392 161.496C456.43 160.556 418.384 157.012 389.333 151.309C367.375 146.99 360.414 156.435 355.817 162.666C355.272 163.408 354.759 164.101 354.263 164.71C340.655 181.425 331.379 191.151 323.195 197.234C314.58 203.646 306.958 206.119 298.161 207.833C288.423 209.729 279.196 209.63 269.127 207.52C260.165 205.624 251.65 202.377 242.638 198.932C238.339 197.3 233.908 195.602 229.295 194.003C209.883 187.294 183.709 182.513 149.284 179.348C147.317 179.167 145.366 179.085 143.398 179.085Z" fill="white" fill-opacity="0.19"/>
<path d="M347.583 501.449C346.194 501.449 344.938 501.399 343.78 501.317C340.407 501.053 336.191 500.97 331.33 500.888C296.971 500.262 225.459 498.943 116.645 426.825C103.004 417.792 84.4028 397.434 68.0666 373.696C59.5017 361.234 51.8958 348.278 46.0922 336.228C39.5611 322.694 35.2125 310.265 33.1622 299.287C29.1774 278.022 29.5742 258.357 34.3692 240.801C39.1642 223.229 47.2 211.954 53.0863 205.591C53.8304 204.783 54.6406 203.893 55.5004 202.954C62.7756 194.942 73.7545 182.86 89.6773 174.057C98.4571 169.194 107.733 165.963 117.224 164.463C128.418 162.683 140.24 163.243 152.376 166.112C168.448 169.919 191.414 174.98 203.683 177.651C204.973 177.931 205.866 177.222 206.279 176.464C206.692 175.705 206.808 174.568 205.866 173.628C193.564 161.447 182.271 146.017 178.005 139.556C172.052 130.522 167.026 121.143 163.074 111.681C157.006 97.1585 153.401 82.3887 152.376 67.8002C151.417 54.1019 152.955 40.931 156.956 28.6504C162.181 12.6278 171.705 -2.40575 185.297 -16.0546C190.538 -21.3295 199.02 -26.4231 209.817 -30.8079C220.085 -34.9619 231.874 -38.2588 243.912 -40.3358C256.279 -42.4787 268.102 -43.171 278.072 -42.3303C289.2 -41.4072 297.533 -38.6874 302.841 -34.2696C309.058 -29.0936 312.613 -21.7581 313.406 -12.4776C314.068 -4.82893 312.712 2.57245 311.885 6.9902C311.637 8.39136 311.372 9.809 311.306 10.6332C312.745 9.1826 316.465 3.89118 320.665 -2.12553C324.65 -7.81255 332.421 -14.126 338.241 -18.4283C345.715 -23.9505 354.296 -29.3408 361.786 -33.1981C365.259 -34.9949 371.757 -38.6874 379.991 -43.3853C406.645 -58.5837 451.255 -84.0352 471.691 -89.3101C482.687 -92.1454 497.022 -93.9422 513.111 -94.5027C528.686 -95.0466 545.221 -94.4202 560.895 -92.6894C577.165 -90.8926 591.798 -87.9749 603.191 -84.233C615.922 -80.0625 624.355 -75.0514 628.257 -69.3479C652.166 -34.352 665.84 -28.5661 698.86 -14.6205C701.075 -13.6809 703.374 -12.7083 705.771 -11.6863C714.832 -7.82904 722.752 -0.92218 729.316 8.83643C735.186 17.5565 739.733 28.1723 742.875 40.4036C748.612 62.789 748.579 87.9603 742.792 104.543C740.097 112.274 731.052 125.05 718.999 134.512C712.269 139.786 705.358 143.495 698.463 145.523C690.377 147.897 682.474 147.897 674.967 145.539C659.673 140.726 649.339 140.66 639.319 145.309C629.381 149.908 620.023 158.875 605.836 172.458C604.199 174.024 602.496 175.656 600.727 177.354C589.798 187.788 577.397 190.541 566.071 190.541C558.614 190.541 551.619 189.338 545.799 188.349C540.822 187.492 536.523 186.766 533.746 187.129C532.489 187.294 532.224 187.838 532.125 188.003C531.067 190.146 534.738 196.393 538.971 203.646C546.114 215.861 555.885 232.576 557.539 250.609C558.151 257.219 556.497 263.253 552.645 268.544C549.272 273.16 544.344 277.182 537.549 280.858C525.263 287.501 509.44 291.523 496.708 294.737C491.583 296.04 486.721 297.259 482.952 298.463C477.115 300.309 474.519 303.111 474.271 307.809C474.023 312.507 475.99 318.936 478.735 327.821C482.902 341.371 488.623 359.932 490.772 386.175C491.996 401.159 490.938 415.088 487.614 427.583C484.721 438.479 480.074 448.37 473.841 456.958C459.985 476.03 442.739 482.986 435.977 485.08H435.944C435.778 485.129 418.549 489.662 398.691 493.932C375.146 498.91 357.983 501.449 347.583 501.449ZM130.237 164.71C91.9921 164.71 68.6619 190.409 56.4759 203.811C55.6161 204.75 54.8059 205.657 54.0453 206.465C44.8025 216.438 24.3989 245.433 34.4519 299.023C38.354 319.826 50.6723 346.069 69.1579 372.938C85.3948 396.543 103.864 416.769 117.373 425.72C225.856 497.624 297.12 498.926 331.363 499.569C336.257 499.652 340.473 499.734 343.896 500.014C366.73 501.828 434.34 484.074 435.613 483.745C442.26 481.684 459.175 474.843 472.783 456.101C486.143 437.704 491.764 414.181 489.466 386.191C487.333 360.097 481.645 341.618 477.495 328.118C474.717 319.101 472.717 312.573 472.981 307.644C473.262 302.386 476.222 299.139 482.588 297.128C486.407 295.908 491.268 294.688 496.427 293.386C509.076 290.188 524.817 286.199 536.953 279.621C551.041 271.989 557.357 262.527 556.266 250.659C554.645 232.922 544.94 216.339 537.863 204.239C532.886 195.734 529.612 190.129 530.968 187.36C531.414 186.47 532.291 185.926 533.597 185.761C536.573 185.382 540.756 186.09 546.031 186.997C560.432 189.453 582.175 193.179 599.834 176.348C601.603 174.667 603.307 173.035 604.943 171.452C619.213 157.787 628.637 148.754 638.773 144.056C649.14 139.259 659.739 139.308 675.381 144.221C705.92 153.831 735.996 120.005 741.568 104.065C747.273 87.7131 747.289 62.8385 741.618 40.6838C737.782 25.6997 727.96 -0.872734 705.275 -10.5324C702.878 -11.5545 700.579 -12.527 698.364 -13.4666C682.011 -20.3735 670.205 -25.3682 659.524 -33.0168C648.562 -40.8633 638.905 -51.5285 627.199 -68.6555C623.462 -74.1283 615.261 -78.9581 602.81 -83.0297C591.501 -86.7386 576.967 -89.6398 560.78 -91.4201C528.537 -94.9807 493.715 -93.662 472.055 -88.0738C451.784 -82.8484 407.273 -57.4628 380.669 -42.2974C372.418 -37.5994 365.92 -33.8905 362.415 -32.0772C347.98 -24.6429 328.337 -10.7962 321.773 -1.41671C312.794 11.408 311.753 12.6772 310.612 12.1992C309.669 11.8036 309.901 10.5178 310.612 6.70998C312.315 -2.53762 315.837 -21.7746 302.014 -33.297C296.987 -37.484 288.687 -40.1709 277.989 -41.0611C268.135 -41.8853 256.428 -41.1929 244.176 -39.0665C219.159 -34.7476 196.424 -25.3517 186.272 -15.148C162.495 8.73753 151.55 36.6122 153.732 67.6848C155.402 91.5209 164.199 116.115 179.146 138.797C183.379 145.21 194.606 160.556 206.825 172.656C208.032 173.843 208.28 175.574 207.469 177.057C206.659 178.541 205.072 179.266 203.418 178.903C191.15 176.233 168.183 171.172 152.095 167.364C144.307 165.535 137.032 164.71 130.237 164.71Z" fill="white" fill-opacity="0.19"/>
<path d="M533.249 471.992C530.918 471.992 528.653 471.794 526.52 471.398C519.096 469.997 513.309 466.337 509.34 460.519C504.347 453.183 500.775 445.584 498.709 437.886C495.551 426.1 495.898 414.149 499.783 402.363C508.58 375.625 501.42 358.762 493.351 343.794C487.928 333.723 482.439 319.662 487.151 309.837C489.681 304.546 494.906 301.117 502.677 299.65C510.762 298.117 519.311 297.589 528.091 298.067C544.774 298.974 559.655 293.106 566.93 282.737C573.114 273.918 573.478 262.462 567.955 249.588C562.4 236.631 559.093 227.383 557.522 220.509C555.951 213.553 556.117 208.789 558.084 205.509C561.424 199.904 569.741 199.113 581.249 198.025C583.663 197.794 586.176 197.564 588.855 197.267C602.364 195.767 611.077 186.997 619.527 178.524C625.694 172.326 632.093 165.898 640.344 162.255C651.967 157.111 661.574 157.54 671.759 157.985C683.135 158.496 694.908 159.024 711.012 151.985L713.509 150.897C728.324 144.419 740.03 139.292 750.96 136.111C762.617 132.731 772.785 131.759 783.946 132.995C792.28 133.918 800.795 137.182 809.294 142.704C816.8 147.584 824.125 154.128 831.119 162.156C843.189 176.035 853.358 193.574 857.657 207.949C861.245 219.949 864.469 231.851 864.436 245.648C864.403 261.522 859.972 277.907 850.895 295.727C844.446 308.403 838.461 319.052 833.186 328.448C822.042 348.311 813.229 364.004 807.425 385.351C802.812 402.33 798.447 414.726 791.023 424.039C783.268 433.765 772.62 439.419 756.499 442.402C753.754 442.914 750.91 443.161 747.967 443.161C736.294 443.161 723.116 439.205 709.342 431.523C694.395 423.182 679.53 410.885 667.477 396.923C649.504 376.087 610.598 333.096 596.593 319.464C590.095 313.134 582.175 308.782 574.288 307.233C567.046 305.815 560.796 306.919 557.109 310.266C554.38 312.738 553.289 316.315 553.934 320.618C554.695 325.645 557.704 331.431 562.879 337.811C564.582 339.921 566.302 342.014 567.955 344.025C584.787 364.581 599.321 382.351 597.221 401.917C596.064 412.731 592.377 424.55 586.838 435.199C580.852 446.721 573.313 455.804 565.029 461.475C555.058 468.2 543.451 471.992 533.249 471.992ZM521.857 299.205C515.342 299.205 508.993 299.782 502.908 300.936C495.567 302.32 490.656 305.502 488.325 310.398C486.374 314.469 486.159 319.777 487.68 326.173C488.904 331.299 491.202 337.019 494.509 343.168C498.477 350.52 502.76 359.421 504.413 369.609C506.083 379.911 504.992 390.758 501.024 402.775C494.757 421.83 497.998 441.545 510.432 459.777C514.202 465.299 519.691 468.777 526.751 470.112C537.978 472.222 552.33 468.497 564.219 460.37C582.175 448.106 593.716 421.6 595.849 401.753C597.899 382.73 583.514 365.158 566.881 344.833C565.227 342.805 563.508 340.712 561.804 338.602C556.48 332.025 553.372 326.024 552.578 320.766C551.867 316.002 553.107 312.013 556.166 309.227C560.168 305.601 566.848 304.381 574.503 305.881C582.638 307.48 590.79 311.947 597.469 318.458C611.507 332.124 650.446 375.164 668.436 396.016C680.39 409.863 695.123 422.061 709.954 430.336C726.935 439.815 742.924 443.54 756.218 441.084C787.617 435.281 796.645 419.803 806.102 384.988C811.956 363.493 820.785 347.734 831.979 327.788C837.254 318.392 843.223 307.76 849.654 295.117C870.223 254.731 862.502 228.999 856.318 208.328C852.068 194.118 841.999 176.761 830.044 163.029C819.694 151.111 803.242 136.473 783.731 134.314C760.484 131.742 743.966 138.979 713.972 152.117L711.475 153.205C695.089 160.375 683.168 159.831 671.627 159.32C661.607 158.875 652.149 158.447 640.807 163.474C632.787 167.035 626.488 173.348 620.403 179.48C611.805 188.118 602.909 197.053 588.938 198.602C586.259 198.899 583.746 199.146 581.315 199.377C570.187 200.432 562.152 201.19 559.159 206.218C557.39 209.185 557.257 213.652 558.762 220.246C560.3 227.054 563.59 236.219 569.113 249.093C574.817 262.412 574.42 274.314 567.955 283.512C560.928 293.518 547.122 299.501 531.397 299.501C530.257 299.501 529.116 299.469 527.958 299.403C525.941 299.254 523.891 299.205 521.857 299.205Z" fill="white" fill-opacity="0.19"/>
<path d="M757.871 588.073C745.784 588.073 736.955 587.347 731.499 585.93C716.138 581.908 673.264 574.885 623.627 566.759C549.867 554.676 466.251 540.994 451.255 533.362C431.959 523.537 429.594 513.449 429.479 509.559C429.379 506.295 430.653 503.509 432.785 502.24C433.992 501.531 436.34 500.905 439.614 500.031C450.676 497.08 471.261 491.575 480.918 473.706C482.554 470.673 484.224 464.574 485.845 458.672C488.705 448.221 490.458 442.27 492.872 442.27C492.905 442.27 492.938 442.27 492.955 442.27C494.211 442.353 494.922 443.985 495.336 445.221C495.964 447.034 496.543 449.738 497.088 453.463C499.535 469.997 506.711 481.816 517.872 487.651C528.802 493.371 541.583 492.135 548.825 488.574C550.892 487.552 553.322 486.547 556.133 485.36C575.66 477.184 608.349 463.486 609.804 411.363C610.333 392.472 601.868 364.119 581.762 343.316C569.923 331.068 567.476 321.953 570.287 318.359C571.94 316.233 575.131 316.233 578.835 318.326C590.723 325.085 616.749 355.514 627.397 368.29C632.837 374.817 638.293 381.724 643.568 388.4C671.379 423.594 700.133 459.974 744.511 466.288C770.256 469.947 794.165 454.732 803.192 444.282C809.459 437.029 812.65 424.55 816.668 408.742C820.206 394.862 824.224 379.12 831.417 362.866C835.369 353.932 842.148 345.146 848.712 336.657C856.731 326.255 864.304 316.431 867.131 306.408C868.008 303.276 869.099 299.864 870.24 296.237C878.325 270.621 890.544 231.933 864.569 193.756C859.195 185.843 845.818 170.018 835.071 157.293C827.052 147.798 820.719 140.298 819.71 138.484C819.264 137.677 819.529 137.166 819.727 136.935C820.273 136.275 821.562 135.748 829.813 138.072C834.906 139.506 841.42 141.649 847.736 143.726C854.069 145.803 860.055 147.781 864.354 148.952C889.635 155.76 927.78 149.331 955.327 142.754C985.221 135.6 1009.44 126.715 1009.68 126.632L1010.47 126.335L1014.11 162.238C1014.16 164.183 1019.1 357.773 1022.11 382.202C1022.84 388.153 1021.99 401.439 1019.75 419.654C1017.55 437.391 1014.22 458.161 1010.39 478.107C1005.89 501.514 994.332 556.44 984.213 560.66C976.623 563.825 924.639 572.594 866.437 579.583C835.418 583.309 807.31 585.946 785.153 587.199C774.753 587.776 765.642 588.073 757.871 588.073ZM492.889 443.589C492.773 443.589 491.946 443.754 490.408 448.023C489.334 450.974 488.275 454.881 487.135 459.018C485.498 464.986 483.811 471.151 482.092 474.316C472.171 492.695 451.221 498.284 439.978 501.284C436.919 502.091 434.522 502.734 433.48 503.361C431.76 504.366 430.735 506.723 430.818 509.493C430.934 513.152 433.199 522.664 451.866 532.158C466.681 539.692 550.181 553.374 623.859 565.423C673.528 573.55 716.419 580.589 731.846 584.628C748.05 588.88 797.058 586.54 866.321 578.232C924.424 571.259 976.226 562.539 983.733 559.407C990.231 556.687 999.97 525.433 1009.11 477.827C1017.13 436.105 1022.28 394.153 1020.82 382.318C1017.83 357.905 1012.9 165.452 1012.82 162.254L1009.36 128.116C1004.91 129.715 982.592 137.561 955.674 143.99C938.065 148.21 921.944 150.996 907.79 152.314C890.048 153.946 875.333 153.238 864.023 150.188C859.674 149.001 853.689 147.023 847.34 144.946C841.189 142.918 834.84 140.825 829.83 139.407C823.017 137.479 821.281 137.578 820.851 137.726C820.868 137.759 820.884 137.792 820.901 137.825C821.843 139.523 828.457 147.353 836.129 156.419C846.893 169.161 860.286 185.035 865.71 192.997C871.877 202.064 876.325 211.789 878.888 221.861C881.12 230.598 882.029 239.911 881.583 249.587C880.773 267.374 875.663 283.594 871.546 296.617C870.405 300.227 869.331 303.655 868.454 306.754C865.561 317.024 857.905 326.947 849.803 337.448C843.289 345.888 836.576 354.608 832.673 363.394C825.514 379.548 821.513 395.225 817.991 409.071C813.923 425.028 810.699 437.638 804.234 445.139C798.811 451.419 789.981 457.667 780.59 461.887C772.19 465.645 759.095 469.684 744.362 467.59C699.471 461.194 670.552 424.599 642.576 389.208C637.301 382.532 631.845 375.642 626.422 369.13C615.823 356.421 589.93 326.123 578.223 319.48C575.148 317.733 572.585 317.617 571.362 319.167C570.171 320.7 570.353 323.634 571.841 327.228C573.709 331.695 577.479 336.937 582.737 342.393C592.195 352.168 599.851 364.498 604.91 378.048C609.209 389.587 611.425 401.439 611.16 411.396C610.813 423.742 608.663 434.82 604.761 444.315C601.405 452.474 596.643 459.694 590.624 465.81C579.612 476.97 566.352 482.525 556.679 486.58C553.884 487.75 551.487 488.756 549.453 489.761C545.386 491.772 540.194 492.893 534.837 492.943C534.721 492.943 534.605 492.943 534.473 492.943C528.372 492.943 522.436 491.525 517.277 488.822C511.903 486.019 507.389 481.865 503.868 476.508C499.85 470.392 497.138 462.711 495.799 453.661C494.377 443.968 493.037 443.606 492.889 443.589Z" fill="white" fill-opacity="0.19"/>
<path d="M756.284 569.792C747.934 569.792 716.717 563.643 686.525 557.692C664.021 553.258 642.774 549.071 631.795 547.571C606.282 544.077 541.318 541.043 540.673 541.01H540.591L540.508 540.977C540.326 540.912 521.659 535.093 502.942 528.614C491.93 524.807 483.067 521.526 476.552 518.856C465.359 514.273 463.523 512.427 463.093 511.454C462.432 509.905 462.878 508.207 464.333 506.674C468.632 502.141 482.323 498.646 496.857 503.872C500.709 505.256 504.082 506.773 507.34 508.256C519.691 513.828 529.446 518.229 553.157 510.432C560.746 507.943 566.451 506.163 570.601 504.861C584.01 500.657 584.258 500.575 592.03 494.723C592.939 494.031 594.179 493.256 595.601 492.333C608.283 484.256 637.963 465.365 624.206 403.978C620.767 388.631 609.176 367.564 602.265 354.97C600.495 351.74 598.958 348.954 597.966 346.992C596.51 344.107 596.312 343.3 596.957 342.855C597.602 342.426 598.313 342.888 600.429 345.162C601.983 346.827 604.331 349.531 607.605 353.421C616.765 364.317 630.621 383.455 642.84 400.335C651.537 412.352 659.061 422.737 663.095 427.665C689.451 459.859 718.056 479.063 736.029 486.316C746.363 490.47 763.658 487.503 776.357 484.272C793.437 479.92 808.682 473.557 816.519 469.436C832.293 461.145 837.088 432.512 842.181 402.214C842.859 398.159 843.57 393.972 844.297 389.851C847.637 370.977 855.127 362.157 863.08 352.811C869.76 344.948 876.672 336.821 881.946 321.986C888.891 302.419 894.248 283.512 897.456 267.308C901.126 248.747 901.904 234.274 899.787 224.284C893.62 195.19 870.323 176.563 856.4 165.419C850.398 160.622 846.43 157.457 845.719 155.051C845.603 154.688 845.686 154.325 845.951 154.078C846.414 153.617 847.373 153.32 853.193 154.985C856.5 155.924 860.27 157.177 862.75 158.018C863.841 158.381 864.701 158.677 865.081 158.776C878.59 162.749 892.132 164.249 905.045 164.249C932.625 164.249 957.377 157.391 972.969 153.056C984.213 149.941 988.809 148.737 990.049 150.501C990.959 151.787 991.769 156.485 989.917 181.557C988.71 197.909 986.726 218.317 984.957 236.334C984.461 241.395 983.998 246.175 983.568 250.692C981.749 269.616 982.609 286.248 983.518 303.853C984.411 321.112 985.32 338.964 984.08 361.679L983.832 366.328C981.435 410.341 979.864 439.402 974.953 467.26C972.837 479.294 970.29 491.08 968.042 501.482C964.917 515.938 962.453 527.345 962.685 532.274C962.817 535.192 957.989 537.681 946.547 540.615C936.858 543.104 923.531 545.593 909.41 548.23C892.264 551.428 874.522 554.742 859.476 558.681C822.505 568.341 778.953 569.792 756.284 569.792ZM540.822 539.692C543.534 539.824 606.845 542.824 631.977 546.252C642.989 547.752 664.253 551.956 686.789 556.39C716.915 562.324 748.066 568.473 756.284 568.473C778.887 568.473 822.306 567.039 859.178 557.379C874.274 553.423 892.032 550.11 909.212 546.895C923.299 544.258 936.626 541.769 946.266 539.296C958.898 536.049 961.461 533.691 961.411 532.29C961.18 527.197 963.66 515.707 966.802 501.168C969.05 490.783 971.58 478.997 973.697 466.997C978.591 439.221 980.162 410.176 982.559 366.213L982.807 361.564C984.047 338.931 983.121 321.112 982.245 303.886C981.336 286.232 980.476 269.55 982.311 250.527C982.741 246.01 983.204 241.23 983.7 236.169C985.453 218.169 987.453 197.778 988.66 181.425C989.322 172.524 989.669 165.765 989.752 160.754C989.867 153.518 989.338 151.688 989.024 151.226C988.925 151.078 988.297 150.649 984.659 151.375C981.898 151.935 978.128 152.974 973.382 154.292C957.724 158.644 932.856 165.535 905.111 165.535C892.082 165.535 878.424 164.018 864.767 159.996C864.37 159.881 863.527 159.6 862.386 159.221C860.022 158.43 856.434 157.227 853.242 156.304C849.357 155.183 847.802 154.985 847.207 154.985C847.191 154.985 847.191 154.985 847.174 154.985C848.133 157.029 852.201 160.276 857.277 164.331C871.331 175.573 894.876 194.382 901.126 223.954C903.276 234.109 902.499 248.763 898.795 267.506C895.587 283.775 890.214 302.749 883.236 322.365C877.879 337.448 870.901 345.657 864.139 353.619C856.318 362.817 848.927 371.504 845.653 390.032C844.926 394.137 844.231 398.324 843.537 402.379C838.394 433.006 833.533 461.953 817.181 470.541C809.261 474.711 793.916 481.124 776.721 485.492C768.404 487.602 758.119 489.613 749.009 489.613C743.999 489.613 739.352 489.003 735.566 487.486C717.428 480.184 688.608 460.848 662.103 428.457C658.052 423.495 650.529 413.11 641.799 401.06C629.596 384.197 615.757 365.075 606.63 354.212C602.678 349.514 599.95 346.415 598.478 344.948C599.388 346.926 601.372 350.536 603.455 354.295C610.416 366.938 622.056 388.12 625.529 403.648C631.514 430.336 629.976 452.26 620.949 468.81C613.491 482.492 602.761 489.316 596.345 493.404C594.94 494.294 593.716 495.069 592.856 495.729C584.903 501.729 584.374 501.894 571.014 506.081C566.848 507.383 561.16 509.163 553.587 511.652C542.509 515.295 533.663 516.548 525.743 515.592C518.583 514.735 512.862 512.147 506.811 509.427C503.57 507.96 500.213 506.46 496.427 505.091C488.441 502.223 481.529 502.289 477.131 502.866C471.873 503.542 467.458 505.306 465.325 507.564C464.565 508.372 463.771 509.608 464.333 510.927C464.78 511.965 469.459 515.625 503.388 527.362C521.46 533.609 539.466 539.263 540.822 539.692Z" fill="white" fill-opacity="0.19"/>
<path d="M-28.363 499.421C-37.8704 499.421 -43.6409 499.306 -44.5669 499.058C-46.6006 498.498 -49.9406 498.366 -53.4625 498.218C-59.7456 497.954 -65.6815 497.723 -66.7893 495.135C-67.0704 494.492 -67.7979 492.794 -58.0425 219.141C-53.2144 83.9547 -48.1549 -52.5504 -48.1053 -53.9186L-48.0722 -54.5945L-47.3943 -54.545L190.885 -37.6488L187.992 -36.5938C164.43 -27.9891 147.978 -3.90574 142.571 7.61668C136.999 19.4853 132.816 43.173 137.809 74.0313C140.918 93.2683 149.383 113.676 163.686 136.407C170.548 147.32 177.757 154.787 182.519 159.732C186.801 164.167 188.752 166.194 187.727 167.678C187.099 168.584 185.627 168.057 178.732 165.403C160.346 158.331 117.306 141.748 81.3933 159.633C49.184 175.673 30.996 194.942 20.6288 224.037C11.1545 250.609 8.8397 282.77 14.4449 310.101C20.8107 341.173 39.5774 370.07 54.2105 388.845C71.1419 410.588 87.5111 425.374 90.9668 428.144C99.1349 434.688 126.351 455.227 140.885 465.53C152.426 473.706 164.298 485.921 170.961 493.899C171.457 494.492 171.92 495.003 172.333 495.432C174.813 495.893 176.169 497.014 176.368 497.872C176.467 498.317 176.285 498.729 175.905 498.91C175.062 499.322 173.54 498.498 171.688 496.652C171.159 496.569 170.548 496.52 169.886 496.52C168.034 496.52 155.65 496.734 138.504 497.047C68.1491 498.333 1.44876 499.421 -28.363 499.421ZM-65.5492 494.674C-64.6894 496.454 -58.4394 496.701 -53.3963 496.916C-49.7918 497.064 -46.3857 497.196 -44.2197 497.789C-40.0199 498.927 85.064 496.718 138.487 495.762C156.278 495.448 168.034 495.234 169.903 495.234C170.068 495.234 170.217 495.234 170.382 495.234C170.25 495.086 170.118 494.921 169.985 494.756C163.372 486.844 151.582 474.728 140.157 466.618C125.59 456.315 98.3577 435.743 90.1731 429.182C86.6843 426.396 70.2159 411.495 53.2019 389.67C43.7111 377.488 35.6587 365.207 29.2268 353.174C21.3894 338.47 15.9826 324.079 13.1883 310.381C10.5593 297.573 9.63336 283.116 10.5262 268.561C11.4687 252.835 14.5607 237.29 19.4383 223.608C29.9378 194.168 48.3077 174.683 80.8642 158.463C96.5059 150.683 115.405 148.474 137.049 151.935C154.823 154.771 170.134 160.672 179.278 164.183C182.585 165.452 185.743 166.672 186.718 166.771C186.685 166.557 186.52 166.095 185.809 165.189C184.916 164.051 183.461 162.535 181.626 160.639C176.814 155.661 169.555 148.128 162.611 137.1C155.617 125.973 150.16 115.72 145.928 105.747C141.298 94.8343 138.223 84.5152 136.569 74.2291C134.238 59.8055 133.709 46.0577 134.982 33.3649C136.023 23.0458 138.322 13.6993 141.43 7.03973C145.051 -0.674847 151.318 -9.70816 158.196 -17.1425C166.497 -26.1099 175.673 -32.8519 184.9 -36.7751L-46.799 -53.1768C-47.6258 -31.1375 -66.8058 486.201 -65.5492 494.674Z" fill="white" fill-opacity="0.19"/>
<path d="M-19.699 497.262C-27.4537 497.262 -33.1251 495.498 -37.2422 490.338C-47.8408 477.003 -47.7581 475.404 -46.1543 448.6C-45.9724 445.551 -45.774 442.106 -45.559 438.298C-44.1205 412.121 -42.2025 379.697 -40.7971 356.009C-40.2515 346.728 -39.772 338.717 -39.4743 333.623C-38.4657 316.101 -37.4571 140.759 -37.4571 139.177C-37.4571 138.962 -37.5067 137.116 -37.5894 134.347C-37.9532 121.604 -39.061 82.8337 -39.4413 47.6566C-39.6562 27.7602 -39.5901 11.9519 -39.2759 0.643803C-39.094 -5.93337 -38.813 -11.0599 -38.4492 -14.637C-37.8705 -20.357 -37.176 -21.1153 -36.5643 -21.3955C-32.9597 -23.0109 29.8054 -24.8077 50.424 -25.4011C91.5785 -26.588 132.568 -27.4781 132.981 -27.4781L133.907 -27.4946L133.609 -26.6045C132.766 -24.033 131.642 -21.379 130.335 -18.313C125.177 -6.19712 118.116 10.4024 119.323 43.7169C121.605 106.587 147.002 134.775 156.559 145.391C159.221 148.358 160.329 149.578 160.065 150.551C159.998 150.765 159.817 151.144 159.254 151.309C158.725 151.474 157.998 151.161 155.022 149.792C146.853 146.067 125.144 136.193 102.177 140.083C55.3844 148.012 39.7261 165.765 30.3676 176.381C29.1606 177.749 28.0197 179.035 26.9449 180.173C15.8172 191.843 5.91299 211.509 -0.254395 234.109C-6.70287 257.763 -8.48859 282.127 -5.31396 302.716C5.76418 374.372 44.3889 409.978 72.5803 435.974C74.2668 437.523 75.8541 438.99 77.4414 440.457C96.4066 458.095 116.678 478.041 124.598 486.844C126.533 488.987 127.128 490.437 126.566 491.542C125.408 493.783 120.068 493.322 106.989 491.954C94.0752 490.602 74.5479 488.574 51.3499 489.481C32.2525 490.239 16.71 492.63 4.22647 494.558C-5.36357 496.042 -13.2505 497.262 -19.699 497.262ZM-35.9855 -20.2086C-36.1178 -20.0603 -36.6965 -19.1537 -37.1926 -13.8293C-37.5398 -10.1533 -37.8043 -4.96081 -37.9697 1.64933C-38.2673 13.0234 -38.3169 28.7987 -38.102 48.5302C-37.7217 83.4437 -36.6304 121.72 -36.2666 134.297C-36.184 137.281 -36.1344 138.929 -36.1344 139.16C-36.1344 140.759 -37.143 316.134 -38.1681 333.689C-38.4657 338.783 -38.9287 346.794 -39.4909 356.075C-40.8963 379.746 -42.8143 412.17 -44.2528 438.347C-44.4678 442.155 -44.6662 445.617 -44.8481 448.666C-45.6252 461.771 -46.0551 468.991 -44.9803 474.25C-43.9387 479.409 -41.5081 482.871 -36.217 489.514C-29.1568 498.383 -16.6567 496.454 4.04459 493.256C16.5612 491.327 32.1368 488.921 51.3169 488.162C74.5975 487.239 94.1909 489.283 107.137 490.635C112.743 491.212 117.174 491.69 120.365 491.756C124.118 491.855 125.177 491.36 125.392 490.915C125.507 490.684 125.59 489.893 123.606 487.701C115.719 478.931 95.4806 459.018 76.532 441.397C74.9613 439.93 73.3739 438.463 71.6874 436.913C57.9637 424.253 40.8836 408.511 26.2009 387.246C9.05455 362.405 -1.67636 334.81 -6.62019 302.881C-9.8279 282.111 -8.02563 257.533 -1.54409 233.713C4.6729 210.899 14.6928 191.036 25.9694 179.217C27.0441 178.096 28.1685 176.81 29.359 175.458C34.0713 170.117 40.5363 162.782 51.5814 155.974C64.6768 147.897 81.1452 142.259 101.946 138.748C111.966 137.05 122.862 137.709 134.337 140.71C143.745 143.166 151.434 146.66 155.567 148.54C156.824 149.116 158.031 149.66 158.643 149.875C158.229 149.149 156.873 147.666 155.567 146.215C150.838 140.973 142.042 131.198 134.105 114.78C124.4 94.6858 118.976 70.7673 117.984 43.7004C117.439 28.8317 118.497 15.9411 121.175 4.2868C123.507 -5.63666 126.615 -12.9556 129.128 -18.8405C130.269 -21.5274 131.278 -23.8846 132.072 -26.1429C85.9898 -25.1374 -31.0748 -22.1867 -35.9855 -20.2086Z" fill="white" fill-opacity="0.19"/>
<path d="M61.8166 478.387C59.6506 478.387 57.3358 478.321 54.9052 478.19C42.6531 477.514 28.6649 475.222 15.5364 471.744C-3.79246 466.601 -29.2391 464.376 -39.3748 471.645C-39.7551 471.909 -40.185 471.959 -40.5818 471.744C-41.2763 471.382 -42.0369 470.261 -42.814 464.656C-43.3431 460.799 -43.8226 455.211 -44.236 448.024C-44.9965 434.688 -45.5587 415.368 -45.8894 390.609C-46.4516 348.937 -46.402 291.259 -45.7406 219.174C-44.6328 96.4828 -42.103 -27.0824 -42.0699 -28.3187L-42.0534 -28.978L-41.392 -28.9615L118.282 -25.5328L118.051 -24.7086C110.709 0.775848 103.715 36.3486 114.826 85.5703C117.141 95.8234 122.383 105.483 126.582 113.247C131.03 121.473 134.254 127.407 131.973 130.292C130.204 132.517 125.442 132.468 116.496 130.11C74.697 119.083 35.907 133.259 7.20301 170.035C-5.11522 185.81 -15.1021 214.608 -22.4765 255.621C-29.5037 294.705 -11.4314 353.883 -2.70118 371.982C19.9016 418.88 48.5063 439.946 65.603 452.54C71.109 456.595 75.4576 459.81 78.3842 462.859C81.6415 466.272 82.832 469.222 82.2037 472.387C81.9722 473.541 81.1786 474.547 79.8558 475.387C76.6812 477.349 70.398 478.387 61.8166 478.387ZM-18.0287 465.662C-17.2681 465.662 -16.491 465.678 -15.7139 465.695C-6.02462 465.942 5.20234 467.623 15.8671 470.458C28.9129 473.92 42.8019 476.195 54.9713 476.871C66.6447 477.514 75.4576 476.558 79.1448 474.25C80.1534 473.623 80.7487 472.898 80.8975 472.123C82.0384 466.271 75.5568 461.491 64.8094 453.579C56.261 447.282 44.538 438.644 32.4017 425.902C18.0001 410.769 6.12827 393.329 -3.89167 372.543C-8.43867 363.097 -15.1682 343.547 -19.8971 321.162C-23.7662 302.864 -27.5857 276.605 -23.7662 255.39C-19.616 232.362 -14.6391 213.026 -8.9347 197.893C-4.37117 185.777 0.572666 176.398 6.17788 169.227C13.1059 160.342 20.811 152.628 29.0452 146.298C37.362 139.918 46.2907 134.891 55.5831 131.38C65.0409 127.803 74.9781 125.759 85.0807 125.281C95.4479 124.803 106.129 125.989 116.811 128.808C124.946 130.951 129.559 131.165 130.915 129.451C132.667 127.242 129.459 121.324 125.408 113.857C121.159 106.027 115.885 96.285 113.537 85.8505C108.527 63.6793 106.791 42.7445 108.213 21.8591C109.552 2.22645 113.553 -13.7467 116.546 -24.2636L-40.7472 -27.6428C-40.9456 -17.7194 -43.3266 100.736 -44.4178 218.597C-45.0792 290.534 -45.1288 348.179 -44.5666 389.917C-44.236 414.693 -43.6903 434.061 -42.9297 447.48C-42.5164 454.683 -42.0534 460.304 -41.5243 464.195C-40.8794 469.008 -40.2677 470.211 -40.0362 470.491C-35.5388 467.327 -27.966 465.662 -18.0287 465.662Z" fill="white" fill-opacity="0.19"/>
<path d="M29.5078 464.392C25.308 464.392 18.7438 463.453 8.79 461.54C4.25953 460.667 -4.04081 457.271 -12.3246 451.65C-18.8723 447.199 -27.3545 440.029 -30.6449 431.078C-37.9532 411.05 -38.9122 394.417 -38.4327 383.983C-37.9201 372.988 -35.8037 366.542 -35.5887 365.916C-33.9022 357.888 -31.6204 353.998 -28.3962 353.701C-25.1885 353.388 -21.3194 356.883 -16.5905 364.366C-11.531 372.361 -5.51239 384.741 1.81242 402.214C9.7986 421.27 20.0004 435.314 27.441 445.567C33.7737 454.287 37.5932 459.546 35.7744 462.414C34.9311 463.716 33.0462 464.392 29.5078 464.392ZM-27.9994 355.003C-28.0986 355.003 -28.1812 355.003 -28.2805 355.02C-30.7772 355.251 -32.8109 359.026 -34.299 366.246L-34.3156 366.328C-34.3321 366.394 -36.5808 372.955 -37.0934 384.114C-37.5563 394.417 -36.5973 410.835 -29.3552 430.616C-23.5681 446.408 0.208565 458.54 9.07108 460.238C21.3397 462.595 32.947 464.409 34.6666 461.705C36.0059 459.595 31.9714 454.04 26.3828 446.342C19.3225 436.616 8.64119 421.913 0.6054 402.709C-12.6884 371.043 -22.2949 355.003 -27.9994 355.003Z" fill="white" fill-opacity="0.19"/>
<path d="M8.47607 448.815C7.16984 448.815 5.31797 448.287 2.68898 446.688C-1.1305 444.38 -5.71057 440.342 -10.5552 435.017C-15.6478 429.413 -20.7901 419.704 -24.2789 409.055C-27.6519 398.785 -28.8424 389.637 -27.3874 385.153C-26.7756 383.257 -25.7174 382.153 -24.2458 381.84C-19.6327 380.867 -17.9131 386.093 -15.3337 393.988C-12.4567 402.774 -8.52144 414.808 1.38275 426.759C9.98072 437.144 13.6183 445.518 10.6256 448.106C10.1461 448.501 9.46814 448.815 8.47607 448.815ZM-23.2703 383.043C-23.5017 383.043 -23.7498 383.076 -23.9978 383.125C-24.9733 383.323 -25.7008 384.147 -26.1473 385.549C-27.5196 389.768 -26.3292 398.62 -23.0388 408.626C-19.5996 419.11 -14.5731 428.638 -9.57965 434.111C-4.8177 439.353 -0.33684 443.309 3.3669 445.551C6.37619 447.364 8.75716 447.941 9.7327 447.1C11.32 445.732 10.1295 439.402 0.341076 427.6C-9.71193 415.451 -13.6968 403.285 -16.6068 394.401C-19.0539 386.917 -20.4594 383.043 -23.2703 383.043Z" fill="white" fill-opacity="0.19"/>
<path d="M-19.2027 187.376C-19.8641 187.376 -20.5255 187.195 -21.2034 186.849L-21.22 186.832C-23.7828 185.365 -26.726 173.464 -28.2637 166.507C-31.0415 153.864 -33.4555 138.204 -35.0594 122.412C-36.9443 103.802 -38.5812 76.2896 -35.7042 50.8546C-32.7941 25.3372 -25.9819 7.69913 -15.4494 -1.53198C-1.62652 -13.6478 16.1977 -20.3734 36.1219 -20.9503C52.8052 -21.4283 70.1499 -17.4886 83.6917 -10.1367C97.4816 -2.65291 104.922 7.08922 103.616 15.9082C96.1092 66.2013 104.79 86.9219 109.453 98.0487C112.082 104.313 113.652 108.104 110.742 112.571C108.659 115.687 98.639 116.099 84.7665 116.676C68.8106 117.335 48.9361 118.143 34.8652 123.533C7.81471 133.885 -2.43671 157.491 -9.21588 173.117C-12.4732 180.618 -14.8211 186.041 -17.9626 187.162C-18.376 187.31 -18.7894 187.376 -19.2027 187.376ZM-20.5751 185.695C-19.798 186.09 -19.087 186.173 -18.4091 185.926C-15.7966 185.003 -13.4322 179.53 -10.4229 172.606C-7.01678 164.744 -2.7674 154.968 4.14404 145.655C12.3286 134.611 22.2328 126.978 34.4023 122.313C48.6881 116.857 68.6784 116.033 84.7334 115.374C91.4134 115.093 97.1839 114.863 101.648 114.335C106.228 113.791 108.923 112.967 109.668 111.862C112.197 107.989 110.808 104.642 108.262 98.5762C105.815 92.7408 102.475 84.746 100.656 71.7895C98.5067 56.4922 99.0854 37.6343 102.343 15.7269C103.583 7.46836 96.3737 -1.76276 83.0965 -8.96633C56.046 -23.6372 13.8167 -25.4505 -14.5731 -0.542936C-40.7803 22.436 -36.7128 93.0046 -33.7366 122.28C-32.1493 138.023 -29.7518 153.633 -26.974 166.227C-24.0639 179.53 -21.716 185.019 -20.5751 185.695Z" fill="white" fill-opacity="0.19"/>
<path d="M-12.5561 155.133C-13.234 155.133 -13.9285 154.903 -14.6229 154.425C-21.0879 150.023 -25.2712 141.105 -27.0569 127.902C-28.5615 116.808 -28.3135 102.598 -26.3459 86.8066C-22.8902 59.1462 -14.3253 28.8813 -6.81861 17.9029C1.01876 6.41343 9.3191 -0.641777 19.3225 -4.30126C25.5064 -6.57607 32.4179 -7.4827 39.8584 -7.03762C48.0761 -6.5431 57.2362 -4.35071 67.1074 -0.526388C77.243 3.39684 82.7986 7.92998 85.1466 14.161C87.296 19.8975 86.4858 26.6724 85.5434 34.5354C84.5678 42.695 83.46 51.9426 84.9812 63.1683C85.5434 67.2564 86.9819 71.9214 88.3708 76.4216C89.7928 81.0207 91.2643 85.7681 91.7769 89.9056C92.3721 94.686 91.6281 98.1641 89.4786 100.554C87.5606 102.681 84.6009 103.934 80.4342 104.379C75.9699 104.857 70.2489 104.412 62.9406 103.01C18.7603 94.5541 4.68943 124.852 -3.71012 142.952C-6.75247 149.512 -8.9681 154.26 -11.7459 155.034C-12.027 155.1 -12.2915 155.133 -12.5561 155.133ZM36.1216 -5.8178C14.4944 -5.8178 2.55648 6.52882 -5.72733 18.6612C-12.2089 28.156 -21.2037 56.3109 -25.0231 86.9879C-26.9742 102.664 -27.2222 116.758 -25.7341 127.737C-23.998 140.545 -20.0132 149.166 -13.8623 153.353C-13.2175 153.782 -12.6553 153.914 -12.0931 153.765C-9.89404 153.155 -7.69494 148.408 -4.9006 142.408C-0.733896 133.424 4.98705 121.127 15.3046 112.126C20.9594 107.197 27.4906 103.752 34.6996 101.923C43.0826 99.7796 52.6727 99.7301 63.2052 101.741C76.6809 104.329 84.9647 103.653 88.5196 99.6972C92.7524 94.9992 89.892 85.7681 87.1307 76.8337C85.7253 72.2841 84.2702 67.5696 83.6915 63.3661C82.1538 51.9756 83.2616 42.6456 84.2537 34.4035C85.2127 26.4087 85.9733 20.0953 83.923 14.6555C81.7239 8.78715 76.3998 4.50127 66.6444 0.726407C54.7064 -3.90564 44.6534 -5.8178 36.1216 -5.8178Z" fill="white" fill-opacity="0.19"/>
<path d="M-9.76169 122.923C-9.82783 122.923 -9.89397 122.923 -9.9601 122.907C-11.0349 122.808 -11.9608 121.901 -12.7048 120.22C-13.978 117.335 -14.7551 112.11 -14.8709 105.516C-15.0031 98.4279 -14.3748 90.3836 -13.0851 82.2404C-11.2002 70.4048 -6.14062 48.0194 6.69018 30.9418C15.3378 19.4194 25.8372 14.4247 33.1124 12.2653C42.2064 9.56186 51.5649 9.71022 58.7905 12.6609C62.61 14.2269 65.6689 16.5347 67.6034 19.337C69.7033 22.37 70.5135 25.8647 69.9844 29.722C66.4626 55.5032 69.7199 67.9487 71.456 74.6413C72.9441 80.3283 73.5559 82.6855 67.9176 85.4548C63.5856 87.5813 59.1543 86.3615 54.0286 84.9603C47.5636 83.18 40.2388 81.1525 30.5661 84.9768C19.1903 89.477 7.00434 101.164 -6.68626 120.731C-7.69487 122.198 -8.73655 122.923 -9.76169 122.923ZM46.0259 11.6718C41.9584 11.6718 37.709 12.2982 33.4927 13.551C26.3994 15.661 16.181 20.5238 7.7484 31.7495C-4.90053 48.5963 -9.9105 70.7675 -11.7789 82.4712C-14.5898 100.159 -13.763 114.599 -11.4978 119.725C-10.9852 120.896 -10.39 121.572 -9.84436 121.621C-9.28219 121.671 -8.53813 121.094 -7.77755 120.006C6.06187 100.225 18.4462 88.3725 30.07 83.7735C40.1396 79.8008 48.0265 81.9602 54.3758 83.7075C59.237 85.0427 63.4367 86.2131 67.3224 84.301C72.0016 81.9932 71.6544 80.658 70.1663 75.0039C68.3971 68.2289 65.1067 55.6185 68.6617 29.5736C69.6041 22.6997 65.8177 16.9962 58.278 13.9137C54.6569 12.4136 50.4571 11.6718 46.0259 11.6718Z" fill="white" fill-opacity="0.19"/>
<path d="M2.53982 89.2461C1.96111 89.2461 1.43201 89.1142 0.969041 88.8175C-1.18045 87.4493 -1.14738 82.9656 1.06825 74.7401C1.11785 74.5917 1.18399 74.1796 1.26666 73.6521C1.68003 71.2784 2.63903 65.7397 5.06961 59.179C8.11197 50.9864 12.3779 44.0136 17.7516 38.4585C28.3172 27.546 45.1328 23.8865 51.4821 28.535C57.203 32.722 60.1297 42.9586 58.2943 52.3381C57.2361 57.7779 58.4266 61.8659 59.3856 65.1463C60.4934 68.9211 61.3532 71.9048 56.7731 73.4213C53.4166 74.5422 48.82 73.8829 43.9589 73.1741C37.8576 72.2839 30.9296 71.2949 25.5228 73.784C23.2245 74.839 19.868 77.6083 16.3296 80.526C10.9559 85.0097 5.81366 89.2461 2.53982 89.2461ZM43.8762 27.8921C41.6771 27.8921 39.2134 28.2218 36.6341 28.9141C29.888 30.6944 23.5222 34.4034 18.7106 39.3816C10.4929 47.8709 5.06961 59.4757 2.57289 73.8829C2.47368 74.4928 2.40755 74.8719 2.34141 75.0862C-0.122239 84.3008 0.621816 87.0372 1.68003 87.7131C1.92805 87.8779 2.22567 87.9438 2.57289 87.9438C5.31763 87.9438 10.9063 83.3283 15.5029 79.5369C19.1074 76.5533 22.5301 73.7345 24.9937 72.6136C30.7643 69.9597 37.8742 70.9982 44.1738 71.9048C48.8862 72.5806 53.3174 73.2235 56.3763 72.2015C59.584 71.13 59.336 69.6465 58.129 65.5419C57.1865 62.2945 55.8803 57.8603 57.0046 52.1073C58.7408 43.1894 56.0456 33.5132 50.705 29.6065C49.1672 28.4691 46.7532 27.8921 43.8762 27.8921Z" fill="white" fill-opacity="0.19"/>
</g>
</g>
</g>
<defs>
<clipPath id="clip0_27_515">
<rect width="516.036" height="436.577" fill="white" transform="translate(0 0.508545)"/>
</clipPath>
<clipPath id="clip1_27_515">
<rect y="0.857666" width="516" height="436" rx="40" fill="white"/>
</clipPath>
</defs>
</svg>
