<svg width="1162" height="904" viewBox="0 0 1162 904" fill="none" xmlns="http://www.w3.org/2000/svg">
<g opacity="0.15">
<line x1="-310.25" y1="0.688324" x2="1086.95" y2="0.688324" stroke="white" stroke-opacity="0.1"/>
<line x1="-310.25" y1="42.0869" x2="1086.95" y2="42.0869" stroke="url(#paint0_linear_93_4)"/>
<line x1="-310.25" y1="124.884" x2="1086.95" y2="124.884" stroke="url(#paint1_linear_93_4)"/>
<line x1="-310.25" y1="209.16" x2="1086.95" y2="209.16" stroke="url(#paint2_linear_93_4)"/>
<line x1="-310.25" y1="293.435" x2="1086.95" y2="293.435" stroke="url(#paint3_linear_93_4)"/>
<line x1="-310.25" y1="377.711" x2="1086.95" y2="377.711" stroke="url(#paint4_linear_93_4)"/>
<line x1="-310.25" y1="460.508" x2="1086.95" y2="460.508" stroke="url(#paint5_linear_93_4)"/>
<line x1="-310.25" y1="544.784" x2="1086.95" y2="544.784" stroke="url(#paint6_linear_93_4)"/>
<line x1="-310.25" y1="629.06" x2="1086.95" y2="629.06" stroke="url(#paint7_linear_93_4)"/>
<line x1="-310.25" y1="713.335" x2="1086.95" y2="713.335" stroke="url(#paint8_linear_93_4)"/>
<line x1="-310.25" y1="797.611" x2="1086.95" y2="797.611" stroke="url(#paint9_linear_93_4)"/>
<line x1="-310.25" y1="880.408" x2="1086.95" y2="880.408" stroke="url(#paint10_linear_93_4)"/>
<line x1="-310.25" y1="83.4855" x2="1086.95" y2="83.4855" stroke="url(#paint11_linear_93_4)"/>
<line x1="-310.25" y1="166.283" x2="1086.95" y2="166.283" stroke="url(#paint12_linear_93_4)"/>
<line x1="-310.25" y1="250.558" x2="1086.95" y2="250.558" stroke="url(#paint13_linear_93_4)"/>
<line x1="-310.25" y1="334.834" x2="1086.95" y2="334.834" stroke="url(#paint14_linear_93_4)"/>
<line x1="-310.25" y1="419.11" x2="1086.95" y2="419.11" stroke="url(#paint15_linear_93_4)"/>
<line x1="-310.25" y1="501.907" x2="1086.95" y2="501.907" stroke="url(#paint16_linear_93_4)"/>
<line x1="-310.25" y1="586.182" x2="1086.95" y2="586.182" stroke="url(#paint17_linear_93_4)"/>
<line x1="-310.25" y1="670.458" x2="1086.95" y2="670.458" stroke="url(#paint18_linear_93_4)"/>
<line x1="-310.25" y1="754.734" x2="1086.95" y2="754.734" stroke="url(#paint19_linear_93_4)"/>
<line x1="-310.25" y1="839.01" x2="1086.95" y2="839.01" stroke="url(#paint20_linear_93_4)"/>
<line x1="18.5049" y1="903.658" x2="18.5049" y2="0.51947" stroke="#505050"/>
<line x1="61.3818" y1="903.658" x2="61.3819" y2="0.51947" stroke="#505050"/>
<line x1="104.259" y1="903.658" x2="104.259" y2="0.51947" stroke="#505050"/>
<line x1="145.658" y1="903.658" x2="145.658" y2="0.51947" stroke="#505050"/>
<line x1="188.535" y1="903.658" x2="188.535" y2="0.51947" stroke="#505050"/>
<line x1="229.934" y1="903.658" x2="229.934" y2="0.51947" stroke="#505050"/>
<line x1="272.811" y1="903.658" x2="272.811" y2="0.51947" stroke="#505050"/>
<line x1="314.209" y1="903.658" x2="314.21" y2="0.51947" stroke="#505050"/>
<line x1="357.087" y1="903.658" x2="357.087" y2="0.51947" stroke="#505050"/>
<line x1="399.964" y1="903.658" x2="399.964" y2="0.51947" stroke="#505050"/>
<line x1="441.362" y1="903.658" x2="441.362" y2="0.51947" stroke="#505050"/>
<line x1="484.239" y1="903.658" x2="484.239" y2="0.51947" stroke="#505050"/>
<line x1="525.638" y1="903.658" x2="525.638" y2="0.51947" stroke="#505050"/>
<line x1="568.515" y1="903.658" x2="568.515" y2="0.51947" stroke="#454545"/>
<line x1="611.392" y1="903.658" x2="611.392" y2="0.51947" stroke="#3D3D3D"/>
<line x1="652.791" y1="903.658" x2="652.791" y2="0.51947" stroke="#393939"/>
<line x1="695.668" y1="903.658" x2="695.668" y2="0.51947" stroke="#3A3A3A"/>
<line x1="737.066" y1="903.658" x2="737.066" y2="0.51947" stroke="#343434"/>
<line x1="779.943" y1="903.658" x2="779.943" y2="0.51947" stroke="#353535"/>
<line x1="821.342" y1="903.658" x2="821.342" y2="0.51947" stroke="#333333"/>
<line x1="864.219" y1="903.658" x2="864.219" y2="0.51947" stroke="#2E2E2E"/>
<line x1="907.097" y1="903.658" x2="907.097" y2="0.51947" stroke="#2C2C2C"/>
<line x1="948.495" y1="903.658" x2="948.495" y2="0.51947" stroke="#252525"/>
<line x1="991.372" y1="903.658" x2="991.372" y2="0.51947" stroke="#252525"/>
<line x1="1032.77" y1="903.658" x2="1032.77" y2="0.51947" stroke="#252525"/>
<line x1="1075.65" y1="903.658" x2="1075.65" y2="0.51947" stroke="#252525"/>
<line x1="1118.52" y1="903.658" x2="1118.52" y2="0.51947" stroke="#252525"/>
<line x1="1118.52" y1="903.658" x2="1118.52" y2="0.51947" stroke="#242424"/>
<line x1="1161.4" y1="903.658" x2="1161.4" y2="0.51947" stroke="#242424"/>
</g>
<defs>
<linearGradient id="paint0_linear_93_4" x1="-310.25" y1="43.0869" x2="1086.95" y2="43.0869" gradientUnits="userSpaceOnUse">
<stop offset="0.305" stop-color="#515050"/>
<stop offset="1" stop-color="#1E1E1E"/>
</linearGradient>
<linearGradient id="paint1_linear_93_4" x1="-310.25" y1="125.884" x2="1086.95" y2="125.884" gradientUnits="userSpaceOnUse">
<stop offset="0.305" stop-color="#515050"/>
<stop offset="1" stop-color="#1E1E1E"/>
</linearGradient>
<linearGradient id="paint2_linear_93_4" x1="-310.25" y1="210.16" x2="1086.95" y2="210.16" gradientUnits="userSpaceOnUse">
<stop offset="0.305" stop-color="#515050"/>
<stop offset="1" stop-color="#1E1E1E"/>
</linearGradient>
<linearGradient id="paint3_linear_93_4" x1="-310.25" y1="294.435" x2="1086.95" y2="294.435" gradientUnits="userSpaceOnUse">
<stop offset="0.305" stop-color="#515050"/>
<stop offset="1" stop-color="#1E1E1E"/>
</linearGradient>
<linearGradient id="paint4_linear_93_4" x1="-310.25" y1="378.711" x2="1086.95" y2="378.711" gradientUnits="userSpaceOnUse">
<stop offset="0.305" stop-color="#515050"/>
<stop offset="1" stop-color="#1E1E1E"/>
</linearGradient>
<linearGradient id="paint5_linear_93_4" x1="-310.25" y1="461.508" x2="1086.95" y2="461.508" gradientUnits="userSpaceOnUse">
<stop offset="0.305" stop-color="#515050"/>
<stop offset="1" stop-color="#1E1E1E"/>
</linearGradient>
<linearGradient id="paint6_linear_93_4" x1="-310.25" y1="545.784" x2="1086.95" y2="545.784" gradientUnits="userSpaceOnUse">
<stop offset="0.305" stop-color="#515050"/>
<stop offset="1" stop-color="#1E1E1E"/>
</linearGradient>
<linearGradient id="paint7_linear_93_4" x1="-310.25" y1="630.06" x2="1086.95" y2="630.06" gradientUnits="userSpaceOnUse">
<stop offset="0.305" stop-color="#515050"/>
<stop offset="1" stop-color="#1E1E1E"/>
</linearGradient>
<linearGradient id="paint8_linear_93_4" x1="-310.25" y1="714.335" x2="1086.95" y2="714.335" gradientUnits="userSpaceOnUse">
<stop offset="0.305" stop-color="#515050"/>
<stop offset="1" stop-color="#1E1E1E"/>
</linearGradient>
<linearGradient id="paint9_linear_93_4" x1="-310.25" y1="798.611" x2="1086.95" y2="798.611" gradientUnits="userSpaceOnUse">
<stop offset="0.305" stop-color="#515050"/>
<stop offset="1" stop-color="#1E1E1E"/>
</linearGradient>
<linearGradient id="paint10_linear_93_4" x1="-310.25" y1="881.408" x2="1086.95" y2="881.408" gradientUnits="userSpaceOnUse">
<stop offset="0.305" stop-color="#515050"/>
<stop offset="1" stop-color="#1E1E1E"/>
</linearGradient>
<linearGradient id="paint11_linear_93_4" x1="-310.25" y1="84.4855" x2="1086.95" y2="84.4855" gradientUnits="userSpaceOnUse">
<stop offset="0.305" stop-color="#515050"/>
<stop offset="1" stop-color="#1E1E1E"/>
</linearGradient>
<linearGradient id="paint12_linear_93_4" x1="-310.25" y1="167.283" x2="1086.95" y2="167.283" gradientUnits="userSpaceOnUse">
<stop offset="0.305" stop-color="#515050"/>
<stop offset="1" stop-color="#1E1E1E"/>
</linearGradient>
<linearGradient id="paint13_linear_93_4" x1="-310.25" y1="251.558" x2="1086.95" y2="251.558" gradientUnits="userSpaceOnUse">
<stop offset="0.305" stop-color="#515050"/>
<stop offset="1" stop-color="#1E1E1E"/>
</linearGradient>
<linearGradient id="paint14_linear_93_4" x1="-310.25" y1="335.834" x2="1086.95" y2="335.834" gradientUnits="userSpaceOnUse">
<stop offset="0.305" stop-color="#515050"/>
<stop offset="1" stop-color="#1E1E1E"/>
</linearGradient>
<linearGradient id="paint15_linear_93_4" x1="-310.25" y1="420.11" x2="1086.95" y2="420.11" gradientUnits="userSpaceOnUse">
<stop offset="0.305" stop-color="#515050"/>
<stop offset="1" stop-color="#1E1E1E"/>
</linearGradient>
<linearGradient id="paint16_linear_93_4" x1="-310.25" y1="502.907" x2="1086.95" y2="502.907" gradientUnits="userSpaceOnUse">
<stop offset="0.305" stop-color="#515050"/>
<stop offset="1" stop-color="#1E1E1E"/>
</linearGradient>
<linearGradient id="paint17_linear_93_4" x1="-310.25" y1="587.182" x2="1086.95" y2="587.182" gradientUnits="userSpaceOnUse">
<stop offset="0.305" stop-color="#515050"/>
<stop offset="1" stop-color="#1E1E1E"/>
</linearGradient>
<linearGradient id="paint18_linear_93_4" x1="-310.25" y1="671.458" x2="1086.95" y2="671.458" gradientUnits="userSpaceOnUse">
<stop offset="0.305" stop-color="#515050"/>
<stop offset="1" stop-color="#1E1E1E"/>
</linearGradient>
<linearGradient id="paint19_linear_93_4" x1="-310.25" y1="755.734" x2="1086.95" y2="755.734" gradientUnits="userSpaceOnUse">
<stop offset="0.305" stop-color="#515050"/>
<stop offset="1" stop-color="#1E1E1E"/>
</linearGradient>
<linearGradient id="paint20_linear_93_4" x1="-310.25" y1="840.01" x2="1086.95" y2="840.01" gradientUnits="userSpaceOnUse">
<stop offset="0.305" stop-color="#515050"/>
<stop offset="1" stop-color="#1E1E1E"/>
</linearGradient>
</defs>
</svg>
