<svg width="34" height="34" viewBox="0 0 34 34" fill="none" xmlns="http://www.w3.org/2000/svg">
<g clip-path="url(#clip0_17_151)">
<path d="M32.7872 20.0049H30.135L25.3022 28.4273H30.7732L30.766 31.236L32.7581 31.2412L32.7654 28.4272H34V26.435H32.7706L32.7872 20.0049ZM30.7784 26.4351H28.7423L30.7876 22.8706L30.7784 26.4351Z" fill="white"/>
<path d="M24.4337 26.2202C25.0508 25.3384 25.5003 24.3964 25.6196 23.3365C25.6196 21.5117 24.135 20.027 22.3101 20.027C20.7322 20.027 19.3664 21.1495 19.0626 22.6961L18.8706 23.6735L20.8255 24.0575L21.0175 23.0801C21.1382 22.4653 21.6818 22.0191 22.3101 22.0191C23.0181 22.0191 23.5975 22.5806 23.6263 23.2818C23.4926 23.9475 23.1962 24.5139 22.8015 25.0778C20.6223 28.1914 19.6694 29.2112 19.6618 29.2192L19.3883 29.5062L19.3821 31.199L25.9997 31.2192L26.0058 29.227L22.2417 29.2155C22.7695 28.5357 23.4923 27.5651 24.4337 26.2202Z" fill="white"/>
<path d="M27.9623 16.0039C27.4869 10.7277 23.2723 6.51392 17.9962 6.03845V8.06836H16.004V6.03872C10.7281 6.51425 6.51437 10.728 6.03884 16.0039H8.06848V17.9961H6.03857C6.51404 23.2722 10.7279 27.4868 16.004 27.9621V25.9316H17.9962V19.8257C17.6844 19.936 17.3493 19.9966 17.0001 19.9966C16.537 19.9966 16.0982 19.8909 15.7063 19.7025L13.6924 21.7164L12.2838 20.3077L14.2976 18.2939C14.1092 17.902 14.0035 17.4631 14.0035 17C14.0035 15.6968 14.84 14.5859 16.004 14.1743V10.9985H17.9962V14.1743C19.1602 14.5859 19.9967 15.6968 19.9967 17C19.9967 17.3492 19.9361 17.6842 19.8258 17.9961H25.9318V16.0039H27.9623Z" fill="white"/>
<path d="M17 18.0044C17.5547 18.0044 18.0044 17.5547 18.0044 17C18.0044 16.4453 17.5547 15.9956 17 15.9956C16.4453 15.9956 15.9956 16.4453 15.9956 17C15.9956 17.5547 16.4453 18.0044 17 18.0044Z" fill="white"/>
<path d="M29.0208 4.97914C25.8099 1.76827 21.5409 0 17 0C12.4591 0 8.19008 1.76827 4.97921 4.97914C1.76827 8.19008 0 12.4591 0 17C0 21.5409 1.76827 25.8099 4.97921 29.0209C8.19008 32.2317 12.4591 34 17 34H17.9961V29.999H17C9.83231 29.999 4.00098 24.1677 4.00098 17C4.00098 9.83231 9.83231 4.00098 17 4.00098C24.1677 4.00098 29.999 9.83231 29.999 17V17.9961H34V17C34 12.4591 32.2317 8.19008 29.0208 4.97914Z" fill="white"/>
</g>
<defs>
<clipPath id="clip0_17_151">
<rect width="34" height="34" fill="white"/>
</clipPath>
</defs>
</svg>
