<svg width="38" height="38" viewBox="0 0 38 38" fill="none" xmlns="http://www.w3.org/2000/svg">
<g clip-path="url(#clip0_177_54720)">
<path d="M33.7808 0.976196H31.8646C30.8276 0.976196 29.8168 1.17948 28.8606 1.58048L25.1313 3.14417H20.1587C17.8674 3.14417 16.0034 5.00818 16.0034 7.29944V10.3383C15.7633 10.2329 15.5309 10.1084 15.3079 9.96546C14.1287 9.20725 12.7823 8.8228 11.3062 8.8228C7.32135 8.8228 4.07959 11.9398 4.07959 15.7711C4.07959 17.4249 4.68662 19.0102 5.79438 20.2643C4.75491 20.3696 3.76119 20.7927 2.95427 21.4924C1.83242 22.4652 1.18896 23.8755 1.18896 25.3615V29.0166C1.18896 29.316 1.43156 29.5586 1.73096 29.5586C2.03035 29.5586 2.27295 29.316 2.27295 29.0166V25.3615C2.27295 24.1899 2.78018 23.0782 3.66442 22.3113C4.48782 21.5973 5.55757 21.2484 6.63201 21.3353C6.80437 21.6299 6.94796 21.9467 7.06149 22.2836C8.26073 25.8367 9.03997 29.8533 9.48253 32.5969C9.71479 34.0389 10.9431 35.0856 12.4031 35.0856C13.0066 35.0856 13.5884 34.9039 14.0858 34.5601C14.582 34.2173 14.9574 33.7367 15.1715 33.1702L16.2454 30.3206C16.5176 29.5982 17.2189 29.1127 17.9907 29.1127C18.3718 29.1127 18.7386 29.2273 19.0518 29.4443C19.3655 29.6613 19.602 29.9642 19.736 30.3207L20.8099 33.1701C21.2417 34.3159 22.3542 35.0856 23.5783 35.0856C24.2812 35.0856 24.9625 34.8344 25.4961 34.3791C26.0315 33.9238 26.3877 33.2907 26.4988 32.5971C26.9414 29.8533 27.7206 25.8368 28.9199 22.2835C29.0335 21.9466 29.1771 21.6299 29.3494 21.3353C30.424 21.2481 31.4936 21.5973 32.317 22.3114C33.2013 23.0783 33.7085 24.19 33.7085 25.3616V35.4715C33.7085 36.2549 33.0712 36.8922 32.2878 36.8922H3.69369C2.91026 36.8922 2.27295 36.2549 2.27295 35.4715V31.546C2.27295 31.2466 2.03035 31.004 1.73096 31.004C1.43156 31.004 1.18896 31.2466 1.18896 31.546V35.4715C1.18896 36.8525 2.31262 37.9762 3.69369 37.9762H32.2878C33.6688 37.9762 34.7925 36.8525 34.7925 35.4715V25.3615C34.7925 23.8755 34.1491 22.4652 33.0272 21.4924C32.2203 20.7927 31.2266 20.3695 30.1871 20.2643C31.2949 19.01 31.9019 17.4249 31.9019 15.7711C31.9019 13.3432 30.618 11.1318 28.4677 9.85555C28.2102 9.70278 27.8778 9.78762 27.725 10.045C27.5723 10.3024 27.6571 10.6349 27.9145 10.7876C29.7325 11.8667 30.8179 13.7296 30.8179 15.7711C30.8179 17.2333 30.2507 18.6337 29.2207 19.7145C28.6264 20.3386 28.1797 21.0863 27.8928 21.9369C26.6699 25.5606 25.8779 29.6401 25.4287 32.425C25.3582 32.8643 25.1328 33.2651 24.7932 33.5538C24.4549 33.8426 24.0235 34.0016 23.5783 34.0016C22.8027 34.0016 22.0979 33.5139 21.8243 32.7878L20.7506 29.9389C20.5387 29.3753 20.1646 28.896 19.6689 28.553C19.1738 28.2101 18.5936 28.0288 17.9907 28.0288C16.7704 28.0288 15.6614 28.7962 15.231 29.9385L14.1574 32.7875C14.0216 33.1467 13.7839 33.4513 13.4696 33.6684C13.1542 33.8864 12.7854 34.0015 12.4031 34.0015C11.4781 34.0015 10.6999 33.3383 10.5528 32.4244C10.1037 29.6401 9.31162 25.5606 8.08874 21.9371C7.80185 21.0864 7.3551 20.3386 6.76064 19.7143C5.73079 18.6337 5.16357 17.2333 5.16357 15.7711C5.16357 12.5375 7.91913 9.90678 11.3062 9.90678C11.9386 9.90678 12.5421 9.98844 13.1128 10.1506V15.5689C13.1128 17.0632 14.3284 18.2788 15.8228 18.2788H20.1587C21.653 18.2788 22.8687 17.0632 22.8687 15.5689V10.1506C23.4393 9.98844 24.0428 9.90678 24.6753 9.90678C25.0278 9.90678 25.3814 9.93547 25.7263 9.9922C26.0225 10.0411 26.3005 9.84044 26.349 9.54517C26.3975 9.24974 26.1974 8.97101 25.902 8.92245C25.4992 8.85633 25.0865 8.8228 24.6752 8.8228C23.1991 8.8228 21.8527 9.20718 20.6739 9.9651C20.4507 10.1083 20.2182 10.2329 19.978 10.3383V7.66077C19.978 7.36188 20.2211 7.11877 20.5199 7.11877H25.1312L28.8606 8.68253C29.8168 9.08346 30.8276 9.28674 31.8645 9.28674H33.7807C35.275 9.28674 36.4907 8.07109 36.4907 6.57678V3.68616C36.4907 2.19185 35.2751 0.976196 33.7808 0.976196ZM21.2597 10.8772C21.4304 10.7675 21.6054 10.6669 21.7847 10.5757V15.5689C21.7847 16.4654 21.0552 17.1948 20.1587 17.1948H15.8228C14.9262 17.1948 14.1968 16.4654 14.1968 15.5689V10.5757C14.3761 10.6671 14.5513 10.7677 14.7222 10.8776C15.156 11.1558 15.6195 11.3766 16.1036 11.5363C16.3658 12.3275 17.1127 12.9 17.9907 12.9C18.8687 12.9 19.6157 12.3275 19.8778 11.5363C20.362 11.3766 20.8255 11.1557 21.2597 10.8772ZM18.894 7.66077V10.9127C18.894 11.4108 18.4888 11.816 17.9907 11.816C17.4926 11.816 17.0874 11.4108 17.0874 10.9127V7.29944C17.0874 5.60589 18.4651 4.22815 20.1587 4.22815H24.6984V6.03479H20.52C19.6235 6.03479 18.894 6.76424 18.894 7.66077ZM35.4067 6.57678C35.4067 7.47331 34.6773 8.20276 33.7808 8.20276H31.8646C30.9723 8.20276 30.1026 8.0278 29.2797 7.68281L25.7824 6.21639V4.04662L29.2798 2.5802C30.1027 2.23514 30.9723 2.06018 31.8646 2.06018H33.7808C34.6773 2.06018 35.4067 2.78963 35.4067 3.68616V6.57678Z" fill="white"/>
<path d="M14.3495 19.5258L12.823 19.2566C12.5277 19.2048 12.2471 19.4015 12.1951 19.6962C12.1431 19.991 12.3399 20.2721 12.6347 20.324L14.1612 20.5932C14.1931 20.5988 14.2248 20.6015 14.2561 20.6015C14.5141 20.6015 14.7428 20.4164 14.7892 20.1536C14.8411 19.8588 14.6443 19.5776 14.3495 19.5258Z" fill="white"/>
<path d="M23.7863 19.6962C23.7343 19.4014 23.4529 19.2047 23.1584 19.2566L21.6319 19.5258C21.3371 19.5777 21.1403 19.8588 21.1923 20.1536C21.2387 20.4166 21.4673 20.6015 21.7254 20.6015C21.7567 20.6015 21.7883 20.5989 21.8202 20.5932L23.3468 20.324C23.6415 20.2721 23.8383 19.991 23.7863 19.6962Z" fill="white"/>
<path d="M20.0799 21.6122C19.7805 21.6122 19.5379 21.8548 19.5379 22.1542C19.5379 22.4314 19.3124 22.6569 19.0352 22.6569C18.7581 22.6569 18.5326 22.4314 18.5326 22.1542C18.5326 21.8548 18.29 21.6122 17.9906 21.6122C17.6912 21.6122 17.4486 21.8548 17.4486 22.1542C17.4486 22.4314 17.2232 22.6569 16.946 22.6569C16.6688 22.6569 16.4434 22.4314 16.4434 22.1542C16.4434 21.8548 16.2008 21.6122 15.9014 21.6122C15.602 21.6122 15.3594 21.8548 15.3594 22.1542C15.3594 23.029 16.0711 23.7408 16.946 23.7408C17.3457 23.7408 17.7113 23.5923 17.9906 23.3474C18.2699 23.5923 18.6355 23.7408 19.0352 23.7408C19.9101 23.7408 20.6219 23.029 20.6219 22.1542C20.6219 21.8548 20.3793 21.6122 20.0799 21.6122Z" fill="white"/>
<path d="M13.4067 20.6102C13.1073 20.6102 12.8647 20.8528 12.8647 21.1522V22.0194C12.8647 22.3188 13.1073 22.5614 13.4067 22.5614C13.7061 22.5614 13.9487 22.3188 13.9487 22.0194V21.1522C13.9487 20.8529 13.7061 20.6102 13.4067 20.6102Z" fill="white"/>
<path d="M22.5746 20.6102C22.2752 20.6102 22.0326 20.8528 22.0326 21.1522V22.0194C22.0326 22.3188 22.2752 22.5614 22.5746 22.5614C22.874 22.5614 23.1166 22.3188 23.1166 22.0194V21.1522C23.1166 20.8529 22.8739 20.6102 22.5746 20.6102Z" fill="white"/>
</g>
<defs>
<clipPath id="clip0_177_54720">
<rect width="37" height="37" fill="white" transform="translate(0.339844 0.976196)"/>
</clipPath>
</defs>
</svg>
