<svg width="38" height="38" viewBox="0 0 38 38" fill="none" xmlns="http://www.w3.org/2000/svg">
<g clip-path="url(#clip0_177_54737)">
<path d="M9.29177 12.5853C9.49406 12.5853 9.68818 12.4714 9.78119 12.2767C9.91019 12.0066 9.79586 11.683 9.52571 11.554C8.85497 11.2381 8.51262 10.5438 8.73731 9.77386C8.80019 9.55835 8.92767 9.37196 9.12916 9.27316C9.33065 9.1743 9.56243 9.17307 9.76493 9.26984C10.0348 9.39884 10.3586 9.28451 10.4876 9.01436C10.6166 8.74429 10.5022 8.42066 10.2322 8.29166C9.7288 8.05114 9.15265 8.05417 8.65189 8.29982C8.15091 8.54547 7.8189 9.00461 7.6779 9.54418C7.36439 10.7442 7.93446 11.9994 9.05856 12.5322C9.13386 12.5682 9.21343 12.5853 9.29177 12.5853Z" fill="white"/>
<path d="M13.1739 11.6279H13.5772C13.827 11.6279 14.0744 11.6924 14.2925 11.8145C14.3762 11.8613 14.467 11.8836 14.5565 11.8836C14.7465 11.8836 14.9308 11.7835 15.0301 11.606C15.1762 11.3448 15.0829 11.0145 14.8216 10.8684C14.4421 10.6561 14.0118 10.5439 13.5771 10.5439H13.1739C12.8744 10.5439 12.6318 10.7866 12.6318 11.086C12.6318 11.3853 12.8746 11.6279 13.1739 11.6279Z" fill="white"/>
<path d="M34.599 10.5992C33.9341 10.5992 33.305 10.8335 32.8043 11.2625C32.5319 10.2169 31.576 9.4791 30.4962 9.47983C30.3442 9.47983 30.1899 9.49486 30.0372 9.52449C29.5156 9.62589 29.0371 9.90304 28.6898 10.3048C28.3424 10.7067 28.1367 11.2198 28.1103 11.7499C28.1088 11.7838 28.0928 11.8095 28.063 11.8262C28.033 11.8429 28.0025 11.8432 27.9734 11.8273C26.9245 11.2503 25.7866 10.9 24.595 10.7874C24.2972 10.76 24.0325 10.9781 24.0043 11.276C23.9761 11.5741 24.1949 11.8385 24.4929 11.8667C25.526 11.9643 26.512 12.2656 27.4223 12.7615C27.7851 12.9724 28.2275 12.9777 28.5935 12.7715C28.9489 12.5721 29.1731 12.2101 29.1932 11.8034C29.2075 11.514 29.32 11.2335 29.51 11.0137C29.6991 10.7949 29.9598 10.6439 30.2439 10.5887C30.9241 10.4564 31.5731 10.8764 31.7519 11.5228C31.8452 11.8515 31.8924 12.1889 31.8924 12.5254C31.8924 12.6813 31.8823 12.8372 31.8621 12.99C31.6649 14.5166 30.5214 15.7623 29.0168 16.09L27.3816 16.4483C27.1955 16.2952 27.0038 16.1477 26.8035 16.0098L24.8569 14.6698C24.6103 14.5001 24.2727 14.5624 24.103 14.8089C23.9332 15.0555 23.9955 15.393 24.2421 15.5628L26.1887 16.9028C27.3652 17.7128 28.2693 18.8295 28.8165 20.1432L25.0361 23.8917C24.0114 22.2563 22.3581 21.0537 20.4171 20.6249C20.6793 20.2335 20.8992 19.8148 21.0726 19.372C21.9337 17.1973 21.3456 14.6895 19.6686 13.0733C20.3928 12.6448 21.2239 12.2302 22.1432 12.0147C22.4347 11.9464 22.6156 11.6547 22.5473 11.3633C22.4791 11.0717 22.1871 10.8911 21.8959 10.9592C20.6837 11.2433 19.64 11.8105 18.7662 12.3527C18.3297 12.1421 17.8426 12.0658 17.3682 12.1285C17.2667 11.7123 17.2911 11.2819 17.4423 10.8796L17.6216 10.4026C18.7428 7.41968 17.6979 4.06682 15.0804 2.24922C12.9881 0.795924 10.2577 0.569861 7.9547 1.65913C6.16238 2.48655 4.7036 3.92712 3.85941 5.70787C3.13605 7.23264 2.88628 8.9464 3.13561 10.6005C2.3621 10.567 1.70906 11.1942 1.71094 11.968V16.9156C1.71094 17.215 1.95355 17.4576 2.25297 17.4576C2.55239 17.4576 2.795 17.215 2.795 16.9156V11.968C2.795 11.811 2.92307 11.6832 3.08047 11.6832C3.52833 11.6832 3.94982 11.8577 4.26651 12.1739C4.58341 12.4913 4.75787 12.9128 4.75787 13.3606V21.0927C4.73027 21.644 4.91658 22.2048 5.32101 22.6449L9.81039 27.5301C9.91728 27.6464 10.0632 27.7053 10.2096 27.7053C10.3406 27.7053 10.4721 27.6581 10.5762 27.5624C10.7967 27.3598 10.8111 27.017 10.6085 26.7965L6.11917 21.9113C5.73541 21.4934 5.7503 20.8494 6.15465 20.4504C6.56334 20.047 7.22736 20.0478 7.6349 20.452L12.1171 24.8965C11.741 25.7763 11.5324 26.7441 11.5324 27.7599C11.5324 28.7059 11.7108 29.6263 12.0627 30.4956C12.175 30.773 12.4909 30.907 12.7686 30.7947C13.046 30.6824 13.1799 30.3664 13.0676 30.0889C12.7683 29.3494 12.6165 28.5658 12.6165 27.7599C12.6165 24.3284 15.4083 21.5367 18.8397 21.5367C22.2712 21.5367 25.063 24.3284 25.063 27.7599C25.063 31.191 22.2712 33.9824 18.8397 33.9824C17.12 33.9824 15.52 33.2966 14.3346 32.0513C14.1282 31.8345 13.7851 31.8261 13.5683 32.0324C13.3514 32.2387 13.343 32.5819 13.5493 32.7987C14.1 33.3772 14.7271 33.8525 15.4088 34.2161V37.4341C15.4088 37.7334 15.6514 37.9761 15.9508 37.9761C16.2502 37.9761 16.4928 37.7334 16.4928 37.4341V34.6847C17.2374 34.9358 18.0271 35.0665 18.8397 35.0665C19.6603 35.0665 20.4497 34.9305 21.1867 34.6799V37.4341C21.1867 37.7334 21.4293 37.9761 21.7287 37.9761C22.0281 37.9761 22.2707 37.7334 22.2707 37.4341V34.2093C24.5752 32.9787 26.1471 30.5496 26.1471 27.7599C26.1471 26.7441 25.9385 25.7762 25.5624 24.8964L30.0445 20.452C30.4522 20.0478 31.1162 20.047 31.5248 20.4503C31.7224 20.6454 31.8266 20.8978 31.8376 21.154V21.1985C31.8376 21.2024 31.8381 21.2061 31.8382 21.2099C31.8356 21.4608 31.7441 21.7114 31.5603 21.9114L27.071 26.7966C26.8684 27.017 26.8828 27.3599 27.1033 27.5625C27.2074 27.6582 27.3389 27.7054 27.4699 27.7054C27.6162 27.7054 27.7623 27.6464 27.8691 27.5302L32.3585 22.645C32.7629 22.205 32.9492 21.6441 32.9216 21.0928V13.3607C32.9203 12.9183 33.1002 12.4874 33.4123 12.1746C33.7297 11.8577 34.1512 11.6833 34.599 11.6833C34.7564 11.6833 34.8845 11.8111 34.8845 11.968V22.6157C34.8845 23.0503 34.734 23.4761 34.4606 23.8146L32.7116 25.982C32.5236 26.215 32.5601 26.5562 32.7931 26.7443C32.8934 26.8252 33.0136 26.8645 33.1331 26.8645C33.2913 26.8645 33.4482 26.7955 33.5553 26.6628L35.3041 24.4956C35.7326 23.965 35.9686 23.2973 35.9686 22.6157V11.968C35.9686 11.2132 35.3543 10.5992 34.599 10.5992ZM20.0634 18.9764C19.8515 19.5172 19.5578 20.0155 19.1892 20.4611C19.0734 20.4557 18.957 20.4526 18.8397 20.4526C16.2302 20.4526 13.9362 21.8279 12.6433 23.8914L8.39822 19.6823C7.70724 18.9971 6.65361 18.8835 5.84186 19.3409V13.3607C5.84186 12.6236 5.55488 11.9302 5.03308 11.4074C4.81229 11.187 4.56072 11.0091 4.28833 10.8765C3.9509 9.30233 4.14365 7.63779 4.83882 6.17258C5.57591 4.61731 6.85163 3.35987 8.41831 2.63904C10.3713 1.71528 12.6873 1.90701 14.462 3.1393C16.6712 4.67346 17.5532 7.50322 16.6069 10.0209L16.4276 10.4979C16.1839 11.145 16.1566 11.8426 16.3458 12.5077C15.4722 13.0671 15.0463 14.1531 15.2908 15.1604C13.7729 14.7439 12.182 14.6256 10.6096 14.8219L8.87955 15.038C8.58258 15.075 8.37184 15.3459 8.40885 15.643C8.44592 15.9401 8.7173 16.1502 9.0139 16.1137L10.7438 15.8977C12.6993 15.6535 14.687 15.9416 16.4925 16.7307L16.9916 16.9489C17.0623 16.9798 17.1359 16.9944 17.2084 16.9944C17.4173 16.9944 17.6164 16.8729 17.7053 16.6693C17.8252 16.395 17.7 16.0755 17.4258 15.9556L16.9267 15.7374C16.7777 15.6723 16.6273 15.6113 16.4761 15.5524L16.3338 14.8485C16.2352 14.3539 16.4133 13.8443 16.7985 13.5188C17.3626 13.0422 18.1999 13.0909 18.7047 13.6298C20.1851 14.9696 20.8235 17.0911 20.0634 18.9764ZM31.8376 19.3409C31.1647 18.9617 30.3261 18.9753 29.6651 19.3812C29.3168 18.6387 28.8651 17.957 28.3242 17.3507L29.2478 17.149C30.2794 16.9244 31.18 16.3666 31.8376 15.5985V19.3409Z" fill="white"/>
<path d="M31.8846 27.8693C31.6516 27.6812 31.3103 27.7178 31.1224 27.9507L28.3927 31.3329C27.514 32.4214 27.136 33.8385 27.3555 35.2211L27.7212 37.5193C27.7637 37.786 27.9941 37.9762 28.2559 37.9762C28.2842 37.9762 28.3128 37.9739 28.3418 37.9694C28.6374 37.9223 28.8389 37.6445 28.7919 37.3489L28.4262 35.0509C28.2547 33.971 28.55 32.864 29.2362 32.0138L31.966 28.6316C32.154 28.3986 32.1175 28.0574 31.8846 27.8693Z" fill="white"/>
<path d="M3.21879 23.8144C2.94554 23.476 2.795 23.0503 2.795 22.6156V19.4451C2.795 19.1458 2.55239 18.9031 2.25297 18.9031C1.95355 18.9031 1.71094 19.1458 1.71094 19.4451V22.6156C1.71094 23.2973 1.94697 23.9648 2.37532 24.4954L8.44324 32.0138C9.12952 32.864 9.42482 33.9709 9.25325 35.0507L8.88756 37.3489C8.84059 37.6445 9.04208 37.9223 9.33774 37.9693C9.36657 37.9739 9.39526 37.9761 9.42359 37.9761C9.68543 37.9761 9.91583 37.786 9.95825 37.5192L10.3239 35.2209C10.5435 33.8385 10.1655 32.4213 9.28679 31.3329L3.21879 23.8144Z" fill="white"/>
<path d="M20.0769 23.576H17.6028C17.3034 23.576 17.0608 23.8187 17.0608 24.1181V25.9806H15.1983C14.8989 25.9806 14.6562 26.2233 14.6562 26.5226V28.9967C14.6562 29.2961 14.8989 29.5387 15.1983 29.5387H17.0608V31.4012C17.0608 31.7005 17.3034 31.9432 17.6028 31.9432H20.0769C20.3763 31.9432 20.6189 31.7005 20.6189 31.4012V29.5387H22.4814C22.7809 29.5387 23.0235 29.2961 23.0235 28.9967V26.5226C23.0235 26.2233 22.7809 25.9806 22.4814 25.9806H20.6189V24.1181C20.6189 23.8187 20.3763 23.576 20.0769 23.576ZM21.9394 27.0646V28.4546H20.0769C19.7775 28.4546 19.5349 28.6973 19.5349 28.9966V30.8591H18.1448V28.9966C18.1448 28.6973 17.9022 28.4546 17.6028 28.4546H15.7403V27.0646H17.6028C17.9022 27.0646 18.1448 26.8219 18.1448 26.5225V24.66H19.5349V26.5225C19.5349 26.8219 19.7775 27.0646 20.0769 27.0646H21.9394Z" fill="white"/>
</g>
<defs>
<clipPath id="clip0_177_54737">
<rect width="37" height="37" fill="white" transform="translate(0.339844 0.976196)"/>
</clipPath>
</defs>
</svg>
