<svg width="33" height="33" viewBox="0 0 33 33" fill="none" xmlns="http://www.w3.org/2000/svg">
<path d="M16.5021 18C12.602 17.8729 11.6667 14.5337 11.4665 13.4556C11.091 13.3686 10.7565 13.1561 10.5181 12.8532C10.2461 12.4783 10.1198 12.0171 10.1631 11.5559C10.1322 11.3074 10.1538 11.0552 10.2265 10.8156C10.2992 10.5759 10.4214 10.3542 10.5852 10.1648C10.6776 10.07 10.7839 9.98983 10.9004 9.92695C10.1755 8.75666 9.81851 7.39577 9.87554 6.02036C10.327 2.79441 12.9268 2.48046 13.741 2.4623C14.1158 2.02642 14.5843 1.68094 15.1114 1.45171C16.0989 1.0534 17.1903 0.992594 18.2159 1.27873C20.2319 1.805 21.5763 2.8143 22.2141 4.27895C23.1222 6.36068 22.3257 8.75679 21.8682 9.83268C22.0427 9.88938 22.2035 9.98171 22.3404 10.1038C22.5267 10.293 22.6671 10.5224 22.7508 10.7744C22.8345 11.0264 22.8592 11.2942 22.823 11.5572C22.8667 12.0184 22.7406 12.4797 22.4684 12.8545C22.2298 13.1573 21.8952 13.3698 21.5196 13.4569C21.3194 14.5337 20.3862 17.8729 16.5021 18ZM11.623 10.6184C11.4696 10.6113 11.3196 10.6647 11.2053 10.7672C11.1261 10.878 11.0697 11.0035 11.0394 11.1363C11.009 11.2691 11.0053 11.4065 11.0284 11.5408C11.0302 11.5696 11.0292 11.5986 11.0254 11.6273C11.0019 11.8755 11.066 12.1241 11.2066 12.33C11.2943 12.4279 11.4006 12.5074 11.5194 12.5637C11.6383 12.62 11.7671 12.6519 11.8985 12.6578C11.9973 12.6694 12.0891 12.7149 12.1584 12.7864C12.2276 12.858 12.2701 12.9512 12.2786 13.0504C12.2928 13.2113 12.6764 17.0102 16.503 17.1356C20.3084 17.0102 20.6937 13.2113 20.708 13.0495C20.7166 12.9505 20.7592 12.8575 20.8284 12.7861C20.8976 12.7147 20.9893 12.6694 21.0881 12.6578C21.2194 12.652 21.3483 12.62 21.4671 12.5637C21.5859 12.5074 21.6923 12.428 21.78 12.33C21.9212 12.1231 21.9853 11.8732 21.9612 11.6238C21.9576 11.596 21.9565 11.5679 21.9581 11.5399C21.9815 11.4013 21.9763 11.2593 21.9427 11.1228C21.9092 10.9862 21.8481 10.858 21.7631 10.746C21.628 10.6465 21.46 10.6026 21.2935 10.6232C21.2135 10.6374 21.131 10.6287 21.0557 10.5982C20.9804 10.5677 20.9152 10.5166 20.8675 10.4508C20.8199 10.3849 20.7918 10.307 20.7865 10.2259C20.7811 10.1448 20.7987 10.0638 20.8373 9.99225C20.8533 9.96198 22.4373 6.95571 21.4193 4.61928C20.8922 3.41192 19.7415 2.56911 17.9983 2.11419C17.1605 1.8771 16.268 1.9227 15.4587 2.24392C14.9983 2.44229 14.597 2.7563 14.2937 3.15549C14.25 3.21488 14.1918 3.26199 14.1246 3.29229C14.0574 3.32259 13.9835 3.33505 13.9101 3.32846C13.7981 3.31938 11.1503 3.14814 10.7352 6.10814C10.7352 6.10814 10.6154 8.46274 11.9793 9.88976C12.0388 9.9519 12.0783 10.0303 12.093 10.1151C12.1076 10.1998 12.0966 10.287 12.0615 10.3654C12.0291 10.4459 11.972 10.514 11.8984 10.56C11.8248 10.6059 11.7385 10.6273 11.652 10.621L11.623 10.6184Z" fill="white"/>
<path d="M21.2183 10.6288C21.1067 10.6289 20.9994 10.5858 20.9188 10.5086C20.8382 10.4314 20.7906 10.326 20.7859 10.2145C20.7807 10.1025 20.6467 7.4902 18.6964 7.23895C17.8044 7.35224 16.8986 7.28161 16.0349 7.03142C15.1712 6.78124 14.3679 6.35679 13.6746 5.78425C13.1232 6.19895 11.8527 7.4595 12.097 10.1479C12.1003 10.258 12.0614 10.3651 11.9884 10.4475C11.9153 10.5299 11.8136 10.5813 11.704 10.5913C11.5944 10.6012 11.485 10.569 11.3983 10.5012C11.3116 10.4334 11.2541 10.335 11.2374 10.2262C10.8789 6.28198 13.4116 4.9129 13.5193 4.85668C13.5995 4.81485 13.6907 4.7992 13.7802 4.81192C13.8697 4.82464 13.953 4.8651 14.0183 4.9276C14.6347 5.48587 15.3644 5.90444 16.1574 6.15469C16.9505 6.40493 17.7882 6.48095 18.6134 6.37755C18.653 6.37114 18.6932 6.36969 18.7331 6.37322C20.9316 6.60198 21.6032 8.96393 21.6508 10.1786C21.6552 10.2931 21.6141 10.4046 21.5364 10.4887C21.4588 10.5729 21.3509 10.6228 21.2365 10.6275L21.2183 10.6288Z" fill="white"/>
<path d="M28.6597 31.3723H4.36651C4.25183 31.3723 4.14184 31.3267 4.06074 31.2456C3.97964 31.1645 3.93408 31.0546 3.93408 30.9399V26.1191C3.93717 24.5955 4.54437 23.1352 5.62252 22.0586C6.70068 20.982 8.16178 20.3769 9.68543 20.376H10.5157C10.6304 20.376 10.7404 20.4215 10.8215 20.5026C10.9026 20.5837 10.9481 20.6937 10.9481 20.8084C10.9481 20.9231 10.9026 21.0331 10.8215 21.1142C10.7404 21.1953 10.6304 21.2408 10.5157 21.2408H9.68543C8.39109 21.2415 7.14983 21.7554 6.23382 22.6699C5.31781 23.5844 4.80181 24.8248 4.79895 26.1191V30.5074H28.2273V26.1191C28.2258 24.8258 27.7113 23.5858 26.7968 22.6713C25.8823 21.7568 24.6423 21.2423 23.349 21.2408H22.4591C22.3444 21.2408 22.2344 21.1953 22.1533 21.1142C22.0722 21.0331 22.0266 20.9231 22.0266 20.8084C22.0266 20.6937 22.0722 20.5837 22.1533 20.5026C22.2344 20.4215 22.3444 20.376 22.4591 20.376H23.349C24.8715 20.3782 26.331 20.9839 27.4076 22.0605C28.4842 23.1371 29.09 24.5966 29.0921 26.1191V30.9399C29.0921 31.0546 29.0466 31.1645 28.9655 31.2456C28.8844 31.3267 28.7744 31.3723 28.6597 31.3723Z" fill="white"/>
<path d="M17.9584 31.3722C17.8961 31.3723 17.8346 31.3588 17.7781 31.3329C17.7215 31.3069 17.6712 31.2691 17.6306 31.2219C17.59 31.1747 17.56 31.1194 17.5428 31.0596C17.5256 30.9997 17.5214 30.9369 17.5307 30.8754L19.2808 19.2935C19.29 19.2323 19.3124 19.1737 19.3462 19.1218C19.3801 19.0699 19.4247 19.0259 19.4771 18.9928C19.5295 18.9597 19.5884 18.9382 19.6498 18.9298C19.7112 18.9214 19.7736 18.9263 19.833 18.9441L22.8531 19.8544C22.9132 19.8725 22.9687 19.9036 23.0156 19.9453C23.0626 19.9871 23.0999 20.0385 23.1249 20.0962C23.1499 20.1538 23.1621 20.2162 23.1605 20.279C23.159 20.3418 23.1438 20.4035 23.116 20.4598L21.9156 22.8685L22.6118 23.6499C22.6735 23.7196 22.711 23.8074 22.7188 23.9002C22.7266 23.993 22.7042 24.0858 22.655 24.1649L18.3259 31.1673C18.2872 31.2299 18.2331 31.2816 18.1688 31.3175C18.1045 31.3534 18.032 31.3722 17.9584 31.3722ZM20.0617 19.9162L18.7017 28.9165L21.7517 23.9867L21.0758 23.2278C21.0183 23.1633 20.9814 23.0831 20.9699 22.9975C20.9584 22.9118 20.9729 22.8247 21.0114 22.7474L22.1132 20.5359L20.0617 19.9162Z" fill="white"/>
<path d="M15.0185 31.3723C14.9447 31.3723 14.8722 31.3535 14.8078 31.3176C14.7434 31.2818 14.6892 31.23 14.6505 31.1673L10.3201 24.1662C10.2709 24.0872 10.2485 23.9943 10.2563 23.9015C10.2641 23.8088 10.3016 23.721 10.3633 23.6512L11.0595 22.8698L9.85911 20.4612C9.83131 20.4048 9.81611 20.3431 9.81458 20.2803C9.81305 20.2175 9.82522 20.1551 9.85024 20.0975C9.87527 20.0399 9.91254 19.9884 9.95948 19.9467C10.0064 19.9049 10.0619 19.8739 10.122 19.8557L13.1421 18.9455C13.2015 18.9277 13.2639 18.9228 13.3252 18.9313C13.3866 18.9397 13.4454 18.9612 13.4977 18.9943C13.55 19.0275 13.5946 19.0714 13.6285 19.1233C13.6623 19.1751 13.6846 19.2337 13.6939 19.2949L15.4448 30.8767C15.4539 30.9381 15.4497 31.0006 15.4324 31.0602C15.4151 31.1197 15.3853 31.1749 15.3448 31.2219C15.3044 31.2689 15.2543 31.3066 15.198 31.3326C15.1417 31.3585 15.0805 31.3721 15.0185 31.3723ZM11.2252 23.9855L14.2751 28.9152L12.9151 19.9163L10.8637 20.5347L11.9651 22.7461C12.0036 22.8234 12.0181 22.9105 12.0067 22.9962C11.9953 23.0818 11.9585 23.162 11.9011 23.2266L11.2252 23.9855Z" fill="white"/>
<path d="M16.5205 23.3094C15.5855 23.3088 14.6513 23.2522 13.7231 23.1399C13.6655 23.1346 13.6096 23.1179 13.5586 23.0906C13.5076 23.0634 13.4626 23.0262 13.4263 22.9812C13.3899 22.9363 13.363 22.8845 13.347 22.8289C13.331 22.7734 13.3263 22.7152 13.3332 22.6578C13.34 22.6004 13.3584 22.545 13.387 22.4948C13.4157 22.4446 13.4541 22.4007 13.5001 22.3656C13.546 22.3305 13.5986 22.305 13.6545 22.2906C13.7105 22.2761 13.7688 22.2731 13.826 22.2815C15.5933 22.4989 17.3806 22.4989 19.1479 22.2815C19.2606 22.2694 19.3736 22.3019 19.4626 22.3722C19.5515 22.4425 19.6093 22.5449 19.6235 22.6574C19.6376 22.7699 19.6071 22.8834 19.5383 22.9736C19.4696 23.0638 19.3682 23.1233 19.256 23.1395C18.3486 23.2534 17.435 23.3101 16.5205 23.3094Z" fill="white"/>
<path d="M19.7092 19.7903C19.6419 19.79 19.5755 19.7741 19.5155 19.7437C19.4554 19.7133 19.4033 19.6693 19.3632 19.6152C18.7206 18.7464 18.6043 17.0245 18.5935 16.8312C18.5869 16.7167 18.626 16.6043 18.7022 16.5187C18.7784 16.4331 18.8855 16.3812 19 16.3745C19.1141 16.3691 19.2258 16.4087 19.3112 16.4847C19.3965 16.5606 19.4487 16.667 19.4566 16.781C19.483 17.2359 19.643 18.5397 20.0581 19.101C20.1056 19.1652 20.1343 19.2414 20.1411 19.321C20.1479 19.4005 20.1326 19.4804 20.0968 19.5518C20.0609 19.6232 20.006 19.6833 19.9382 19.7254C19.8703 19.7675 19.7921 19.7899 19.7122 19.7903H19.7092Z" fill="white"/>
<path d="M13.2674 19.7904C13.1875 19.7901 13.1093 19.7676 13.0415 19.7255C12.9736 19.6834 12.9187 19.6234 12.8829 19.552C12.847 19.4806 12.8317 19.4007 12.8385 19.3211C12.8453 19.2415 12.874 19.1654 12.9215 19.1011C13.3375 18.539 13.497 17.2356 13.5234 16.7811C13.5267 16.7243 13.5412 16.6688 13.5659 16.6175C13.5907 16.5663 13.6253 16.5205 13.6678 16.4827C13.7103 16.4449 13.7598 16.4158 13.8135 16.3971C13.8673 16.3784 13.9241 16.3705 13.9809 16.3738C14.0377 16.3771 14.0933 16.3915 14.1445 16.4163C14.1957 16.4411 14.2415 16.4757 14.2794 16.5182C14.3172 16.5607 14.3463 16.6102 14.365 16.6639C14.3837 16.7176 14.3916 16.7745 14.3883 16.8313C14.3775 17.0246 14.2586 18.7465 13.6186 19.6153C13.578 19.6701 13.525 19.7145 13.464 19.745C13.403 19.7754 13.3356 19.791 13.2674 19.7904Z" fill="white"/>
<path d="M25.2288 25.3114C25.1162 25.3115 25.0081 25.2676 24.9274 25.1892C24.8466 25.1108 24.7996 25.004 24.7964 24.8915C24.7155 22.0755 23.6448 21.1895 23.6344 21.1808C23.5451 21.1099 23.4871 21.0067 23.4731 20.8935C23.459 20.7803 23.4899 20.6661 23.5592 20.5754C23.6279 20.4855 23.7294 20.4264 23.8416 20.4108C23.9537 20.3953 24.0674 20.4246 24.1581 20.4924C24.2152 20.5357 25.5665 21.5852 25.6612 24.8665C25.6645 24.981 25.6221 25.0922 25.5435 25.1755C25.4648 25.2589 25.3563 25.3076 25.2418 25.311L25.2288 25.3114Z" fill="white"/>
<path d="M25.2308 27.8641C24.8927 27.8642 24.5622 27.764 24.281 27.5762C23.9999 27.3885 23.7807 27.1215 23.6512 26.8092C23.5218 26.4968 23.4879 26.1531 23.5538 25.8215C23.6197 25.4899 23.7825 25.1852 24.0215 24.9461C24.2606 24.707 24.5652 24.5442 24.8968 24.4782C25.2284 24.4122 25.5721 24.446 25.8845 24.5754C26.1968 24.7048 26.4638 24.9239 26.6517 25.205C26.8395 25.4861 26.9398 25.8166 26.9398 26.1547C26.9393 26.6079 26.7592 27.0423 26.4388 27.3628C26.1184 27.6833 25.684 27.8636 25.2308 27.8641ZM25.2308 25.3102C25.0638 25.3101 24.9005 25.3596 24.7615 25.4523C24.6226 25.545 24.5143 25.6769 24.4503 25.8312C24.3863 25.9855 24.3695 26.1554 24.402 26.3192C24.4346 26.4831 24.515 26.6336 24.6331 26.7517C24.7512 26.8699 24.9016 26.9504 25.0655 26.983C25.2293 27.0156 25.3991 26.9989 25.5535 26.935C25.7078 26.8711 25.8398 26.7629 25.9326 26.624C26.0254 26.4851 26.0749 26.3218 26.0749 26.1547C26.0747 25.9309 25.9857 25.7163 25.8275 25.5579C25.6692 25.3996 25.4547 25.3105 25.2308 25.3102Z" fill="white"/>
<path d="M7.46754 25.3111C7.35798 25.3114 7.2524 25.27 7.17213 25.1955C7.09186 25.1209 7.04289 25.0186 7.03511 24.9094C6.79944 21.5904 8.62819 20.5297 8.70603 20.486C8.80592 20.4296 8.92412 20.4153 9.03461 20.446C9.14511 20.4768 9.23885 20.5502 9.29522 20.6501C9.35159 20.75 9.36597 20.8682 9.33519 20.9787C9.30441 21.0892 9.231 21.1829 9.13111 21.2393C9.06538 21.2782 7.70408 22.1184 7.89738 24.8484C7.90547 24.9628 7.86777 25.0757 7.7926 25.1623C7.71742 25.2489 7.61092 25.3021 7.49652 25.3102L7.46754 25.3111Z" fill="white"/>
<path d="M6.59284 28.7737C6.52592 28.774 6.45985 28.7588 6.39982 28.7292C6.33979 28.6996 6.28744 28.6565 6.24689 28.6033C6.0358 28.3261 5.8803 28.0107 5.78894 27.6744C5.5882 27.0195 5.65406 26.3118 5.97221 25.7051C6.29035 25.0985 6.83507 24.6419 7.48797 24.4347C7.79766 24.3476 8.12159 24.3231 8.44085 24.3626C8.76011 24.4021 9.06831 24.5048 9.34743 24.6647C9.8366 24.9473 10.2279 25.3725 10.469 25.8834C10.71 26.3944 10.7895 26.9667 10.6966 27.524C10.6778 27.6371 10.6148 27.7381 10.5215 27.8048C10.4282 27.8715 10.3122 27.8984 10.1991 27.8796C10.086 27.8608 9.98493 27.7978 9.91823 27.7045C9.85153 27.6112 9.82462 27.4953 9.84343 27.3821C9.9069 27.0003 9.85299 26.6082 9.68884 26.2576C9.52469 25.9071 9.25802 25.6146 8.92408 25.4189C8.74402 25.3149 8.54505 25.2479 8.33879 25.2216C8.13253 25.1954 7.92312 25.2106 7.72278 25.2662C7.28948 25.4111 6.93078 25.7211 6.72451 26.1287C6.51823 26.5364 6.48102 27.009 6.62094 27.444C6.68352 27.6741 6.79014 27.89 6.93489 28.0796C6.98359 28.1437 7.01343 28.2201 7.02106 28.3003C7.02869 28.3804 7.01381 28.4611 6.97808 28.5332C6.94235 28.6053 6.8872 28.666 6.81883 28.7085C6.75047 28.751 6.6716 28.7736 6.59111 28.7737H6.59284Z" fill="white"/>
<path d="M10.2759 27.8862C10.259 27.8862 10.2417 27.8862 10.2244 27.8836L9.73708 27.8261C9.68066 27.8194 9.62612 27.8017 9.57656 27.7739C9.527 27.7461 9.4834 27.7088 9.44824 27.6642C9.41308 27.6196 9.38706 27.5685 9.37166 27.5138C9.35626 27.4591 9.35179 27.4019 9.35849 27.3455C9.36519 27.2891 9.38294 27.2345 9.41072 27.185C9.4385 27.1354 9.47577 27.0918 9.5204 27.0566C9.61054 26.9856 9.72519 26.9534 9.83914 26.9669L10.3265 27.0248C10.4359 27.0379 10.5363 27.0922 10.607 27.1767C10.6778 27.2612 10.7136 27.3696 10.7071 27.4796C10.7006 27.5896 10.6524 27.693 10.5723 27.7687C10.4921 27.8443 10.3861 27.8861 10.2759 27.8862Z" fill="white"/>
<path d="M6.59269 28.7777C6.49116 28.7778 6.39281 28.7422 6.31489 28.6771C6.23696 28.612 6.18442 28.5216 6.16648 28.4217C6.14853 28.3217 6.16632 28.2187 6.21674 28.1305C6.26715 28.0424 6.34697 27.9748 6.44221 27.9396L6.96113 27.748C7.01436 27.7282 7.071 27.719 7.12779 27.721C7.18458 27.723 7.24042 27.7362 7.29212 27.7598C7.34382 27.7833 7.39037 27.8169 7.4291 27.8585C7.46784 27.9 7.49801 27.9488 7.51788 28.0021C7.53776 28.0553 7.54695 28.112 7.54494 28.1688C7.54293 28.2255 7.52975 28.2814 7.50616 28.3331C7.48257 28.3848 7.44903 28.4313 7.40745 28.4701C7.36587 28.5088 7.31707 28.539 7.26383 28.5588L6.74491 28.7508C6.69619 28.7689 6.64463 28.7779 6.59269 28.7777Z" fill="white"/>
</svg>
