<svg width="35" height="34" viewBox="0 0 35 34" fill="none" xmlns="http://www.w3.org/2000/svg">
<g clip-path="url(#clip0_17_112)">
<path d="M26.1407 22.4917C25.0299 21.3951 23.6432 21.3951 22.5395 22.4917C21.6975 23.3266 20.8556 24.1614 20.0278 25.0104C19.8014 25.2439 19.6104 25.2934 19.3344 25.1378C18.7897 24.8406 18.2095 24.6001 17.686 24.2746C15.2451 22.7393 13.2004 20.7654 11.3891 18.5438C10.4906 17.4401 9.69111 16.2586 9.13218 14.9284C9.01898 14.6596 9.04021 14.4827 9.25953 14.2634C10.1015 13.4497 10.9222 12.6149 11.75 11.78C12.9032 10.6197 12.9032 9.2613 11.7429 8.09391C11.0849 7.42885 10.4269 6.77795 9.76894 6.11289C9.08973 5.43368 8.4176 4.7474 7.73132 4.07527C6.62053 2.99278 5.23381 2.99278 4.1301 4.08234C3.28109 4.9172 2.46746 5.77328 1.6043 6.59399C0.804813 7.35103 0.401533 8.27786 0.316632 9.36035C0.182206 11.122 0.613785 12.7847 1.22224 14.4049C2.46746 17.7585 4.36358 20.7371 6.66298 23.4681C9.76894 27.1612 13.4763 30.0833 17.8133 32.1916C19.766 33.1397 21.7895 33.8684 23.9898 33.9887C25.5039 34.0736 26.8199 33.6915 27.8741 32.51C28.5957 31.7034 29.4094 30.9676 30.1735 30.1965C31.3055 29.0503 31.3126 27.6636 30.1876 26.5316C28.8434 25.1802 27.492 23.836 26.1407 22.4917Z" fill="white"/>
<path d="M24.7895 16.8528L27.4002 16.4071C26.9899 14.0086 25.8578 11.8366 24.1386 10.1103C22.3203 8.29197 20.0209 7.14581 17.488 6.79205L17.1201 9.41691C19.0799 9.69284 20.8628 10.5772 22.2708 11.9852C23.6009 13.3153 24.4711 14.9991 24.7895 16.8528Z" fill="white"/>
<path d="M28.8718 5.50441C25.8578 2.49043 22.0444 0.587232 17.8347 0L17.4668 2.62485C21.1034 3.13426 24.4004 4.78275 27.004 7.37931C29.4732 9.84851 31.0934 12.9686 31.6806 16.4L34.2913 15.9543C33.6051 11.9781 31.7302 8.36982 28.8718 5.50441Z" fill="white"/>
</g>
<defs>
<clipPath id="clip0_17_112">
<rect width="34" height="34" fill="white" transform="translate(0.291504)"/>
</clipPath>
</defs>
</svg>
