<svg width="37" height="36" viewBox="0 0 37 36" fill="none" xmlns="http://www.w3.org/2000/svg">
<g clip-path="url(#clip0_70_424)">
<path d="M12.4894 13.8338C13.527 13.8336 14.5411 13.5257 15.4037 12.9491C16.2663 12.3726 16.9385 11.5532 17.3354 10.5945C17.7322 9.63589 17.8359 8.5811 17.6333 7.56354C17.4307 6.54598 16.9309 5.61135 16.1972 4.87784C15.4634 4.14433 14.5286 3.64488 13.5109 3.44265C12.4933 3.24043 11.4385 3.34451 10.4801 3.74173C9.52157 4.13895 8.70241 4.81148 8.12614 5.67426C7.54988 6.53705 7.2424 7.55134 7.24259 8.58887C7.24418 9.97975 7.79754 11.3132 8.78122 12.2965C9.7649 13.2798 11.0985 13.8327 12.4894 13.8338ZM12.4894 4.30712C13.336 4.30724 14.1636 4.55839 14.8675 5.02881C15.5713 5.49924 16.1199 6.16781 16.4438 6.94999C16.7678 7.73217 16.8525 8.59284 16.6873 9.42317C16.5221 10.2535 16.1144 11.0162 15.5158 11.6149C14.9172 12.2135 14.1545 12.6212 13.3241 12.7864C12.4938 12.9516 11.6331 12.8669 10.8509 12.543C10.0688 12.2191 9.40018 11.6705 8.92974 10.9666C8.45931 10.2628 8.20814 9.4352 8.20801 8.5886C8.2091 7.45345 8.66054 6.36511 9.46323 5.56246C10.2659 4.75981 11.3543 4.30843 12.4894 4.30739V4.30712ZM11.1977 9.87835V11.0098C11.1977 11.3521 11.3337 11.6804 11.5758 11.9224C11.8178 12.1645 12.1461 12.3005 12.4885 12.3005C12.8308 12.3005 13.1591 12.1645 13.4011 11.9224C13.6432 11.6804 13.7792 11.3521 13.7792 11.0098V9.87862H14.9106C15.2526 9.87862 15.5807 9.74274 15.8226 9.50086C16.0645 9.25899 16.2003 8.93094 16.2003 8.58887C16.2003 8.24681 16.0645 7.91876 15.8226 7.67688C15.5807 7.435 15.2526 7.29912 14.9106 7.29912H13.7792V6.16578C13.7792 5.82346 13.6432 5.49516 13.4011 5.25311C13.1591 5.01105 12.8308 4.87506 12.4885 4.87506C12.1461 4.87506 11.8178 5.01105 11.5758 5.25311C11.3337 5.49516 11.1977 5.82346 11.1977 6.16578V7.29912H10.0663C9.72426 7.29912 9.39621 7.435 9.15433 7.67688C8.91246 7.91876 8.77657 8.24681 8.77657 8.58887C8.77657 8.93094 8.91246 9.25899 9.15433 9.50086C9.39621 9.74274 9.72426 9.87862 10.0663 9.87862L11.1977 9.87835ZM9.74199 8.5886C9.7431 8.50297 9.77757 8.42116 9.83808 8.36058C9.89859 8.29999 9.98036 8.26541 10.066 8.26419H11.6801C11.808 8.26419 11.9308 8.21336 12.0213 8.12286C12.1118 8.03237 12.1626 7.90963 12.1626 7.78166V6.16578C12.1638 6.08032 12.1987 5.99877 12.2595 5.93878C12.3204 5.87878 12.4025 5.84515 12.4879 5.84515C12.5734 5.84515 12.6555 5.87878 12.7163 5.93878C12.7772 5.99877 12.812 6.08032 12.8133 6.16578V7.78179C12.8133 7.90977 12.8641 8.03251 12.9546 8.123C13.0451 8.21349 13.1678 8.26433 13.2958 8.26433H14.9099C14.9951 8.26557 15.0764 8.30029 15.1362 8.36099C15.196 8.42169 15.2296 8.50348 15.2296 8.5887C15.2296 8.67392 15.196 8.75571 15.1362 8.81641C15.0764 8.8771 14.9951 8.91183 14.9099 8.91307H13.2965C13.1685 8.91307 13.0458 8.96391 12.9553 9.0544C12.8648 9.14489 12.814 9.26763 12.814 9.3956V11.0098C12.8146 11.0529 12.8066 11.0957 12.7906 11.1357C12.7745 11.1757 12.7506 11.2122 12.7204 11.2429C12.6901 11.2736 12.654 11.298 12.6142 11.3146C12.5744 11.3313 12.5318 11.3399 12.4886 11.3399C12.4455 11.3399 12.4028 11.3313 12.363 11.3146C12.3232 11.298 12.2872 11.2736 12.2569 11.2429C12.2266 11.2122 12.2028 11.1757 12.1867 11.1357C12.1706 11.0957 12.1627 11.0529 12.1633 11.0098V9.39588C12.1633 9.2679 12.1125 9.14517 12.022 9.05468C11.9315 8.96418 11.8087 8.91334 11.6808 8.91334H10.0663C9.98063 8.91224 9.89876 8.87769 9.83817 8.81707C9.77758 8.75646 9.74306 8.67457 9.74199 8.58887V8.5886ZM29.4851 17.8885C29.2819 17.2202 28.736 16.8369 27.9876 16.8369H27.8763C27.7702 16.8369 27.6671 16.8719 27.5829 16.9363C27.4986 17.0008 27.438 17.0913 27.4104 17.1937L26.1265 21.9442C26.1071 22.0157 26.1044 22.0908 26.1188 22.1635C26.1331 22.2363 26.164 22.3048 26.209 22.3636C26.2541 22.4225 26.3121 22.4702 26.3786 22.503C26.4451 22.5358 26.5182 22.5529 26.5924 22.5529H30.2642C30.3397 22.5529 30.4142 22.5352 30.4817 22.5012C30.5491 22.4672 30.6076 22.4179 30.6525 22.3571C30.6974 22.2964 30.7274 22.2259 30.7401 22.1515C30.7528 22.077 30.7479 22.0007 30.7257 21.9285L29.4851 17.8885ZM27.2229 21.5876L28.2378 17.8323C28.318 17.8528 28.3909 17.8954 28.4481 17.9552C28.5054 18.015 28.5448 18.0897 28.5618 18.1707L29.6109 21.5876H27.2229ZM36.0633 25.7167C36.2988 24.6414 36.102 23.5977 35.5113 22.8261C34.9417 22.0816 34.0746 21.6493 33.0518 21.5937L31.5913 16.8362C31.1875 15.5189 30.0529 14.7324 28.5563 14.7324H26.9508L27.0398 12.1592C27.0495 11.8683 26.9667 11.6238 26.8004 11.4518C26.727 11.3772 26.6392 11.3183 26.5423 11.2786C26.4455 11.2388 26.3416 11.2192 26.2369 11.2208H23.8862C23.4886 11.2208 23.1286 11.4763 22.8977 11.9235L21.4623 14.7324H4.24493C4.11696 14.7324 3.99422 14.7832 3.90373 14.8737C3.81324 14.9642 3.7624 15.087 3.7624 15.2149C3.7624 15.3429 3.81324 15.4656 3.90373 15.5561C3.99422 15.6466 4.11696 15.6975 4.24493 15.6975H25.71C24.8879 18.7432 23.9637 22.1618 23.0767 25.4427H1.34875C1.22077 25.4427 1.09804 25.4935 1.00754 25.584C0.917049 25.6745 0.866211 25.7973 0.866211 25.9252C0.866211 26.0532 0.917049 26.176 1.00754 26.2665C1.09804 26.3569 1.22077 26.4078 1.34875 26.4078H5.39289L4.60353 29.3306C4.48379 29.7752 4.55975 30.2187 4.81178 30.5476C4.93908 30.708 5.1018 30.8367 5.28718 30.9236C5.47256 31.0105 5.67555 31.0533 5.88025 31.0487H8.49746C8.47574 31.5197 8.61747 31.9837 8.89866 32.3622C9.27869 32.8585 9.86952 33.1319 10.5624 33.1319C11.8136 33.1319 13.057 32.241 13.5422 31.0487H25.2734C25.2514 31.519 25.3926 31.9825 25.6732 32.3606C26.0534 32.8579 26.6452 33.1319 27.3389 33.1319C28.5902 33.1319 29.8336 32.241 30.3187 31.0487H34.2584C34.3645 31.0487 34.4677 31.0138 34.5519 30.9493C34.6361 30.8848 34.6967 30.7943 34.7244 30.6919L36.0122 25.9259C36.0241 25.8819 36.0339 25.8379 36.0444 25.7939C36.0529 25.7688 36.0592 25.7429 36.0633 25.7167ZM23.7559 12.3649C23.7872 12.2945 23.8358 12.2331 23.8972 12.1865H26.0728L25.9847 14.7327H22.5459L23.7559 12.3649ZM5.57798 29.9613C5.50904 29.8717 5.49401 29.7369 5.53558 29.5829L6.39284 26.4086H22.8158L21.8221 30.0843H13.7482C13.7638 29.6218 13.6219 29.1677 13.3456 28.7964C12.9655 28.3001 12.3748 28.0266 11.6824 28.0266C10.4408 28.0266 9.20631 28.9046 8.71336 30.0843H5.88053C5.82406 30.0882 5.76744 30.0792 5.715 30.0579C5.66256 30.0366 5.61569 30.0035 5.57798 29.9613ZM10.5627 32.1672C10.1772 32.1672 9.85849 32.0283 9.66534 31.7761C9.45743 31.5045 9.40511 31.1246 9.5181 30.7062C9.76908 29.7769 10.7602 28.9918 11.6826 28.9918C12.0677 28.9918 12.3857 29.1307 12.5794 29.3831C12.7878 29.6553 12.8402 30.0358 12.7272 30.4545C12.4762 31.3831 11.4851 32.1674 10.5627 32.1674V32.1672ZM27.3389 32.1672C26.9528 32.1672 26.6334 32.028 26.44 31.775C26.2325 31.5036 26.1807 31.1243 26.2944 30.7066C26.5453 29.7772 27.5364 28.9921 28.4589 28.9921C28.844 28.9921 29.162 29.1311 29.3557 29.3834C29.5641 29.6556 29.6166 30.0361 29.5035 30.4549C29.2524 31.3831 28.2613 32.1674 27.3389 32.1674V32.1672ZM33.8888 30.0841H30.5244C30.5401 29.6216 30.3981 29.1675 30.1219 28.7962C29.7417 28.2999 29.151 28.0264 28.4586 28.0264C27.2169 28.0264 25.9822 28.9046 25.4895 30.0841H22.8222L23.8253 26.3732C24.7918 22.7985 25.8146 19.0153 26.71 15.6978H28.5563C29.6373 15.6978 30.3874 16.2026 30.6684 17.1194L32.2318 22.2119C32.2621 22.3106 32.3232 22.397 32.4063 22.4584C32.4894 22.5198 32.5899 22.553 32.6932 22.5529H32.8242C33.6382 22.5529 34.3201 22.8584 34.7448 23.413C35.1051 23.8836 35.253 24.4903 35.1791 25.1577H32.4646C32.3586 25.1577 32.2555 25.1926 32.1713 25.2571C32.0871 25.3215 32.0264 25.4119 31.9987 25.5142L31.3461 27.9236C31.3266 27.9952 31.324 28.0703 31.3383 28.1431C31.3526 28.2158 31.3834 28.2843 31.4285 28.3433C31.4736 28.4022 31.5316 28.4499 31.5981 28.4827C31.6646 28.5156 31.7378 28.5326 31.8119 28.5326H34.3081L33.8888 30.0841ZM34.5689 27.5672H32.4427L32.8339 26.1232H34.9592L34.5689 27.5672ZM11.6061 30.567V30.5945C11.6061 30.7225 11.5553 30.8453 11.4648 30.9358C11.3743 31.0262 11.2515 31.0771 11.1236 31.0771C10.9956 31.0771 10.8729 31.0262 10.7824 30.9358C10.6919 30.8453 10.641 30.7225 10.641 30.5945V30.567C10.641 30.439 10.6919 30.3163 10.7824 30.2258C10.8729 30.1353 10.9956 30.0844 11.1236 30.0844C11.2515 30.0844 11.3743 30.1353 11.4648 30.2258C11.5553 30.3163 11.6061 30.439 11.6061 30.567ZM28.3804 30.567V30.5945C28.3804 30.7225 28.3296 30.8453 28.2391 30.9358C28.1486 31.0262 28.0258 31.0771 27.8979 31.0771C27.7699 31.0771 27.6471 31.0262 27.5566 30.9358C27.4662 30.8453 27.4153 30.7225 27.4153 30.5945V30.567C27.4153 30.439 27.4662 30.3163 27.5566 30.2258C27.6471 30.1353 27.7699 30.0844 27.8979 30.0844C28.0258 30.0844 28.1486 30.1353 28.2391 30.2258C28.3296 30.3163 28.3804 30.439 28.3804 30.567ZM9.85139 24.0167H20.9117C21.1148 24.0108 21.3109 23.9405 21.4715 23.816C21.6322 23.6915 21.7492 23.5192 21.8056 23.324L23.2272 18.068C23.2589 17.9556 23.2641 17.8373 23.2426 17.7226C23.2211 17.6078 23.1733 17.4995 23.1031 17.4062C23.0332 17.317 22.9437 17.2451 22.8415 17.1962C22.7393 17.1473 22.6271 17.1227 22.5138 17.1243H11.4538C11.2501 17.1293 11.0534 17.1995 10.8925 17.3245C10.7317 17.4495 10.6151 17.6228 10.5599 17.8189L9.13868 23.0736C9.10682 23.1856 9.10131 23.3035 9.12257 23.418C9.14384 23.5325 9.1913 23.6405 9.26125 23.7336C9.33109 23.8232 9.42072 23.8953 9.5231 23.9444C9.62548 23.9936 9.73785 24.0183 9.85139 24.0167ZM20.8794 23.0517H16.0136L17.3517 18.0899H22.2213L20.8794 23.0517ZM11.4867 18.0899H16.3519L15.0138 23.0514H10.1447L11.4867 18.0899ZM15.407 28.2454C15.407 28.1174 15.4578 27.9947 15.5483 27.9042C15.6388 27.8137 15.7615 27.7629 15.8895 27.7629H20.2452C20.3732 27.7629 20.4959 27.8137 20.5864 27.9042C20.6769 27.9947 20.7278 28.1174 20.7278 28.2454C20.7278 28.3734 20.6769 28.4961 20.5864 28.5866C20.4959 28.6771 20.3732 28.728 20.2452 28.728H15.8897C15.8263 28.728 15.7635 28.7155 15.7049 28.6913C15.6464 28.667 15.5932 28.6315 15.5484 28.5867C15.5035 28.5419 15.468 28.4887 15.4437 28.4301C15.4195 28.3716 15.407 28.3088 15.407 28.2454ZM1.59119 23.2489C1.59119 23.1209 1.64203 22.9982 1.73252 22.9077C1.82301 22.8172 1.94575 22.7664 2.07372 22.7664H6.55856C6.68654 22.7664 6.80927 22.8172 6.89977 22.9077C6.99026 22.9982 7.0411 23.1209 7.0411 23.2489C7.0411 23.3769 6.99026 23.4996 6.89977 23.5901C6.80927 23.6806 6.68654 23.7314 6.55856 23.7314H2.07386C2.01048 23.7314 1.94772 23.719 1.88916 23.6947C1.8306 23.6705 1.77739 23.635 1.73257 23.5901C1.68775 23.5453 1.65219 23.4921 1.62793 23.4336C1.60367 23.375 1.59119 23.3123 1.59119 23.2489ZM2.31423 20.5717C2.31423 20.4437 2.36507 20.321 2.45557 20.2305C2.54606 20.14 2.6688 20.0892 2.79677 20.0892H7.47124C7.59922 20.0892 7.72196 20.14 7.81245 20.2305C7.90294 20.321 7.95378 20.4437 7.95378 20.5717C7.95378 20.6997 7.90294 20.8224 7.81245 20.9129C7.72196 21.0034 7.59922 21.0542 7.47124 21.0542H2.79691C2.73352 21.0543 2.67075 21.0418 2.61218 21.0175C2.55361 20.9933 2.50039 20.9577 2.45557 20.9129C2.41074 20.8681 2.37519 20.8149 2.35094 20.7563C2.32669 20.6977 2.31422 20.635 2.31423 20.5716V20.5717ZM3.03763 17.8945C3.03763 17.7665 3.08846 17.6437 3.17896 17.5533C3.26945 17.4628 3.39219 17.4119 3.52016 17.4119H8.19443C8.2578 17.4119 8.32054 17.4244 8.37909 17.4487C8.43763 17.4729 8.49083 17.5084 8.53563 17.5533C8.58044 17.5981 8.61598 17.6513 8.64023 17.7098C8.66448 17.7683 8.67697 17.8311 8.67697 17.8945C8.67697 17.9578 8.66448 18.0206 8.64023 18.0791C8.61598 18.1377 8.58044 18.1909 8.53563 18.2357C8.49083 18.2805 8.43763 18.316 8.37909 18.3403C8.32054 18.3645 8.2578 18.377 8.19443 18.377H3.52016C3.39219 18.377 3.26945 18.3262 3.17896 18.2357C3.08846 18.1452 3.03763 18.0224 3.03763 17.8945ZM27.1856 9.44537L28.9111 7.40921C28.9521 7.36085 29.0022 7.32103 29.0585 7.29204C29.1149 7.26304 29.1764 7.24543 29.2396 7.24021C29.3028 7.23499 29.3664 7.24226 29.4267 7.26161C29.4871 7.28097 29.543 7.31202 29.5914 7.35299C29.6397 7.39397 29.6796 7.44407 29.7086 7.50043C29.7376 7.5568 29.7552 7.61832 29.7604 7.68149C29.7656 7.74466 29.7583 7.80823 29.739 7.86859C29.7196 7.92895 29.6886 7.98491 29.6476 8.03327L27.922 10.0694C27.8811 10.1178 27.831 10.1576 27.7746 10.1866C27.7182 10.2156 27.6567 10.2332 27.5936 10.2384C27.466 10.249 27.3394 10.2084 27.2418 10.1256C27.1441 10.0429 27.0833 9.92473 27.0728 9.79715C27.0622 9.66958 27.1028 9.54304 27.1856 9.44537ZM28.5711 10.7366L30.9239 9.56015C31.0384 9.50291 31.171 9.4935 31.2924 9.53398C31.4139 9.57447 31.5142 9.66155 31.5715 9.77605C31.6287 9.89055 31.6381 10.0231 31.5976 10.1445C31.5571 10.266 31.4701 10.3664 31.3556 10.4236L29.0028 11.6C28.8883 11.6573 28.7557 11.6667 28.6343 11.6262C28.5129 11.5857 28.4125 11.4986 28.3552 11.3841C28.298 11.2696 28.2886 11.1371 28.3291 11.0156C28.3696 10.8942 28.4566 10.7938 28.5711 10.7366ZM22.258 8.14046C22.2394 8.07986 22.2329 8.0162 22.2388 7.9531C22.2448 7.88999 22.2632 7.82869 22.2929 7.77268C22.3226 7.71668 22.363 7.66706 22.4119 7.62668C22.4607 7.5863 22.5171 7.55593 22.5776 7.53732C22.6382 7.51871 22.7019 7.51221 22.765 7.51821C22.8281 7.5242 22.8894 7.54256 22.9454 7.57225C23.0014 7.60193 23.051 7.64236 23.0914 7.69122C23.1318 7.74008 23.1622 7.79641 23.1808 7.857L23.8062 9.89324C23.8248 9.95383 23.8312 10.0175 23.8252 10.0806C23.8193 10.1437 23.8009 10.205 23.7712 10.261C23.7415 10.317 23.7011 10.3666 23.6522 10.407C23.6034 10.4474 23.547 10.4777 23.4864 10.4963C23.4258 10.5149 23.3622 10.5214 23.2991 10.5154C23.236 10.5094 23.1747 10.4911 23.1187 10.4614C23.0627 10.4317 23.0131 10.3913 22.9727 10.3424C22.9323 10.2936 22.9019 10.2372 22.8833 10.1766L22.258 8.14046ZM25.0947 9.21527L25.7299 6.86463C25.7464 6.80344 25.7748 6.74611 25.8135 6.69591C25.8522 6.64571 25.9004 6.60362 25.9554 6.57204C26.0103 6.54046 26.0709 6.52002 26.1338 6.51188C26.1967 6.50373 26.2605 6.50805 26.3217 6.52458C26.3829 6.54111 26.4402 6.56953 26.4904 6.60822C26.5406 6.6469 26.5827 6.6951 26.6143 6.75005C26.6458 6.80501 26.6663 6.86564 26.6744 6.92849C26.6826 6.99135 26.6783 7.05519 26.6617 7.11638L26.0266 9.46702C26.0101 9.52821 25.9817 9.58555 25.943 9.63575C25.9043 9.68596 25.8561 9.72805 25.8011 9.75962C25.7462 9.7912 25.6855 9.81164 25.6227 9.81978C25.5598 9.82792 25.496 9.8236 25.4348 9.80707C25.3736 9.79054 25.3163 9.76211 25.2661 9.72342C25.2158 9.68473 25.1737 9.63652 25.1422 9.58156C25.1106 9.52661 25.0902 9.46596 25.082 9.4031C25.0739 9.34024 25.0782 9.27639 25.0947 9.2152V9.21527ZM19.3801 10.2021C19.4159 10.1498 19.4616 10.105 19.5147 10.0704C19.5678 10.0357 19.6272 10.0119 19.6895 10.0002C19.7518 9.98847 19.8157 9.98917 19.8778 10.0022C19.9398 10.0153 19.9987 10.0404 20.051 10.0762L21.7686 11.2506C21.8743 11.3228 21.9469 11.4341 21.9706 11.5598C21.9942 11.6856 21.9669 11.8156 21.8947 11.9213C21.8225 12.027 21.7113 12.0996 21.5855 12.1233C21.4597 12.1469 21.3297 12.1196 21.224 12.0474L19.5059 10.873C19.4536 10.8372 19.4088 10.7915 19.3742 10.7384C19.3395 10.6853 19.3157 10.626 19.304 10.5637C19.2923 10.5014 19.293 10.4374 19.306 10.3753C19.319 10.3133 19.3442 10.2544 19.38 10.2021H19.3801Z" fill="white"/>
</g>
<defs>
<clipPath id="clip0_70_424">
<rect width="35.2941" height="35.2941" fill="white" transform="translate(0.866211 0.590332)"/>
</clipPath>
</defs>
</svg>
