<svg width="18" height="17" viewBox="0 0 18 17" fill="none" xmlns="http://www.w3.org/2000/svg">
<path d="M4.47559 9.04685C4.47559 5.02069 9.05456 5.30231 9.21102 8.05595C9.26317 8.95297 7.90721 9.02599 7.85506 8.12897C7.76118 7.08592 5.82112 6.79387 5.82112 9.04685C5.82112 10.5175 8.68949 15.2738 11.1094 15.2738C13.2998 15.2738 15.6988 9.03642 15.6988 6.38708C15.6988 4.20711 14.4158 1.99585 11.5683 1.99585C8.7938 1.99585 7.78204 5.5735 5.84198 5.5735C4.94496 5.5735 4.94496 4.21754 5.84198 4.21754C6.739 4.21754 8.29314 0.639893 11.5683 0.639893C15.6153 0.639893 19.1825 4.45744 15.4171 12.468C10.6504 22.6377 4.47559 11.2372 4.47559 9.04685Z" fill="#5E5EEE"/>
<path d="M0.0112305 6.38713C0.0112305 1.67256 4.40246 -0.319656 7.38557 1.0676C8.19915 1.44309 7.62547 2.67389 6.81189 2.29839C4.67365 1.29707 1.35676 2.69475 1.35676 6.38713C1.35676 9.03647 3.75577 15.2739 5.94617 15.2739C8.36603 15.2739 11.2344 10.528 11.2344 9.0469C11.2344 6.79392 9.29435 7.07555 9.20047 8.13945C9.17961 8.51495 8.85626 8.79657 8.48077 8.77571C7.20825 8.7027 7.89666 6.00121 10.1392 6.00121C12.121 6.00121 14.2071 8.73399 10.5251 13.5842C3.91222 22.3249 0.0112305 9.69359 0.0112305 6.38713Z" fill="#5E5EEE"/>
</svg>
