<svg width="38" height="38" viewBox="0 0 38 38" fill="none" xmlns="http://www.w3.org/2000/svg">
<path d="M33.4812 20.2539L33.1682 20.888L32.4683 20.9898L32.9748 21.4834L32.8552 22.1805L33.4812 21.8515L34.1074 22.1805L33.9877 21.4834L34.4942 20.9898L33.7943 20.888L33.4812 20.2539ZM33.7234 21.6522L33.4812 21.5249L33.2391 21.6522L33.2853 21.3826L33.0895 21.1917L33.3602 21.1523L33.4812 20.907L33.6023 21.1523L33.873 21.1917L33.677 21.3826L33.7234 21.6522Z" fill="white"/>
<path d="M32.3789 5.32389L33.0588 4.66121L32.1193 4.52463L31.699 3.67334L31.2789 4.52463L30.3394 4.66121L31.0192 5.32389L30.8586 6.25951L31.699 5.81775L32.5394 6.25951L32.3789 5.32389ZM31.699 5.49125L31.2427 5.73118L31.3299 5.223L30.9606 4.86305L31.4709 4.7889L31.6991 4.32648L31.9274 4.7889L32.4377 4.86305L32.0685 5.223L32.1556 5.73118L31.699 5.49125Z" fill="white"/>
<path d="M4.93451 15.2932C4.59125 15.2932 4.31201 15.5725 4.31201 15.9158C4.31201 16.259 4.59125 16.5383 4.93451 16.5383C5.27777 16.5383 5.557 16.259 5.557 15.9158C5.557 15.5725 5.27777 15.2932 4.93451 15.2932ZM4.93451 16.2492C4.75066 16.2492 4.60107 16.0996 4.60107 15.9158C4.60107 15.7319 4.75066 15.5823 4.93451 15.5823C5.11835 15.5823 5.26794 15.7319 5.26794 15.9158C5.26794 16.0997 5.11835 16.2492 4.93451 16.2492Z" fill="white"/>
<path d="M17.1469 5.3468C17.4902 5.3468 17.7694 5.06756 17.7694 4.7243C17.7694 4.38104 17.4902 4.10181 17.1469 4.10181C16.8036 4.10181 16.5244 4.38104 16.5244 4.7243C16.5244 5.06756 16.8036 5.3468 17.1469 5.3468ZM17.1469 4.3908C17.3308 4.3908 17.4803 4.54039 17.4803 4.72423C17.4803 4.90807 17.3308 5.05766 17.1469 5.05766C16.9631 5.05766 16.8135 4.90807 16.8135 4.72423C16.8135 4.54039 16.9631 4.3908 17.1469 4.3908Z" fill="white"/>
<path d="M7.05832 30.8523C6.56792 30.8523 6.16895 31.2513 6.16895 31.7417C6.16895 32.2322 6.56792 32.6312 7.05832 32.6312C7.54871 32.6312 7.94776 32.2322 7.94776 31.7417C7.94776 31.2513 7.54871 30.8523 7.05832 30.8523ZM7.05832 32.3421C6.72734 32.3421 6.45801 32.0727 6.45801 31.7417C6.45801 31.4106 6.72734 31.1413 7.05832 31.1413C7.38937 31.1413 7.6587 31.4106 7.6587 31.7417C7.6587 32.0727 7.38937 32.3421 7.05832 32.3421Z" fill="white"/>
<path d="M33.3652 10.4509H33.6543V10.8845H33.3652V10.4509Z" fill="white"/>
<path d="M33.3652 13.6306H33.6543V14.5701H33.3652V13.6306Z" fill="white"/>
<path d="M33.3652 11.824H33.6543V12.7634H33.3652V11.824Z" fill="white"/>
<path d="M33.3652 15.5095H33.6543V15.9431H33.3652V15.5095Z" fill="white"/>
<path d="M33.8662 27.1134L34.1536 27.1512C34.1852 26.8607 34.2011 26.5659 34.2011 26.2769H33.912C33.912 26.566 33.8966 26.8332 33.8662 27.1134Z" fill="white"/>
<path d="M29.2832 33.3753L29.4008 33.6393C29.5497 33.573 29.6979 33.5015 29.8417 33.4269L29.7083 33.1704C29.5697 33.2424 29.4267 33.3113 29.2832 33.3753Z" fill="white"/>
<path d="M33.4995 28.7596L33.7732 28.8525C33.8676 28.5746 33.9476 28.2884 34.0109 28.0021L33.7286 27.9397C33.6677 28.2158 33.5905 28.4917 33.4995 28.7596Z" fill="white"/>
<path d="M32.7793 30.299L33.0262 30.4495C33.1788 30.1989 33.3193 29.9371 33.4434 29.6716L33.1816 29.5491C33.0619 29.8052 32.9264 30.0575 32.7793 30.299Z" fill="white"/>
<path d="M30.4404 32.7372L30.6009 32.9776C30.8447 32.8149 31.0822 32.6369 31.307 32.4486L31.1212 32.2271C30.9045 32.4087 30.6755 32.5804 30.4404 32.7372Z" fill="white"/>
<path d="M31.7427 31.646L31.9513 31.8462C32.1542 31.6347 32.3478 31.4096 32.5268 31.1772L32.2977 31.001C32.1251 31.2251 31.9384 31.4421 31.7427 31.646Z" fill="white"/>
<path d="M9.54134 3.9526L9.49986 3.6665C9.20942 3.70863 8.91841 3.76739 8.63477 3.84103L8.70746 4.12084C8.98085 4.0498 9.26138 3.99322 9.54134 3.9526Z" fill="white"/>
<path d="M7.89744 4.37926L7.79453 4.10913C7.52072 4.21348 7.24958 4.33417 6.98877 4.46786L7.12058 4.72512C7.37207 4.5962 7.63345 4.47985 7.89744 4.37926Z" fill="white"/>
<path d="M6.22714 4.91235C5.98245 5.07365 5.74382 5.25034 5.51807 5.43736L5.70242 5.65994C5.92022 5.47957 6.15025 5.30924 6.38619 5.15372L6.22714 4.91235Z" fill="white"/>
<path d="M12.8469 3.87811C12.6135 3.81307 12.3744 3.758 12.1361 3.71436L12.084 3.99872C12.3138 4.04078 12.5443 4.09389 12.7692 4.15662L12.8469 3.87811Z" fill="white"/>
<path d="M11.2398 3.89149L11.2606 3.60322C10.9692 3.58219 10.6717 3.5767 10.3784 3.58725L10.3888 3.8761C10.6715 3.86605 10.9588 3.87126 11.2398 3.89149Z" fill="white"/>
<path d="M3.36523 8.202L3.62633 8.326C3.74752 8.07083 3.88425 7.81928 4.03297 7.57834L3.78698 7.42651C3.63276 7.67641 3.49083 7.93736 3.36523 8.202Z" fill="white"/>
<path d="M5.07728 6.23771L4.86995 6.03638C4.66566 6.24674 4.47076 6.47069 4.29053 6.70202L4.5186 6.87964C4.69232 6.65656 4.88029 6.44056 5.07728 6.23771Z" fill="white"/>
<path d="M28.2373 11.7066C26.1831 11.0564 24.9325 11.8616 24.2598 12.6125C24.0122 12.3342 23.7042 12.0686 23.3248 11.8626C22.4621 11.3944 21.4384 11.3425 20.282 11.7083C19.6234 11.9168 19.141 12.2704 18.8403 12.7613C18.9239 12.8983 18.9944 13.0455 19.0495 13.2038C19.1505 13.4936 19.1957 13.8047 19.199 14.1256C19.2035 13.8847 19.2384 13.6545 19.3122 13.4429C19.4889 12.9364 19.8774 12.5943 20.5 12.3973C20.9333 12.2602 21.3406 12.1917 21.72 12.1917C22.1808 12.1917 22.6004 12.2928 22.9746 12.4947C24.081 13.0918 24.4575 14.3902 24.4609 14.4024L25.1574 14.21C25.148 14.1756 25.0211 13.7303 24.7001 13.2077C25.4921 12.222 26.6074 11.9486 28.0193 12.3955C28.6416 12.5924 29.0301 12.9401 29.2068 13.4466C29.4644 14.1853 29.2495 15.148 28.9191 16.0152H26.1392C26.0798 15.4371 25.5864 14.9313 24.9885 14.9313H23.5307C22.9329 14.9313 22.4394 15.4371 22.38 16.0152H19.5994C19.3684 15.4371 19.1942 14.7611 19.1986 14.1707C19.1991 14.7774 19.0513 15.4371 18.8448 16.0152C18.843 16.0152 18.8412 16.0259 18.8393 16.0311C18.8375 16.0259 18.8357 16.0152 18.8339 16.0152C18.6276 15.4371 18.48 14.7781 18.4806 14.172C18.4844 14.7621 18.3101 15.4371 18.0792 16.0152H15.2992C15.2398 15.4371 14.7465 14.9313 14.1486 14.9313H12.6905C12.0927 14.9313 11.5995 15.4371 11.5401 16.0152H8.75949C8.42953 15.148 8.21497 14.1868 8.47238 13.4486C8.649 12.942 9.0375 12.5971 9.66014 12.4001C10.0934 12.263 10.5007 12.193 10.8801 12.193C11.3409 12.193 11.7604 12.2934 12.1346 12.4954C13.241 13.0925 13.6175 14.3906 13.6209 14.4028L14.3174 14.2101C14.308 14.1757 14.1811 13.7304 13.8602 13.2079C14.6522 12.2221 15.7676 11.9486 17.1794 12.3955C17.8017 12.5924 18.1902 12.9344 18.3668 13.4408C18.4408 13.6532 18.4758 13.8841 18.4802 14.1259C18.4836 13.8056 18.5288 13.495 18.6295 13.2058C18.685 13.0466 18.7558 12.8989 18.8401 12.7613C18.5396 12.2694 18.0568 11.9152 17.3974 11.7065C15.3433 11.0564 14.0925 11.8616 13.4199 12.6124C13.1722 12.3342 12.8642 12.0684 12.4849 11.8625C11.6221 11.3942 10.5984 11.3423 9.44211 11.7083C8.59884 11.9752 8.04298 12.479 7.78983 13.2058C7.1406 15.0696 8.79006 17.8106 9.17603 18.4133C9.0505 19.438 8.53294 24.316 9.8838 25.5317C10.0848 25.7126 10.2696 25.7673 10.4195 25.7672C10.4897 25.7672 10.5522 25.7553 10.6052 25.7386C11.1565 25.5656 11.3538 24.7246 11.6523 23.4515C11.9804 22.0521 12.4299 20.1355 13.3949 20.1355L13.45 20.1338C14.4115 20.1411 14.8597 22.0531 15.1873 23.4499C15.4858 24.723 15.683 25.564 16.2344 25.7368C16.4006 25.7891 16.6607 25.7954 16.9556 25.5299C18.3066 24.3145 17.7891 19.4421 17.6636 18.4173C17.8268 18.1623 18.2159 17.533 18.5616 16.738H19.1168C19.4628 17.533 19.8524 18.164 20.0157 18.4192C19.8903 19.4439 19.3728 24.3189 20.7236 25.5346C20.9246 25.7155 21.1094 25.7687 21.2593 25.7686C21.3294 25.7686 21.392 25.756 21.4449 25.7394C21.9964 25.5664 22.1935 24.7251 22.4921 23.4519C22.8202 22.0525 23.2696 20.1357 24.2346 20.1357L24.29 20.1339C25.2513 20.1412 25.6996 22.0532 26.0271 23.4499C26.3256 24.723 26.5227 25.564 27.0742 25.7368C27.2404 25.7891 27.5005 25.7954 27.7955 25.5299C29.1465 24.3145 28.6289 19.4363 28.5033 18.4115C28.8892 17.8087 30.5385 15.0675 29.8892 13.2038C29.6362 12.4772 29.0804 11.9734 28.2373 11.7066ZM12.2634 16.1221C12.2634 15.8828 12.4514 15.6541 12.6905 15.6541H14.1486C14.388 15.6541 14.5759 15.8828 14.5759 16.1221V16.6083C14.5759 16.8474 14.3879 17.0271 14.1486 17.0271H12.6905C12.4513 17.0271 12.2634 16.8474 12.2634 16.6083V16.1221ZM16.9889 18.1287L16.9124 18.2393L16.9301 18.3733C17.2111 20.5211 17.3352 24.2172 16.4723 24.9934C16.457 25.0072 16.4441 25.0171 16.4336 25.0248C16.2496 24.8155 16.0353 23.9016 15.8908 23.2853C15.4861 21.5595 14.9824 19.4114 13.4444 19.4114L13.3883 19.4131C11.8556 19.4191 11.3528 21.5634 10.9487 23.2867C10.8041 23.9032 10.5898 24.817 10.4058 25.0264C10.3952 25.0188 10.3824 25.0085 10.3671 24.9947C9.50491 24.2188 9.62877 20.5219 9.90938 18.3738L9.92701 18.2383L9.85056 18.1307C9.84174 18.1177 9.45035 17.5331 9.07074 16.7382H11.5401C11.5995 17.3163 12.0927 17.7499 12.6904 17.7499H14.1486C14.7463 17.7499 15.2398 17.3163 15.2992 16.7382H17.7677C17.3884 17.533 16.9977 18.1156 16.9889 18.1287ZM23.1033 16.1221C23.1033 15.8828 23.2913 15.6541 23.5306 15.6541H24.9884C25.2277 15.6541 25.4158 15.8828 25.4158 16.1221V16.6083C25.4158 16.8474 25.2277 17.0271 24.9884 17.0271H23.5306C23.2912 17.0271 23.1033 16.8474 23.1033 16.6083V16.1221ZM27.8287 18.1286L27.7523 18.2392L27.77 18.3733C28.0509 20.5211 28.1751 24.2171 27.3122 24.9934C27.2969 25.0071 27.284 25.0171 27.2735 25.0248C27.0895 24.8154 26.8752 23.9014 26.7307 23.2851C26.326 21.5592 25.8224 19.4114 24.2845 19.4114L24.2282 19.413C22.6954 19.419 22.1927 21.5633 21.7885 23.2867C21.644 23.9031 21.4297 24.817 21.2457 25.0263C21.2351 25.0187 21.2223 25.0084 21.207 24.9947C20.3448 24.2188 20.4685 20.5218 20.7492 18.3738L20.7668 18.2381L20.6903 18.1306C20.6815 18.1175 20.2902 17.533 19.9105 16.738H22.3798C22.4392 17.3162 22.9327 17.7498 23.5305 17.7498H24.9883C25.5861 17.7498 26.0796 17.3162 26.139 16.738H28.6075C28.2282 17.533 27.8375 18.1156 27.8287 18.1286Z" fill="white"/>
<path d="M19.1991 14.1284C19.1958 13.8075 19.1506 13.495 19.0496 13.2052C18.9944 13.0468 18.924 12.899 18.8404 12.762C18.756 12.8996 18.6853 13.047 18.6298 13.2061C18.529 13.4954 18.4837 13.8056 18.4805 14.1258C18.4807 14.1373 18.4807 14.1547 18.4808 14.1662C18.4801 14.7724 18.6277 15.4372 18.8341 16.0153H18.838C18.8385 16.0168 18.8391 16.0183 18.8396 16.0197C18.8401 16.0182 18.8406 16.0167 18.8411 16.0153H18.8451C19.0516 15.4372 19.1994 14.7717 19.1989 14.165C19.1988 14.1537 19.1988 14.1396 19.1991 14.1284Z" fill="white"/>
</svg>
