<svg width="60" height="61" viewBox="0 0 60 61" fill="none" xmlns="http://www.w3.org/2000/svg">
<path d="M47.5781 4.39062H33.5156C26.7315 4.39062 21.2109 9.91121 21.2109 16.6953C21.2109 22.8837 25.8029 28.0198 31.7578 28.8747V34.2734C31.7578 34.9841 32.1852 35.6261 32.8427 35.8973C33.4911 36.1679 34.2517 36.0228 34.7585 35.5162L41.2747 29H47.5781C54.3622 29 60 23.4794 60 16.6953C60 9.91121 54.3622 4.39062 47.5781 4.39062ZM33.5156 18.4529C32.5446 18.4529 31.7578 17.6659 31.7578 16.6951C31.7578 15.7243 32.5446 14.9373 33.5156 14.9373C34.4864 14.9373 35.2734 15.7243 35.2734 16.6951C35.2734 17.6659 34.4864 18.4529 33.5156 18.4529ZM40.5469 18.4529C39.5759 18.4529 38.7891 17.6659 38.7891 16.6951C38.7891 15.7243 39.5759 14.9373 40.5469 14.9373C41.5177 14.9373 42.3047 15.7243 42.3047 16.6951C42.3047 17.6659 41.5177 18.4529 40.5469 18.4529ZM47.5781 18.4529C46.6071 18.4529 45.8203 17.6659 45.8203 16.6951C45.8203 15.7243 46.6071 14.9373 47.5781 14.9373C48.5489 14.9373 49.3359 15.7243 49.3359 16.6951C49.3359 17.6659 48.5489 18.4529 47.5781 18.4529Z" fill="#5E5EEE"/>
<path d="M39.4922 57.125C42.4001 57.125 44.7656 54.7595 44.7656 51.8516V44.8203C44.7656 44.0633 44.2815 43.392 43.564 43.1534L33.0418 39.6378C32.5268 39.4645 31.9638 39.5434 31.5107 39.8421L27.0371 42.8238C22.2993 40.5648 16.6774 34.9428 14.4183 30.2049L17.4 25.7314C17.7004 25.2799 17.7759 24.7152 17.6043 24.2002L14.0886 13.6781C13.8502 12.9607 13.1789 12.4766 12.4219 12.4766H5.27344C2.36555 12.4766 0 14.8174 0 17.7253C0 37.9779 19.2396 57.125 39.4922 57.125Z" fill="#5E5EEE"/>
</svg>
