<svg width="36" height="36" viewBox="0 0 36 36" fill="none" xmlns="http://www.w3.org/2000/svg">
<g clip-path="url(#clip0_84_423)">
<path d="M25.3743 27.4396C25.3048 27.3987 25.2305 27.3573 25.1559 27.318C24.0165 26.7069 22.7594 26.1192 21.2149 25.4757L20.8012 24.375C22.2727 23.3661 23.3615 21.7445 23.75 19.7975C24.5313 19.5293 25.0848 18.7525 25.0848 17.8582C25.0848 17.2828 24.8575 16.7627 24.493 16.3911V12.7892C24.493 11.6162 23.5387 10.6618 22.3657 10.6618H22.2458V10.3814C22.2458 9.0656 20.777 8.21548 18.5039 8.21548C16.5619 8.21548 14.4744 8.82442 12.9197 9.84448C10.9474 11.1385 9.90501 12.9779 9.90501 15.1642V16.455C9.5758 16.8212 9.37318 17.3151 9.37318 17.8583C9.37318 18.7526 9.92675 19.5294 10.708 19.7976C11.0965 21.7446 12.1853 23.3662 13.6569 24.3751L13.2431 25.4758C11.6987 26.1193 10.4416 26.707 9.30482 27.3167C9.22757 27.3575 9.15327 27.3988 9.08375 27.4396C7.70179 28.2254 6.90937 29.5891 6.90937 31.1815V35.2254C6.90937 35.4893 7.12327 35.7031 7.38707 35.7031H27.0711C27.3349 35.7031 27.5488 35.4892 27.5488 35.2254V31.1815C27.5487 29.589 26.7563 28.2254 25.3743 27.4396ZM11.5953 19.3329C11.5624 19.1243 11.3965 18.9622 11.1872 18.934C10.6977 18.868 10.3285 18.4055 10.3285 17.8583C10.3285 17.2589 10.7692 16.7714 11.311 16.7714C11.5102 16.7714 11.7026 16.8375 11.8675 16.9625C12.0121 17.0721 12.2062 17.0904 12.3686 17.0096C12.5311 16.929 12.6338 16.7632 12.6338 16.5818V15.8643C12.6338 14.9454 13.3516 14.2055 14.2683 14.1797L17.0049 14.1004C17.0235 14.0999 17.042 14.0982 17.0604 14.0955L20.0929 13.6507C20.354 13.6124 20.5345 13.3697 20.4962 13.1086C20.4579 12.8476 20.2153 12.6675 19.9543 12.7053L16.9494 13.1462L14.2411 13.2246C12.808 13.2649 11.6847 14.4182 11.6785 15.8525C11.5584 15.8283 11.4354 15.8159 11.311 15.8159C11.1558 15.8159 11.0051 15.8358 10.8603 15.8723V15.1642C10.8603 12.8285 12.2652 11.4165 13.4437 10.6433C14.849 9.7213 16.7406 9.17087 18.5039 9.17087C20.1445 9.17087 21.2903 9.66873 21.2903 10.3815V11.1396C21.2903 11.4035 21.5042 11.6173 21.768 11.6173H22.3656C23.0119 11.6173 23.5377 12.1431 23.5377 12.7893V15.8576C23.4115 15.8303 23.2808 15.8159 23.147 15.8159C22.9679 15.8159 22.7921 15.8414 22.6232 15.8912L22.2105 14.2218C22.1472 13.9656 21.8882 13.8093 21.6321 13.8727C21.376 13.936 21.2197 14.1949 21.283 14.451L21.838 16.6964C21.8766 16.8525 21.991 16.9786 22.1425 17.0321C22.294 17.0859 22.4622 17.0597 22.5903 16.9625C22.7553 16.8375 22.9477 16.7714 23.1469 16.7714C23.6886 16.7714 24.1294 17.2589 24.1294 17.8583C24.1294 18.4055 23.7602 18.868 23.2706 18.934C23.0615 18.9622 22.8956 19.1244 22.8626 19.3329C22.3865 22.3491 20.0171 24.5382 17.2289 24.5382C14.4407 24.5382 12.0714 22.3491 11.5953 19.3329ZM20.2896 25.7293L17.229 28.8635L14.1684 25.7293L14.4943 24.8624C15.3319 25.2688 16.2583 25.4936 17.229 25.4936C18.1997 25.4936 19.1261 25.2688 19.9637 24.8624L20.2896 25.7293ZM11.9241 30.5432C12.275 30.5432 12.5604 30.8287 12.5604 31.1795C12.5604 31.5303 12.275 31.8157 11.9241 31.8157C11.5743 31.8157 11.2897 31.5304 11.2897 31.1795C11.2897 30.8286 11.5743 30.5432 11.9241 30.5432ZM26.5933 34.7477H7.86469V31.1814C7.86469 29.9412 8.48212 28.8795 9.55871 28.2685C9.56089 28.2673 9.56308 28.266 9.56527 28.2647C9.6231 28.2307 9.68565 28.1958 9.75374 28.1599C10.2848 27.8751 10.8432 27.5952 11.4465 27.3116V29.6614C10.8026 29.865 10.3344 30.4685 10.3344 31.1796C10.3344 32.0572 11.0475 32.7713 11.9241 32.7713C12.8017 32.7713 13.5158 32.0572 13.5158 31.1796C13.5158 30.4682 13.0467 29.8645 12.4018 29.6612V26.876C12.7496 26.7221 13.1127 26.5659 13.4941 26.4062L16.8872 29.881C16.9771 29.9731 17.1003 30.025 17.229 30.025C17.3578 30.025 17.4809 29.9731 17.5708 29.881L20.964 26.4062C21.3447 26.5656 21.7071 26.7215 22.0544 26.8752V29.2183C21.2399 29.402 20.5324 30.0585 20.5324 31.1524V32.3632C20.5324 32.627 20.7463 32.8409 21.0101 32.8409C21.2739 32.8409 21.4878 32.627 21.4878 32.3632V31.1524C21.4878 30.3376 22.1448 30.1202 22.5331 30.1202C22.8117 30.1202 23.0781 30.2143 23.2644 30.3784C23.4728 30.562 23.5784 30.8225 23.5784 31.1525V32.3632C23.5784 32.6271 23.7923 32.8409 24.0561 32.8409C24.3199 32.8409 24.5338 32.627 24.5338 32.3632V31.1525C24.5338 30.0577 23.8252 29.401 23.0099 29.2179V27.3109C23.6143 27.595 24.1743 27.8756 24.7071 28.1615C24.7726 28.196 24.8351 28.2309 24.8929 28.2649C24.8951 28.2662 24.8973 28.2675 24.8994 28.2687C25.976 28.8798 26.5935 29.9415 26.5935 31.1816V34.7477H26.5933ZM17.229 22.6991C16.5581 22.6991 15.9319 22.3702 15.4179 21.7481C15.2499 21.5447 15.2785 21.2436 15.482 21.0756C15.6853 20.9077 15.9864 20.9361 16.1545 21.1397C16.3821 21.4153 16.7533 21.7437 17.229 21.7437C17.7047 21.7437 18.0758 21.4153 18.3034 21.1397C18.4715 20.9363 18.7725 20.9076 18.976 21.0756C19.1794 21.2436 19.208 21.5447 19.04 21.7481C18.5262 22.3702 17.8999 22.6991 17.229 22.6991ZM15.4846 18.9374C15.2208 18.9374 15.0069 18.7235 15.0069 18.4597C15.0069 18.2049 14.7995 17.9976 14.5446 17.9976C14.2887 17.9976 14.0805 18.2049 14.0805 18.4597C14.0805 18.7236 13.8666 18.9374 13.6028 18.9374C13.339 18.9374 13.1251 18.7235 13.1251 18.4597C13.1251 17.6781 13.7619 17.0421 14.5446 17.0421C15.3263 17.0421 15.9622 17.6781 15.9622 18.4597C15.9623 18.7236 15.7484 18.9374 15.4846 18.9374ZM18.4957 18.4597C18.4957 17.6781 19.1317 17.0421 19.9133 17.0421C20.6949 17.0421 21.3309 17.6781 21.3309 18.4597C21.3309 18.7236 21.117 18.9374 20.8532 18.9374C20.5894 18.9374 20.3755 18.7235 20.3755 18.4597C20.3755 18.2049 20.1681 17.9976 19.9132 17.9976C19.6583 17.9976 19.451 18.2049 19.451 18.4597C19.451 18.7236 19.2371 18.9374 18.9733 18.9374C18.7096 18.9374 18.4957 18.7236 18.4957 18.4597ZM14.2092 3.78969L15.6463 5.00464L15.1985 6.83106C15.1523 7.01946 15.2247 7.21723 15.3817 7.33132C15.5387 7.44541 15.7491 7.4532 15.9141 7.35087L17.5133 6.35986L19.1125 7.3508C19.1898 7.39872 19.277 7.42251 19.364 7.42251C19.4628 7.42251 19.5613 7.39195 19.6449 7.33132C19.8019 7.21723 19.8743 7.01953 19.8281 6.83106L19.3802 5.00457L20.8157 3.78962C20.9638 3.66432 21.0213 3.46184 20.9614 3.27733C20.9014 3.09276 20.7358 2.96295 20.5423 2.94859L18.6674 2.80989L17.9555 1.06844C17.8821 0.888857 17.7073 0.771484 17.5133 0.771484C17.3193 0.771484 17.1445 0.888857 17.0711 1.06844L16.3592 2.80982L14.4824 2.94853C14.2888 2.96288 14.1232 3.09276 14.0632 3.27733C14.0033 3.46197 14.0609 3.66445 14.2092 3.78969ZM16.7246 3.74081C16.9054 3.72748 17.063 3.61298 17.1316 3.44516L17.5133 2.5115L17.895 3.44516C17.9636 3.61291 18.1212 3.72741 18.3019 3.74081L19.3066 3.81512L18.5372 4.46631C18.3989 4.58348 18.3386 4.76873 18.3819 4.94469L18.6217 5.92277L17.7649 5.39189C17.6878 5.34411 17.6006 5.32019 17.5133 5.32019C17.426 5.32019 17.3388 5.34411 17.2616 5.39189L16.4049 5.92277L16.6447 4.94469C16.6879 4.76859 16.6276 4.5832 16.4891 4.46617L15.719 3.81512L16.7246 3.74081ZM7.737 15.4331C7.83578 15.4331 7.93442 15.4024 8.01789 15.3417C8.17477 15.2277 8.24716 15.0301 8.20095 14.8416L7.83817 13.3614L9.00076 12.3786C9.14896 12.2533 9.20666 12.0508 9.14664 11.8661C9.08669 11.6816 8.92091 11.5516 8.72739 11.5374L7.20851 11.4256L6.63197 10.015C6.55855 9.83546 6.38382 9.71809 6.18982 9.71809C5.99582 9.71809 5.82102 9.83546 5.74767 10.015L5.17113 11.4256L3.6541 11.5374C3.46057 11.5517 3.29487 11.6816 3.23485 11.8661C3.17483 12.0508 3.23253 12.2533 3.38073 12.3786L4.54332 13.3614L4.18053 14.8416C4.13432 15.0301 4.20678 15.2278 4.36374 15.3419C4.52076 15.4559 4.73117 15.4636 4.89612 15.3615L6.18996 14.56L7.48564 15.3616C7.56289 15.4093 7.64998 15.4331 7.737 15.4331ZM6.83985 13.3014L6.99496 13.9344L6.44118 13.5917C6.36414 13.5441 6.27698 13.5202 6.18982 13.5202C6.10259 13.5202 6.0153 13.5442 5.93826 13.5919L5.38687 13.9335L5.54177 13.3013C5.58498 13.1253 5.52468 12.9399 5.38626 12.8228L4.89099 12.4041L5.53644 12.3566C5.71725 12.3432 5.87496 12.2287 5.94352 12.0609L6.18982 11.4582L6.43619 12.0609C6.50475 12.2287 6.66246 12.3433 6.84334 12.3566L7.49056 12.4042L6.99537 12.8228C6.85694 12.94 6.79665 13.1253 6.83985 13.3014ZM7.4518 6.79128L8.61439 7.77415L8.25161 9.25434C8.2054 9.44287 8.27786 9.64057 8.43488 9.75459C8.51835 9.81522 8.61685 9.84578 8.71556 9.84578C8.80265 9.84578 8.88995 9.82199 8.96726 9.774L10.2625 8.97085L11.556 9.77387C11.721 9.87627 11.9315 9.86861 12.0886 9.75466C12.2456 9.64057 12.3182 9.44287 12.272 9.25427L11.9092 7.77408L13.0718 6.79121C13.22 6.66598 13.2777 6.46343 13.2176 6.27886C13.1577 6.09422 12.992 5.96434 12.7984 5.95005L11.2814 5.83828L10.7048 4.42769C10.6314 4.24811 10.4567 4.13073 10.2627 4.13073C10.0687 4.13073 9.89387 4.24811 9.82052 4.42769L9.24398 5.83828L7.7251 5.95005C7.53158 5.96427 7.36581 6.09422 7.30586 6.27879C7.2459 6.4635 7.3036 6.66604 7.4518 6.79128ZM9.60936 6.7694C9.79017 6.75614 9.94788 6.64164 10.0165 6.47375L10.2628 5.87109L10.5091 6.47375C10.5777 6.6415 10.7354 6.75607 10.9162 6.7694L11.5616 6.81698L11.0664 7.23562C10.928 7.35265 10.8677 7.53804 10.9109 7.71413L11.0655 8.34481L10.5148 8.00295C10.3606 7.90718 10.1654 7.90704 10.0111 8.00281L9.45801 8.34577L9.61278 7.71413C9.65598 7.53804 9.59569 7.35265 9.45726 7.23562L8.96213 6.81705L9.60936 6.7694ZM31.7916 11.8661C31.7317 11.6815 31.5659 11.5516 31.3724 11.5373L29.8535 11.4256L29.277 10.015C29.2036 9.83539 29.0288 9.71802 28.8348 9.71802C28.8348 9.71802 28.8347 9.71802 28.8346 9.71802C28.6405 9.71815 28.4657 9.83566 28.3925 10.0154L27.8178 11.4256L26.2992 11.5373C26.1056 11.5516 25.9399 11.6815 25.8799 11.8661C25.8199 12.0507 25.8776 12.2532 26.0258 12.3785L27.1884 13.3614L26.8256 14.8416C26.7794 15.03 26.8518 15.2277 27.0088 15.3418C27.1658 15.4558 27.3761 15.4635 27.5412 15.3614L28.835 14.5598L30.1307 15.3616C30.208 15.4093 30.295 15.4331 30.382 15.4331C30.4808 15.4331 30.5794 15.4024 30.6629 15.3417C30.8198 15.2277 30.8922 15.0301 30.846 14.8416L30.4832 13.3614L31.6458 12.3786C31.794 12.2532 31.8517 12.0507 31.7916 11.8661ZM29.6404 12.8229C29.5019 12.9399 29.4416 13.1253 29.4849 13.3014L29.64 13.9344L29.0862 13.5917C29.0092 13.5441 28.9221 13.5202 28.8349 13.5202C28.7477 13.5202 28.6604 13.5442 28.5833 13.5919L28.0319 13.9335L28.1868 13.3013C28.23 13.1253 28.1697 12.9399 28.0313 12.8228L27.5361 12.4042L28.1834 12.3566C28.3644 12.3432 28.5221 12.2285 28.5907 12.0605L28.8355 11.4598L29.0812 12.0609C29.1498 12.2287 29.3075 12.3433 29.4883 12.3566L30.1356 12.4042L29.6404 12.8229ZM21.9528 6.79128L23.1154 7.77415L22.7527 9.25434C22.7065 9.44287 22.7789 9.64057 22.936 9.75459C23.093 9.86875 23.3035 9.87641 23.4683 9.77407L24.7636 8.97092L26.057 9.77394C26.1344 9.82199 26.2218 9.84585 26.3089 9.84585C26.4077 9.84585 26.5062 9.81529 26.5896 9.75479C26.7466 9.6407 26.8192 9.44301 26.773 9.2544L26.4102 7.77422L27.5728 6.79135C27.721 6.66611 27.7787 6.46356 27.7187 6.27899C27.6588 6.09436 27.4931 5.96447 27.2995 5.95019L25.7824 5.83842L25.2059 4.42782C25.1325 4.24824 24.9578 4.13087 24.7637 4.13087C24.5697 4.13087 24.3949 4.24824 24.3216 4.42782L23.7451 5.83842L22.2261 5.95019C22.0325 5.9644 21.8668 6.09436 21.8069 6.27893C21.7469 6.4635 21.8045 6.66604 21.9528 6.79128ZM24.1104 6.7694C24.2912 6.75614 24.4489 6.64164 24.5175 6.47375L24.7638 5.87109L25.0101 6.47375C25.0787 6.6415 25.2364 6.75607 25.4172 6.7694L26.0626 6.81698L25.5674 7.23562C25.4289 7.35265 25.3687 7.53804 25.4118 7.71413L25.5664 8.34481L25.0156 8.00295C24.8614 7.90718 24.6663 7.90704 24.512 8.00281L23.9589 8.34577L24.1136 7.71413C24.1569 7.53804 24.0966 7.35265 23.9581 7.23562L23.463 6.81705L24.1104 6.7694Z" fill="white"/>
</g>
<defs>
<clipPath id="clip0_84_423">
<rect width="35" height="35" fill="white" transform="translate(0.0131836 0.737305)"/>
</clipPath>
</defs>
</svg>
