<svg width="36" height="37" viewBox="0 0 36 37" fill="none" xmlns="http://www.w3.org/2000/svg">
<g clip-path="url(#clip0_177_71527)">
<path d="M11.816 14.0725C12.8535 14.0723 13.8677 13.7645 14.7302 13.1879C15.5928 12.6113 16.265 11.7919 16.6619 10.8333C17.0588 9.87466 17.1625 8.81987 16.9599 7.80231C16.7573 6.78475 16.2575 5.85012 15.5237 5.11661C14.7899 4.3831 13.8551 3.88365 12.8375 3.68142C11.8198 3.4792 10.7651 3.58328 9.8066 3.9805C8.84811 4.37772 8.02894 5.05025 7.45268 5.91303C6.87642 6.77582 6.56894 7.79011 6.56913 8.82764C6.57072 10.2185 7.12408 11.552 8.10776 12.5353C9.09144 13.5186 10.4251 14.0715 11.816 14.0725ZM11.816 4.54589C12.6626 4.54601 13.4901 4.79716 14.194 5.26758C14.8979 5.73801 15.4465 6.40658 15.7704 7.18876C16.0943 7.97094 16.179 8.83161 16.0138 9.66194C15.8487 10.4923 15.441 11.255 14.8423 11.8536C14.2437 12.4523 13.481 12.86 12.6507 13.0252C11.8203 13.1904 10.9597 13.1057 10.1775 12.7817C9.3953 12.4578 8.72672 11.9093 8.25628 11.2054C7.78585 10.5015 7.53468 9.67397 7.53455 8.82737C7.53564 7.69222 7.98708 6.60388 8.78977 5.80123C9.59245 4.99858 10.6808 4.5472 11.816 4.54616V4.54589ZM10.5243 10.1171V11.2485C10.5243 11.5908 10.6603 11.9191 10.9023 12.1612C11.1444 12.4033 11.4727 12.5392 11.815 12.5392C12.1573 12.5392 12.4856 12.4033 12.7277 12.1612C12.9697 11.9191 13.1057 11.5908 13.1057 11.2485V10.1174H14.2371C14.5792 10.1174 14.9072 9.98151 15.1491 9.73963C15.391 9.49776 15.5269 9.1697 15.5269 8.82764C15.5269 8.48558 15.391 8.15753 15.1491 7.91565C14.9072 7.67377 14.5792 7.53789 14.2371 7.53789H13.1057V6.40455C13.1057 6.06223 12.9697 5.73393 12.7277 5.49187C12.4856 5.24982 12.1573 5.11383 11.815 5.11383C11.4727 5.11383 11.1444 5.24982 10.9023 5.49187C10.6603 5.73393 10.5243 6.06223 10.5243 6.40455V7.53789H9.39286C9.0508 7.53789 8.72275 7.67377 8.48087 7.91565C8.239 8.15753 8.10311 8.48558 8.10311 8.82764C8.10311 9.1697 8.239 9.49776 8.48087 9.73963C8.72275 9.98151 9.0508 10.1174 9.39286 10.1174L10.5243 10.1171ZM9.06853 8.82737C9.06964 8.74174 9.10411 8.65993 9.16462 8.59935C9.22513 8.53876 9.3069 8.50418 9.39252 8.50296H11.0066C11.1346 8.50296 11.2573 8.45212 11.3478 8.36163C11.4383 8.27114 11.4891 8.1484 11.4891 8.02043V6.40455C11.4904 6.31909 11.5252 6.23754 11.5861 6.17755C11.647 6.11755 11.729 6.08392 11.8145 6.08392C11.8999 6.08392 11.982 6.11755 12.0429 6.17755C12.1037 6.23754 12.1386 6.31909 12.1398 6.40455V8.02056C12.1398 8.14854 12.1906 8.27128 12.2811 8.36177C12.3716 8.45226 12.4944 8.5031 12.6223 8.5031H14.2364C14.3216 8.50434 14.4029 8.53906 14.4628 8.59976C14.5226 8.66046 14.5561 8.74225 14.5561 8.82747C14.5561 8.91269 14.5226 8.99448 14.4628 9.05518C14.4029 9.11587 14.3216 9.1506 14.2364 9.15184H12.623C12.4951 9.15184 12.3723 9.20268 12.2818 9.29317C12.1913 9.38366 12.1405 9.5064 12.1405 9.63437V11.2485C12.1411 11.2917 12.1332 11.3345 12.1171 11.3745C12.101 11.4145 12.0772 11.4509 12.0469 11.4817C12.0166 11.5124 11.9806 11.5368 11.9408 11.5534C11.901 11.5701 11.8583 11.5786 11.8152 11.5786C11.772 11.5786 11.7293 11.5701 11.6896 11.5534C11.6498 11.5368 11.6137 11.5124 11.5834 11.4817C11.5532 11.4509 11.5293 11.4145 11.5132 11.3745C11.4972 11.3345 11.4892 11.2917 11.4898 11.2485V9.63465C11.4898 9.50667 11.439 9.38394 11.3485 9.29345C11.258 9.20295 11.1353 9.15211 11.0073 9.15211H9.39286C9.30717 9.15101 9.22529 9.11646 9.1647 9.05584C9.10411 8.99523 9.0696 8.91334 9.06853 8.82764V8.82737ZM28.8117 18.1272C28.6084 17.459 28.0626 17.0757 27.3141 17.0757H27.2028C27.0967 17.0757 26.9936 17.1106 26.9094 17.1751C26.8252 17.2396 26.7645 17.33 26.7369 17.4324L25.453 22.1829C25.4336 22.2545 25.431 22.3296 25.4453 22.4023C25.4596 22.4751 25.4905 22.5435 25.5356 22.6024C25.5807 22.6613 25.6387 22.709 25.7052 22.7418C25.7716 22.7746 25.8448 22.7917 25.9189 22.7916H29.5908C29.6663 22.7917 29.7408 22.774 29.8082 22.74C29.8756 22.706 29.9342 22.6566 29.9791 22.5959C30.0239 22.5351 30.0539 22.4647 30.0666 22.3903C30.0794 22.3158 30.0744 22.2394 30.0522 22.1672L28.8117 18.1272ZM26.5494 21.8264L27.5643 18.071C27.6445 18.0916 27.7174 18.1341 27.7747 18.194C27.8319 18.2538 27.8713 18.3285 27.8883 18.4095L28.9375 21.8264H26.5494ZM35.3899 25.9555C35.6254 24.8801 35.4286 23.8365 34.8379 23.0649C34.2683 22.3204 33.4011 21.8881 32.3784 21.8324L30.9179 17.075C30.5141 15.7576 29.3794 14.9712 27.8828 14.9712H26.2773L26.3664 12.398C26.376 12.1071 26.2932 11.8625 26.127 11.6906C26.0535 11.616 25.9657 11.557 25.8689 11.5173C25.772 11.4776 25.6681 11.458 25.5634 11.4595H23.2128C22.8152 11.4595 22.4551 11.7151 22.2242 12.1623L20.7889 14.9712H3.57147C3.4435 14.9712 3.32076 15.022 3.23027 15.1125C3.13977 15.203 3.08893 15.3257 3.08893 15.4537C3.08893 15.5817 3.13977 15.7044 3.23027 15.7949C3.32076 15.8854 3.4435 15.9362 3.57147 15.9362H25.0365C24.2144 18.982 23.2902 22.4006 22.4032 25.6815H0.675286C0.547309 25.6815 0.424574 25.7323 0.334081 25.8228C0.243588 25.9133 0.192749 26.036 0.192749 26.164C0.192749 26.292 0.243588 26.4147 0.334081 26.5052C0.424574 26.5957 0.547309 26.6466 0.675286 26.6466H4.71943L3.93007 29.5693C3.81033 30.014 3.88629 30.4575 4.13831 30.7864C4.26562 30.9467 4.42834 31.0754 4.61372 31.1624C4.7991 31.2493 5.00209 31.2921 5.20679 31.2875H7.824C7.80228 31.7585 7.94401 32.2225 8.22519 32.601C8.60523 33.0973 9.19606 33.3706 9.88898 33.3706C11.1401 33.3706 12.3836 32.4797 12.8687 31.2875H24.5999C24.5779 31.7578 24.7192 32.2212 24.9998 32.5993C25.3799 33.0967 25.9717 33.3706 26.6655 33.3706C27.9167 33.3706 29.1601 32.4797 29.6453 31.2875H33.585C33.6911 31.2875 33.7942 31.2525 33.8784 31.188C33.9626 31.1235 34.0233 31.0331 34.0509 30.9307L35.3387 26.1647C35.3507 26.1207 35.3604 26.0767 35.3709 26.0327C35.3794 26.0075 35.3857 25.9817 35.3899 25.9555ZM23.0824 12.6037C23.1138 12.5333 23.1624 12.4719 23.2237 12.4252H25.3994L25.3113 14.9714H21.8724L23.0824 12.6037ZM4.90451 30.2001C4.83558 30.1105 4.82055 29.9757 4.86212 29.8216L5.71938 26.6474H22.1424L21.1486 30.3231H13.0747C13.0904 29.8606 12.9485 29.4064 12.6722 29.0352C12.292 28.5389 11.7013 28.2653 11.0089 28.2653C9.76738 28.2653 8.53285 29.1433 8.0399 30.3231H5.20706C5.1506 30.327 5.09398 30.318 5.04154 30.2966C4.9891 30.2753 4.94223 30.2423 4.90451 30.2001ZM9.88926 32.406C9.50371 32.406 9.18503 32.2671 8.99188 32.0148C8.78397 31.7433 8.73165 31.3633 8.84463 30.945C9.09562 30.0156 10.0868 29.2305 11.0092 29.2305C11.3942 29.2305 11.7123 29.3695 11.9059 29.6219C12.1144 29.894 12.1668 30.2745 12.0537 30.6933C11.8027 31.6219 10.8116 32.4062 9.88926 32.4062V32.406ZM26.6654 32.406C26.2794 32.406 25.9599 32.2667 25.7666 32.0138C25.5591 31.7423 25.5072 31.3631 25.6209 30.9453C25.8718 30.016 26.863 29.2309 27.7854 29.2309C28.1705 29.2309 28.4886 29.3699 28.6822 29.6222C28.8907 29.8944 28.9431 30.2749 28.83 30.6937C28.5789 31.6218 27.5878 32.4062 26.6654 32.4062V32.406ZM33.2154 30.3229H29.851C29.8666 29.8603 29.7247 29.4062 29.4484 29.035C29.0682 28.5386 28.4775 28.2651 27.7852 28.2651C26.5434 28.2651 25.3087 29.1434 24.8161 30.3229H22.1487L23.1518 26.612C24.1184 23.0372 25.1411 19.254 26.0365 15.9366H27.8828C28.9638 15.9366 29.7139 16.4414 29.995 17.3581L31.5583 22.4506C31.5886 22.5494 31.6498 22.6358 31.7328 22.6972C31.8159 22.7586 31.9165 22.7917 32.0198 22.7917H32.1507C32.9647 22.7917 33.6466 23.0971 34.0714 23.6517C34.4316 24.1223 34.5795 24.7291 34.5057 25.3965H31.7911C31.6851 25.3965 31.582 25.4314 31.4978 25.4958C31.4136 25.5603 31.353 25.6506 31.3253 25.753L30.6726 28.1624C30.6532 28.234 30.6505 28.3091 30.6648 28.3818C30.6791 28.4546 30.71 28.5231 30.755 28.582C30.8001 28.6409 30.8581 28.6886 30.9246 28.7215C30.9911 28.7543 31.0643 28.7714 31.1385 28.7714H33.6346L33.2154 30.3229ZM33.8955 27.806H31.7693L32.1605 26.3619H34.2857L33.8955 27.806ZM10.9326 30.8057V30.8333C10.9326 30.9613 10.8818 31.084 10.7913 31.1745C10.7008 31.265 10.5781 31.3159 10.4501 31.3159C10.3221 31.3159 10.1994 31.265 10.1089 31.1745C10.0184 31.084 9.96757 30.9613 9.96757 30.8333V30.8057C9.96757 30.6778 10.0184 30.555 10.1089 30.4645C10.1994 30.374 10.3221 30.3232 10.4501 30.3232C10.5781 30.3232 10.7008 30.374 10.7913 30.4645C10.8818 30.555 10.9326 30.6778 10.9326 30.8057ZM27.7069 30.8057V30.8333C27.7069 30.9613 27.6561 31.084 27.5656 31.1745C27.4751 31.265 27.3524 31.3159 27.2244 31.3159C27.0964 31.3159 26.9737 31.265 26.8832 31.1745C26.7927 31.084 26.7419 30.9613 26.7419 30.8333V30.8057C26.7419 30.6778 26.7927 30.555 26.8832 30.4645C26.9737 30.374 27.0964 30.3232 27.2244 30.3232C27.3524 30.3232 27.4751 30.374 27.5656 30.4645C27.6561 30.555 27.7069 30.6778 27.7069 30.8057ZM9.17793 24.2555H20.2382C20.4414 24.2496 20.6374 24.1793 20.7981 24.0548C20.9587 23.9303 21.0757 23.758 21.1322 23.5627L22.5537 18.3067C22.5854 18.1943 22.5907 18.0761 22.5691 17.9613C22.5476 17.8465 22.4999 17.7383 22.4296 17.645C22.3598 17.5558 22.2702 17.4839 22.168 17.435C22.0658 17.3861 21.9537 17.3615 21.8404 17.363H10.7803C10.5766 17.3681 10.3799 17.4383 10.2191 17.5633C10.0582 17.6883 9.94163 17.8616 9.88643 18.0577L8.46522 23.3124C8.43336 23.4244 8.42785 23.5422 8.44911 23.6568C8.47037 23.7713 8.51784 23.8793 8.58779 23.9724C8.65763 24.0619 8.74725 24.1341 8.84964 24.1832C8.95202 24.2323 9.06438 24.2571 9.17793 24.2555ZM20.2059 23.2904H15.3401L16.6783 18.3287H21.5478L20.2059 23.2904ZM10.8132 18.3287H15.6785L14.3403 23.2902H9.47124L10.8132 18.3287ZM14.7335 28.4842C14.7335 28.3562 14.7844 28.2335 14.8748 28.143C14.9653 28.0525 15.0881 28.0017 15.2161 28.0017H19.5718C19.6997 28.0017 19.8225 28.0525 19.913 28.143C20.0035 28.2335 20.0543 28.3562 20.0543 28.4842C20.0543 28.6122 20.0035 28.7349 19.913 28.8254C19.8225 28.9159 19.6997 28.9667 19.5718 28.9667H15.2162C15.1528 28.9667 15.09 28.9543 15.0315 28.93C14.9729 28.9058 14.9197 28.8703 14.8749 28.8254C14.8301 28.7806 14.7945 28.7274 14.7703 28.6689C14.746 28.6103 14.7335 28.5476 14.7335 28.4842ZM0.917726 23.4877C0.917726 23.3597 0.968565 23.2369 1.05906 23.1465C1.14955 23.056 1.27229 23.0051 1.40026 23.0051H5.8851C6.01307 23.0051 6.13581 23.056 6.2263 23.1465C6.3168 23.2369 6.36763 23.3597 6.36763 23.4877C6.36763 23.6156 6.3168 23.7384 6.2263 23.8289C6.13581 23.9194 6.01307 23.9702 5.8851 23.9702H1.4004C1.33702 23.9702 1.27426 23.9577 1.2157 23.9335C1.15714 23.9093 1.10393 23.8737 1.05911 23.8289C1.01428 23.7841 0.978729 23.7309 0.95447 23.6723C0.930212 23.6138 0.917726 23.551 0.917726 23.4877ZM1.64077 20.8105C1.64077 20.6825 1.69161 20.5598 1.7821 20.4693C1.8726 20.3788 1.99533 20.3279 2.12331 20.3279H6.79778C6.92576 20.3279 7.04849 20.3788 7.13899 20.4693C7.22948 20.5598 7.28032 20.6825 7.28032 20.8105C7.28032 20.9385 7.22948 21.0612 7.13899 21.1517C7.04849 21.2422 6.92576 21.293 6.79778 21.293H2.12345C2.06006 21.293 1.99728 21.2806 1.93871 21.2563C1.88015 21.2321 1.82693 21.1965 1.7821 21.1517C1.73728 21.1069 1.70173 21.0536 1.67748 20.9951C1.65323 20.9365 1.64075 20.8737 1.64077 20.8103V20.8105ZM2.36416 18.1332C2.36416 18.0052 2.415 17.8825 2.5055 17.792C2.59599 17.7015 2.71872 17.6507 2.8467 17.6507H7.52097C7.58433 17.6507 7.64708 17.6632 7.70563 17.6874C7.76417 17.7117 7.81736 17.7472 7.86217 17.792C7.90698 17.8368 7.94252 17.89 7.96677 17.9486C7.99102 18.0071 8.0035 18.0699 8.0035 18.1332C8.0035 18.1966 7.99102 18.2593 7.96677 18.3179C7.94252 18.3764 7.90698 18.4296 7.86217 18.4744C7.81736 18.5192 7.76417 18.5548 7.70563 18.579C7.64708 18.6033 7.58433 18.6158 7.52097 18.6158H2.8467C2.71872 18.6158 2.59599 18.5649 2.5055 18.4744C2.415 18.3839 2.36416 18.2612 2.36416 18.1332ZM26.5121 9.68414L28.2377 7.64798C28.2786 7.59962 28.3287 7.5598 28.3851 7.53081C28.4415 7.50181 28.503 7.4842 28.5661 7.47898C28.6293 7.47376 28.6929 7.48103 28.7533 7.50038C28.8136 7.51974 28.8696 7.55079 28.9179 7.59176C28.9663 7.63274 29.0061 7.68284 29.0351 7.7392C29.0641 7.79556 29.0817 7.85709 29.0869 7.92026C29.0921 7.98343 29.0849 8.047 29.0655 8.10736C29.0462 8.16772 29.0151 8.22368 28.9741 8.27204L27.2486 10.3082C27.2076 10.3566 27.1575 10.3964 27.1011 10.4254C27.0448 10.4544 26.9833 10.472 26.9201 10.4772C26.7925 10.4877 26.666 10.4472 26.5683 10.3644C26.4706 10.2817 26.4099 10.1635 26.3993 10.0359C26.3888 9.90835 26.4293 9.78181 26.5121 9.68414ZM27.8977 10.9753L30.2504 9.79892C30.365 9.74168 30.4975 9.73226 30.6189 9.77275C30.7404 9.81324 30.8408 9.90032 30.898 10.0148C30.9553 10.1293 30.9647 10.2619 30.9242 10.3833C30.8837 10.5048 30.7966 10.6051 30.6821 10.6624L28.3293 11.8388C28.2148 11.8961 28.0823 11.9055 27.9608 11.865C27.8394 11.8245 27.739 11.7374 27.6818 11.6229C27.6245 11.5084 27.6151 11.3759 27.6556 11.2544C27.6961 11.133 27.7832 11.0326 27.8977 10.9753ZM21.5845 8.37923C21.5659 8.31863 21.5594 8.25497 21.5654 8.19187C21.5714 8.12876 21.5897 8.06746 21.6194 8.01145C21.6491 7.95544 21.6895 7.90583 21.7384 7.86545C21.7873 7.82507 21.8436 7.7947 21.9042 7.77609C21.9648 7.75748 22.0284 7.75098 22.0915 7.75698C22.1546 7.76297 22.216 7.78133 22.272 7.81102C22.328 7.8407 22.3776 7.88113 22.418 7.92999C22.4583 7.97884 22.4887 8.03518 22.5073 8.09577L23.1327 10.132C23.1513 10.1926 23.1578 10.2563 23.1518 10.3194C23.1458 10.3825 23.1274 10.4438 23.0977 10.4998C23.068 10.5558 23.0276 10.6054 22.9788 10.6458C22.9299 10.6861 22.8736 10.7165 22.813 10.7351C22.7524 10.7537 22.6887 10.7602 22.6256 10.7542C22.5625 10.7482 22.5012 10.7298 22.4452 10.7002C22.3892 10.6705 22.3396 10.63 22.2992 10.5812C22.2588 10.5323 22.2285 10.476 22.2099 10.4154L21.5845 8.37923ZM24.4213 9.45404L25.0564 7.1034C25.073 7.04221 25.1014 6.98488 25.1401 6.93468C25.1787 6.88448 25.2269 6.84239 25.2819 6.81081C25.3368 6.77923 25.3975 6.75879 25.4603 6.75065C25.5232 6.7425 25.587 6.74682 25.6482 6.76335C25.7094 6.77988 25.7667 6.8083 25.8169 6.84699C25.8671 6.88567 25.9092 6.93387 25.9408 6.98882C25.9724 7.04377 25.9928 7.10441 26.001 7.16726C26.0091 7.23012 26.0048 7.29396 25.9883 7.35515L25.3532 9.70579C25.3366 9.76698 25.3082 9.82432 25.2695 9.87452C25.2308 9.92473 25.1826 9.96682 25.1277 9.99839C25.0727 10.03 25.0121 10.0504 24.9492 10.0586C24.8864 10.0667 24.8225 10.0624 24.7613 10.0458C24.7001 10.0293 24.6428 10.0009 24.5926 9.96219C24.5424 9.9235 24.5003 9.87529 24.4687 9.82033C24.4371 9.76537 24.4167 9.70473 24.4086 9.64187C24.4004 9.57901 24.4047 9.51516 24.4213 9.45397V9.45404ZM18.7067 10.4409C18.7424 10.3886 18.7882 10.3438 18.8412 10.3091C18.8943 10.2745 18.9537 10.2506 19.016 10.2389C19.0783 10.2272 19.1423 10.2279 19.2043 10.241C19.2663 10.254 19.3252 10.2792 19.3775 10.315L21.0951 11.4894C21.2008 11.5616 21.2735 11.6728 21.2971 11.7986C21.3208 11.9244 21.2935 12.0544 21.2213 12.1601C21.149 12.2657 21.0378 12.3384 20.912 12.362C20.7862 12.3857 20.6562 12.3584 20.5506 12.2862L18.8325 11.1118C18.7801 11.076 18.7354 11.0303 18.7007 10.9772C18.666 10.9241 18.6422 10.8647 18.6305 10.8024C18.6188 10.7401 18.6195 10.6761 18.6325 10.6141C18.6456 10.5521 18.6707 10.4932 18.7065 10.4409H18.7067Z" fill="white"/>
</g>
<defs>
<clipPath id="clip0_177_71527">
<rect width="35.2941" height="35.2941" fill="white" transform="translate(0.192749 0.829102)"/>
</clipPath>
</defs>
</svg>
