<svg width="60" height="60" viewBox="0 0 60 60" fill="none" xmlns="http://www.w3.org/2000/svg">
<path d="M56.3156 42.3637C56.2162 42.2812 44.9738 34.2713 41.9381 34.7719C40.4738 35.0306 39.6375 36.03 37.9594 38.0287C37.6894 38.3512 37.0388 39.1219 36.5363 39.6713C35.4756 39.3257 34.4411 38.9046 33.4406 38.4113C28.276 35.8969 24.1031 31.724 21.5887 26.5594C21.0954 25.5589 20.6743 24.5244 20.3288 23.4637C20.88 22.9594 21.6525 22.3088 21.9825 22.0312C23.9719 20.3625 24.9694 19.5244 25.2281 18.0581C25.7587 15.0225 17.7188 3.78375 17.6363 3.6825C17.2701 3.16323 16.7932 2.73173 16.2401 2.41916C15.6869 2.10658 15.0712 1.92072 14.4375 1.875C11.1787 1.875 1.875 13.9425 1.875 15.9769C1.875 16.095 2.04563 28.1025 16.8525 43.1644C31.8975 57.9544 43.905 58.125 44.0231 58.125C46.0556 58.125 58.125 48.8212 58.125 45.5625C58.0788 44.9287 57.8925 44.313 57.5797 43.7599C57.2668 43.2067 56.8351 42.7299 56.3156 42.3637ZM43.815 54.3637C42.1875 54.225 32.1 52.8956 19.5 40.5188C7.06312 27.8569 5.7675 17.7525 5.63812 16.1869C8.09583 12.3293 11.064 8.82191 14.4619 5.76C14.5369 5.835 14.6363 5.9475 14.7638 6.09375C17.3697 9.65105 19.6145 13.4593 21.465 17.4619C20.8632 18.0673 20.2272 18.6376 19.56 19.17C18.5254 19.9583 17.5753 20.8519 16.725 21.8362C16.5811 22.0381 16.4787 22.2665 16.4237 22.5082C16.3686 22.7499 16.3621 23.0001 16.4044 23.2444C16.8012 24.9632 17.4089 26.6265 18.2137 28.1963C21.0973 34.1175 25.8821 38.9017 31.8037 41.7844C33.3732 42.5904 35.0365 43.1988 36.7556 43.5956C36.9999 43.6379 37.2501 43.6314 37.4918 43.5763C37.7335 43.5213 37.9619 43.4189 38.1638 43.275C39.1516 42.4213 40.0483 41.4674 40.8394 40.4288C41.4281 39.7275 42.2138 38.7919 42.5119 38.5275C46.5247 40.3762 50.3414 42.6237 53.9044 45.2362C54.06 45.3675 54.1706 45.4687 54.2438 45.5344C51.1817 48.9334 47.6736 51.9022 43.815 54.36V54.3637Z" fill="#5E5EEE"/>
<path d="M31.875 16.875C34.8578 16.878 37.7175 18.0642 39.8267 20.1733C41.9358 22.2825 43.122 25.1422 43.125 28.125C43.125 28.6223 43.3225 29.0992 43.6742 29.4508C44.0258 29.8025 44.5027 30 45 30C45.4973 30 45.9742 29.8025 46.3258 29.4508C46.6775 29.0992 46.875 28.6223 46.875 28.125C46.8705 24.1481 45.2887 20.3354 42.4767 17.5233C39.6646 14.7113 35.8519 13.1295 31.875 13.125C31.3777 13.125 30.9008 13.3225 30.5492 13.6742C30.1975 14.0258 30 14.5027 30 15C30 15.4973 30.1975 15.9742 30.5492 16.3258C30.9008 16.6775 31.3777 16.875 31.875 16.875Z" fill="#5E5EEE"/>
<path d="M31.875 7.5C37.3431 7.50645 42.5854 9.68151 46.452 13.548C50.3185 17.4146 52.4935 22.6569 52.5 28.125C52.5 28.6223 52.6975 29.0992 53.0492 29.4508C53.4008 29.8025 53.8777 30 54.375 30C54.8723 30 55.3492 29.8025 55.7008 29.4508C56.0525 29.0992 56.25 28.6223 56.25 28.125C56.2426 21.6626 53.6721 15.4671 49.1025 10.8975C44.5329 6.32791 38.3374 3.75744 31.875 3.75C31.3777 3.75 30.9008 3.94754 30.5492 4.29917C30.1975 4.65081 30 5.12772 30 5.625C30 6.12228 30.1975 6.59919 30.5492 6.95083C30.9008 7.30246 31.3777 7.5 31.875 7.5Z" fill="#5E5EEE"/>
</svg>
