<svg width="61" height="61" viewBox="0 0 61 61" fill="none" xmlns="http://www.w3.org/2000/svg">
<path d="M30.7931 0.202881C14.2931 0.202881 0.793091 13.7029 0.793091 30.2029C0.793091 46.7029 14.2931 60.2029 30.7931 60.2029C47.2931 60.2029 60.7931 46.7029 60.7931 30.2029C60.7931 13.7029 47.2931 0.202881 30.7931 0.202881ZM30.7931 54.2029C17.5931 54.2029 6.79309 43.4029 6.79309 30.2029C6.79309 17.0029 17.5931 6.20288 30.7931 6.20288C43.9931 6.20288 54.7931 17.0029 54.7931 30.2029C54.7931 43.4029 43.9931 54.2029 30.7931 54.2029Z" fill="#5E5EEE"/>
<path d="M32.2943 15.2029H27.7943V33.2029L43.3943 42.8029L45.7943 38.9029L32.2943 30.8029V15.2029Z" fill="#5E5EEE"/>
</svg>
