<svg width="37" height="37" viewBox="0 0 37 37" fill="none" xmlns="http://www.w3.org/2000/svg">
<g clip-path="url(#clip0_86_509)">
<path d="M26.4121 33.9463C26.5324 34.1985 26.4254 34.5003 26.1732 34.6206C23.7672 35.7679 21.1855 36.3496 18.5 36.3496C13.7322 36.3496 9.24978 34.493 5.87845 31.1216C2.50704 27.7502 0.650391 23.2678 0.650391 18.5C0.650391 15.6499 1.33865 12.8147 2.6408 10.301C3.706 8.24464 5.18296 6.39413 6.95181 4.88971L5.11099 4.84071C4.83168 4.83327 4.61134 4.60086 4.61871 4.32156C4.62616 4.04225 4.85849 3.82314 5.13787 3.82928L8.3826 3.91557C8.53392 3.91962 8.67549 3.99116 8.76842 4.11069C8.86136 4.23021 8.89597 4.38493 8.86258 4.53264L8.14795 7.69918C8.08645 7.97169 7.81596 8.14289 7.54316 8.08125C7.27064 8.01975 7.09959 7.74897 7.16109 7.47646L7.56231 5.69858C3.84692 8.88217 1.66211 13.5794 1.66211 18.5C1.66211 27.7845 9.21553 35.3379 18.5 35.3379C21.0337 35.3379 23.4688 34.7893 25.7378 33.7074C25.99 33.587 26.2919 33.6941 26.4121 33.9463ZM34.3592 26.699C35.6614 24.1853 36.3496 21.3501 36.3496 18.5C36.3496 13.7322 34.493 9.24978 31.1216 5.87845C27.7502 2.50711 23.2678 0.650391 18.5 0.650391C15.8145 0.650391 13.2328 1.23213 10.8267 2.37942C10.5745 2.49967 10.4675 2.80152 10.5878 3.05373C10.708 3.30586 11.0098 3.41289 11.2621 3.29264C13.5312 2.21075 15.9663 1.66211 18.5 1.66211C27.7845 1.66211 35.3379 9.21553 35.3379 18.5C35.3379 23.4206 33.1531 28.1178 29.4376 31.3013L29.8388 29.5235C29.9003 29.251 29.7293 28.9801 29.4568 28.9187C29.1842 28.8572 28.9135 29.0282 28.852 29.3007L28.1374 32.4673C28.1041 32.6149 28.1386 32.7698 28.2316 32.8892C28.3245 33.0087 28.4661 33.0803 28.6174 33.0844L31.8621 33.1706C31.8667 33.1707 31.8712 33.1708 31.8758 33.1708C32.149 33.1708 32.3739 32.9531 32.3812 32.6784C32.3887 32.3991 32.1682 32.1667 31.8889 32.1592L30.0481 32.1102C31.817 30.6058 33.2939 28.7554 34.3592 26.699ZM27.5738 17.9996C27.6199 19.9479 27.5414 21.5894 27.3408 22.8785C27.0303 24.8735 26.4262 25.9745 25.4941 26.2443C25.4482 26.2576 25.4008 26.2643 25.3535 26.2643C25.3102 26.2643 25.267 26.2587 25.2248 26.2477C25.019 26.1935 23.2182 25.6019 23.3581 21.5466C23.4637 18.4817 21.973 18.311 21.8285 18.3017C21.8101 18.3031 21.758 18.3086 21.6856 18.3262C21.6651 18.3898 21.6451 18.4528 21.6238 18.5171C21.0964 20.1075 20.8788 21.5631 20.9183 23.2365C20.9643 25.1847 20.8859 26.8263 20.6853 28.1154C20.3748 30.1105 19.7708 31.2115 18.8386 31.4814C18.7927 31.4947 18.7453 31.5013 18.698 31.5013C18.6548 31.5013 18.6115 31.4957 18.5694 31.4847C18.3636 31.4306 16.5628 30.8389 16.7026 26.7835C16.8085 23.7133 15.3124 23.5473 15.1723 23.5386C15.0323 23.5473 13.5361 23.7132 13.642 26.7835C13.7818 30.8389 11.9811 31.4306 11.7753 31.4847C11.6869 31.508 11.5937 31.5067 11.5059 31.4814C10.5738 31.2115 9.96977 30.1106 9.65924 28.1154C9.45863 26.8264 9.38022 25.1849 9.42626 23.2366C9.46579 21.5631 9.24819 20.1076 8.72073 18.5172C8.11413 16.6881 7.83634 15.1625 7.89488 13.9827C7.95023 12.8692 8.30253 12.0235 8.942 11.469C10.6109 10.022 13.6794 11.0922 14.8915 11.604C14.2526 8.95451 14.5044 7.13529 15.644 6.19273C17.4751 4.67819 20.9083 6.07255 21.8277 6.48981C22.7549 6.06908 26.2383 4.65448 28.0579 6.23212C28.6974 6.78661 29.0497 7.63233 29.105 8.7458C29.1636 9.92554 28.8857 11.4512 28.2791 13.2803C27.7518 14.8707 27.5343 16.3262 27.5738 17.9996ZM20.7404 12.234C19.4481 11.1121 16.4454 12.2179 15.3976 12.7387C15.2556 12.8093 15.0886 12.8093 14.9466 12.7386C13.8989 12.2179 10.8965 11.1121 9.6041 12.234C8.63834 13.0723 8.66494 15.1349 9.68092 18.1987C10.2466 19.9045 10.48 21.4656 10.4376 23.2604C10.3274 27.9265 10.9566 29.9971 11.6319 30.4368C11.9479 30.216 12.7201 29.4078 12.6307 26.8184C12.575 25.2012 12.9122 24.0029 13.6331 23.2567C14.3187 22.547 15.0868 22.5266 15.1722 22.5266C15.2575 22.5266 16.0256 22.5471 16.7113 23.2567C17.4321 24.0029 17.7694 25.2012 17.7136 26.8184C17.6243 29.4078 18.3964 30.216 18.7124 30.4368C19.3879 29.9971 20.017 27.9265 19.9067 23.2604C19.8644 21.4654 20.0977 19.9043 20.6634 18.1987C21.6795 15.1349 21.7061 13.0723 20.7404 12.234ZM27.3959 6.99705C26.1035 5.87527 23.101 6.981 22.0532 7.50175C21.9112 7.57243 21.7441 7.57235 21.6021 7.50168C20.5676 6.98751 17.5958 5.89008 16.2881 6.97291C15.4724 7.64823 15.3376 9.18352 15.8898 11.4289C17.2909 10.8961 19.9079 10.1732 21.4025 11.469C22.042 12.0235 22.3943 12.8692 22.4496 13.9827C22.4947 14.8905 22.3398 16.0038 21.9899 17.3018C22.2675 17.3369 22.8409 17.4753 23.3668 18.0198C24.0877 18.7659 24.4248 19.9642 24.3691 21.5814C24.2798 24.1709 25.0519 24.979 25.3678 25.1999C26.0432 24.7602 26.6724 22.6897 26.5622 18.0235C26.5199 16.2285 26.7532 14.6675 27.3189 12.9617C28.335 9.89793 28.3616 7.8354 27.3959 6.99705Z" fill="white"/>
</g>
<defs>
<clipPath id="clip0_86_509">
<rect width="37" height="37" fill="white"/>
</clipPath>
</defs>
</svg>
