<svg width="60" height="60" viewBox="0 0 60 60" fill="none" xmlns="http://www.w3.org/2000/svg">
<g clip-path="url(#clip0_161_65698)">
<path d="M18.3017 41.2845C18.3017 38.2101 15.8001 35.7089 12.7252 35.7089C9.65016 35.7089 7.14856 38.2101 7.14856 41.2845C7.14856 44.3589 9.65016 46.8602 12.7252 46.8602C15.8001 46.8602 18.3017 44.3589 18.3017 41.2845ZM10.6639 41.2845C10.6639 40.1486 11.5886 39.2245 12.7252 39.2245C13.8617 39.2245 14.7864 40.1486 14.7864 41.2845C14.7864 42.4204 13.8617 43.3445 12.7252 43.3445C11.5886 43.3445 10.6639 42.4204 10.6639 41.2845Z" fill="#5E5EEE"/>
<path d="M47.283 7.1427C44.2081 7.1427 41.7064 9.64394 41.7064 12.7184C41.7064 15.7928 44.2081 18.294 47.283 18.294C50.3579 18.294 52.8596 15.7928 52.8596 12.7184C52.8596 9.64394 50.3579 7.1427 47.283 7.1427ZM47.283 14.7783C46.1465 14.7783 45.2218 13.8541 45.2218 12.7182C45.2218 11.5823 46.1465 10.6582 47.283 10.6582C48.4195 10.6582 49.3442 11.5823 49.3442 12.7182C49.3442 13.8541 48.4195 14.7783 47.283 14.7783Z" fill="#5E5EEE"/>
<path d="M56.9128 4.39345C54.4732 1.64247 50.8517 0.000212265 47.2255 0.000212265C42.4618 -0.0247486 37.5629 3.04239 35.6058 7.56805H7.20556C6.2349 7.56805 5.44787 8.35508 5.44787 9.32586V30.8695C1.65545 33.4094 -0.535595 38.1198 0.113036 42.7547C1.30237 52.1093 11.2176 59.3634 11.6391 59.6675C11.9221 59.8502 12.1943 59.9932 12.6677 60H52.7816C53.7522 60 54.5393 59.213 54.5393 58.2422V24.8434C57.0393 21.815 59.443 18.006 59.9035 14.1767C60.3412 10.5362 59.2793 7.0618 56.9128 4.39345ZM8.96325 11.0836H34.65C34.3322 13.5673 34.9454 16.5459 36.027 18.9412H34.3431C29.2613 18.9412 25.127 23.0746 25.127 28.1553C25.127 33.2359 29.2614 37.3694 34.3431 37.3694H37.5306C40.7376 37.3694 43.3467 39.9775 43.3467 43.1833C43.3467 46.389 40.7375 48.9972 37.5306 48.9972H23.0826C24.2274 47.0064 25.0888 44.8779 25.3457 42.7428C26.3404 34.763 19.8926 28.6195 12.6678 28.5663C11.4173 28.5663 10.1659 28.7681 8.96337 29.1476L8.96325 11.0836ZM3.60041 42.3113C2.82651 36.6046 7.58115 32.1125 12.6678 32.082C18.2937 32.2666 22.4711 36.6034 21.8556 42.323C21.3967 47.2043 15.5983 53.3834 12.6229 55.9644C10.1848 53.9304 4.38744 48.5022 3.60041 42.3113ZM17.1889 56.4844C18.2884 55.3762 19.525 54.0251 20.6999 52.5129H37.5306C42.6759 52.5129 46.8621 48.3277 46.8621 43.1834C46.8621 38.0391 42.676 33.8539 37.5306 33.8539H34.3431C31.1997 33.8539 28.6423 31.2975 28.6423 28.1554C28.6423 25.0133 31.1997 22.4569 34.3431 22.4569H37.9575C41.2908 27.5148 45.9122 30.8957 46.1969 31.1014C46.5047 31.3236 46.8654 31.4338 47.2255 31.4338C47.6151 31.4338 48.0041 31.3046 48.3245 31.0479C48.4601 30.9393 49.5551 30.0534 51.0239 28.6321V56.4845H17.1889V56.4844ZM56.4133 13.7567C55.8764 18.6734 50.5378 24.421 47.1806 27.3981C44.3108 25.2058 38.5657 18.8643 38.1581 13.745C37.3845 8.03821 42.1389 3.54618 47.2256 3.51571C52.8515 3.7004 57.0287 8.03727 56.4133 13.7567Z" fill="#5E5EEE"/>
</g>
<defs>
<clipPath id="clip0_161_65698">
<rect width="60" height="60" fill="white"/>
</clipPath>
</defs>
</svg>
