<svg width="64" height="48" viewBox="0 0 64 48" fill="none" xmlns="http://www.w3.org/2000/svg">
<path d="M6.45156 44.1216C2.95156 40.2716 0.851562 36.0716 0.851562 29.0716C0.851562 16.8216 9.60156 5.97158 21.8516 0.371582L25.0016 4.92158C13.4516 11.2216 11.0016 19.2716 10.3016 24.5216C12.0516 23.4716 14.5016 23.1216 16.9516 23.4716C23.2516 24.1716 28.1516 29.0716 28.1516 35.7216C28.1516 38.8716 26.7516 42.0216 24.6516 44.4716C22.2016 46.9216 19.4016 47.9716 15.9016 47.9716C12.0516 47.9716 8.55156 46.2216 6.45156 44.1216ZM41.4516 44.1216C37.9516 40.2716 35.8516 36.0716 35.8516 29.0716C35.8516 16.8216 44.6016 5.97158 56.8516 0.371582L60.0016 4.92158C48.4516 11.2216 46.0016 19.2716 45.3016 24.5216C47.0516 23.4716 49.5016 23.1216 51.9516 23.4716C58.2516 24.1716 63.1516 29.0716 63.1516 35.7216C63.1516 38.8716 61.7516 42.0216 59.6516 44.4716C57.5516 46.9216 54.4016 47.9716 50.9016 47.9716C47.0516 47.9716 43.5516 46.2216 41.4516 44.1216Z" fill="#5E5EEE"/>
</svg>
