<svg width="81" height="81" viewBox="0 0 81 81" fill="none" xmlns="http://www.w3.org/2000/svg">
<g clip-path="url(#clip0_225_130)">
<path d="M71.9142 40.852L63.2107 27.4116C62.5361 26.3698 61.3924 25.7478 60.1513 25.7478H21.7502C20.511 25.7478 19.3683 26.3683 18.6935 27.4073L9.96284 40.8495C9.07065 42.223 9.20847 44.0364 10.298 45.2592L38.2139 76.5998C38.9049 77.3755 39.8967 77.8205 40.9355 77.8205C40.9353 77.8205 40.9357 77.8205 40.9355 77.8205C41.9741 77.8205 42.9664 77.3756 43.6574 76.6L71.5764 45.2575C72.6644 44.0361 72.8033 42.2245 71.9142 40.852ZM58.3882 28.8726L51.0685 40.1914L43.7444 28.8726H58.3882ZM48.1968 41.5058H33.6742L40.9355 30.2841L48.1968 41.5058ZM38.1266 28.873L30.8227 40.1606L23.5213 28.873H38.1266ZM20.6321 30.1597L27.9711 41.5058H13.2628L20.6321 30.1597ZM13.9228 44.6308H29.6486L37.9636 71.6206L13.9228 44.6308ZM40.9355 70.6531L32.9185 44.6308H48.9525L40.9355 70.6531ZM43.9072 71.6215L52.2225 44.6309H67.9497L43.9072 71.6215ZM53.9402 41.5058L61.2725 30.1675L68.6146 41.5058H53.9402Z" fill="#5E5EEE"/>
<path d="M5.67654 41.5057H2.49951C1.6367 41.5057 0.937012 42.2053 0.937012 43.0682C0.937012 43.9312 1.6367 44.6307 2.49951 44.6307H5.67654C6.53936 44.6307 7.23904 43.9312 7.23904 43.0682C7.23904 42.2053 6.53936 41.5057 5.67654 41.5057Z" fill="#0B0B38"/>
<path d="M79.3745 41.5057H76.1975C75.3347 41.5057 74.635 42.2053 74.635 43.0682C74.635 43.9312 75.3347 44.6307 76.1975 44.6307H79.3745C80.2374 44.6307 80.937 43.9312 80.937 43.0682C80.937 42.2053 80.2374 41.5057 79.3745 41.5057Z" fill="#0B0B38"/>
<path d="M69.2412 14.7921C68.6308 14.1819 67.6418 14.1819 67.0313 14.7921L61.8412 19.9822C61.231 20.5924 61.231 21.5818 61.8412 22.1919C62.1465 22.4971 62.5463 22.6496 62.9462 22.6496C63.3462 22.6496 63.7458 22.4969 64.051 22.1919L69.2412 17.0018C69.8513 16.3916 69.8513 15.4024 69.2412 14.7921Z" fill="#0B0B38"/>
<path d="M20.1004 19.9544L14.9104 14.7641C14.3004 14.154 13.3113 14.154 12.7005 14.7641C12.0904 15.3743 12.0904 16.3637 12.7005 16.9738L17.8907 22.164C18.1958 22.4691 18.5957 22.6216 18.9955 22.6216C19.3954 22.6216 19.7952 22.469 20.1004 22.164C20.7105 21.554 20.7105 20.5644 20.1004 19.9544Z" fill="#0B0B38"/>
<path d="M40.9768 3.06824C40.114 3.06824 39.4143 3.76777 39.4143 4.63074V14.8132C39.4143 15.6762 40.1138 16.3757 40.9768 16.3757C41.8396 16.3757 42.5393 15.6762 42.5393 14.8132V4.63074C42.5393 3.76792 41.8396 3.06824 40.9768 3.06824Z" fill="#0B0B38"/>
<path d="M42.0806 18.9943C41.7901 18.7037 41.387 18.5365 40.9761 18.5365C40.5651 18.5365 40.162 18.7037 39.8714 18.9943C39.5808 19.2849 39.4136 19.6881 39.4136 20.099C39.4136 20.5115 39.5806 20.9131 39.8714 21.2037C40.162 21.4959 40.5651 21.6615 40.9761 21.6615C41.387 21.6615 41.7901 21.4959 42.0806 21.2037C42.3728 20.9131 42.5386 20.5099 42.5386 20.099C42.5386 19.6881 42.3728 19.2851 42.0806 18.9943Z" fill="#0B0B38"/>
</g>
<defs>
<clipPath id="clip0_225_130">
<rect width="80" height="80" fill="white" transform="translate(0.937012 0.444336)"/>
</clipPath>
</defs>
</svg>
