<svg width="38" height="39" viewBox="0 0 38 39" fill="none" xmlns="http://www.w3.org/2000/svg">
<path d="M27.2125 6.32818C27.3326 6.32917 27.3326 6.32917 27.4551 6.33018C28.8434 6.35979 30.1188 6.88641 31.1447 7.82506C31.1946 7.8683 31.2446 7.91155 31.296 7.9561C32.3029 8.88224 32.9428 10.3068 33.0003 11.6663C33.026 13.2647 32.6904 14.7412 31.5841 15.9549C31.5309 16.0149 31.4776 16.0749 31.4228 16.1366C30.873 16.7227 30.2373 17.1871 29.4601 17.4198C29.4614 17.4645 29.4627 17.5092 29.4641 17.5552C29.4878 18.9704 29.0377 20.2777 28.2324 21.4301C27.0301 23.1738 26.2429 24.9397 26.2054 27.0832C26.0526 32.5177 26.0526 32.5177 24.6536 33.9073C24.1101 34.34 23.4774 34.479 22.7951 34.412C22.0911 34.2499 21.5832 33.9038 21.1883 33.2996C20.963 32.9247 20.9528 32.5798 20.9513 32.1489C20.9508 32.0908 20.9503 32.0328 20.9498 31.973C20.9488 31.8471 20.9479 31.7212 20.9472 31.5952C20.946 31.3953 20.9443 31.1954 20.9424 30.9955C20.9372 30.4271 20.9328 29.8587 20.9291 29.2903C20.9267 28.9423 20.9237 28.5943 20.9203 28.2464C20.9191 28.1144 20.9182 27.9824 20.9176 27.8504C20.9339 26.3898 20.9339 26.3898 20.3048 25.1102C19.8042 24.6565 19.1854 24.4197 18.5104 24.451C17.9487 24.5264 17.486 24.747 17.0913 25.156C16.5361 25.8844 16.5283 26.6471 16.5339 27.525C16.5352 27.7329 16.5346 27.9408 16.5336 28.1488C16.5317 28.5901 16.5321 29.0314 16.5328 29.4727C16.5337 29.9849 16.5336 30.497 16.5311 31.0091C16.5306 31.2129 16.5318 31.4166 16.5331 31.6203C16.533 32.4894 16.4629 33.1812 15.8419 33.8438C15.2816 34.3204 14.6498 34.4676 13.9328 34.412C13.3435 34.3073 12.8843 34.0716 12.4959 33.6129C11.4516 32.0789 11.3406 29.6979 11.2677 27.8957C11.2122 26.1063 11.2122 26.1063 10.7833 24.3778C10.7562 24.3008 10.7291 24.2237 10.7012 24.1443C10.6162 23.923 10.5207 23.7121 10.4171 23.4989C10.3953 23.4539 10.3734 23.4088 10.3509 23.3624C10.0447 22.74 9.70192 22.1572 9.30934 21.5854C8.18885 19.9461 7.72175 18.0673 8.07148 16.0906C8.45448 14.3019 9.54162 12.8024 11.058 11.7985C12.1527 11.1045 13.3576 10.7847 14.6514 10.7959C14.7411 10.7965 14.8307 10.797 14.9231 10.7975C15.6123 10.8097 16.2128 10.8876 16.8624 11.121C16.9399 11.1483 17.0173 11.1757 17.097 11.2039C17.5737 11.3885 18.0041 11.6307 18.4374 11.9006C18.6178 12.0173 18.6178 12.0173 18.84 11.9999C19.0008 11.9136 19.1557 11.8244 19.3115 11.7298C20.029 11.3089 20.7189 11.0108 21.5499 10.9012C21.5648 10.8239 21.5648 10.8239 21.58 10.745C21.7882 9.78986 22.2128 8.98673 22.8683 8.26452C22.9232 8.20277 22.9782 8.14102 23.0348 8.0774C24.1182 6.92393 25.6408 6.31249 27.2125 6.32818ZM23.5215 9.16145C22.7648 10.0599 22.4492 11.2152 22.4766 12.3735C22.5931 13.6799 23.12 14.6768 24.0402 15.5887C24.0813 15.6324 24.1225 15.676 24.1649 15.7209C24.9469 16.4824 26.1553 16.8294 27.2125 16.8659C28.5917 16.8304 29.7494 16.2945 30.7052 15.2958C31.4256 14.505 31.8658 13.5048 31.9503 12.4393C31.9542 12.3917 31.9581 12.3442 31.9621 12.2951C32.02 10.946 31.4396 9.70092 30.545 8.72228C29.5869 7.83683 28.36 7.34934 27.0531 7.37073C25.5778 7.46627 24.506 8.09933 23.5215 9.16145ZM10.5636 13.6112C9.46443 14.8839 8.94286 16.388 9.04155 18.0569C9.1665 19.1299 9.58925 20.1077 10.2157 20.9812C11.525 22.8119 12.2203 24.7801 12.3092 27.0238C12.3782 28.7172 12.5264 30.3561 12.9806 31.995C13.0039 32.0805 13.0272 32.1661 13.0513 32.2542C13.1939 32.7083 13.3838 32.9804 13.7863 33.2401C14.0756 33.3848 14.435 33.364 14.739 33.2659C15.0725 33.0969 15.2558 32.852 15.3976 32.5077C15.4248 32.2992 15.4376 32.1197 15.4353 31.9121C15.4358 31.8549 15.4363 31.7976 15.4368 31.7386C15.4382 31.5507 15.4376 31.3627 15.4371 31.1747C15.4378 31.0429 15.4387 30.9111 15.4397 30.7793C15.4421 30.4327 15.4428 30.0862 15.4431 29.7396C15.4438 29.1863 15.4464 28.6331 15.4499 28.0798C15.4508 27.8878 15.4507 27.6959 15.4506 27.5039C15.4534 26.309 15.5553 25.1921 16.4001 24.2679C17.1436 23.5938 18.0631 23.379 19.0382 23.4033C19.8803 23.4482 20.6023 23.8379 21.1749 24.4522C21.7059 25.1283 21.9389 25.8445 21.936 26.699C21.9364 26.7597 21.9368 26.8204 21.9372 26.8829C21.9379 27.0137 21.9383 27.1444 21.9385 27.2752C21.9388 27.4824 21.94 27.6896 21.9415 27.8969C21.9455 28.4858 21.9478 29.0747 21.9496 29.6636C21.9507 30.0247 21.9529 30.3858 21.9558 30.7469C21.9566 30.8841 21.9571 31.0212 21.9571 31.1584C21.9571 31.3503 21.9584 31.5422 21.96 31.7341C21.9597 31.7902 21.9594 31.8463 21.959 31.9042C21.9646 32.3187 22.0382 32.6799 22.3216 33.0015C22.7237 33.2997 22.9587 33.3593 23.4542 33.3133C23.8062 33.1872 23.9746 33.0306 24.1867 32.7274C24.2755 32.5368 24.342 32.3415 24.4064 32.1415C24.4251 32.0842 24.4437 32.0268 24.463 31.9678C24.5993 31.5318 24.704 31.0929 24.7909 30.6446C24.802 30.5881 24.813 30.5316 24.8244 30.4734C24.9853 29.5793 25.0643 28.6693 25.1016 27.7624C25.1041 27.7031 25.1065 27.6437 25.109 27.5826C25.1186 27.342 25.1278 27.1015 25.1354 26.8608C25.2103 24.5902 26.0589 22.6542 27.3304 20.7923C27.9432 19.894 28.3831 18.8912 28.3615 17.786C28.2738 17.793 28.186 17.8 28.0957 17.8072C26.2342 17.9406 24.6589 17.5451 23.2213 16.3008C22.0351 15.1557 21.59 13.6658 21.4035 12.0731C20.9355 12.14 20.5543 12.2974 20.1354 12.508C20.0593 12.5462 20.0593 12.5462 19.9815 12.5852C19.7292 12.7151 19.5051 12.8523 19.2794 13.0253C18.9066 13.1495 18.5213 13.1769 18.1514 13.0274C17.9763 12.9292 17.8085 12.8241 17.6406 12.714C17.1267 12.3974 16.649 12.1408 16.0568 11.9999C15.9929 11.9837 15.9289 11.9676 15.8631 11.9509C13.9584 11.5354 11.9 12.2044 10.5636 13.6112Z" fill="white"/>
<path d="M26.688 8.81145C26.775 8.81107 26.862 8.81069 26.9515 8.8103C27.0874 8.812 27.0874 8.812 27.2259 8.81374C27.3165 8.8126 27.407 8.81147 27.5003 8.8103C27.6307 8.81087 27.6307 8.81087 27.7638 8.81145C27.8432 8.81178 27.9227 8.81211 28.0045 8.81245C28.2672 8.85983 28.3538 8.92694 28.5077 9.14333C28.5409 9.33122 28.5409 9.33122 28.5363 9.54044C28.5353 9.61549 28.5344 9.69055 28.5334 9.76789C28.531 9.84578 28.5285 9.92367 28.526 10.0039C28.5246 10.0829 28.5233 10.162 28.522 10.2434C28.5185 10.4383 28.5137 10.6331 28.5077 10.8279C28.5572 10.8264 28.6067 10.8248 28.6576 10.8232C28.8823 10.8172 29.1069 10.8133 29.3316 10.8096C29.4095 10.8071 29.4874 10.8047 29.5677 10.8021C29.6427 10.8012 29.7178 10.8003 29.7951 10.7993C29.8987 10.797 29.8987 10.797 30.0043 10.7946C30.2555 10.8391 30.3373 10.9148 30.4852 11.1209C30.5231 11.331 30.5231 11.331 30.5241 11.5718C30.5247 11.7022 30.5247 11.7022 30.5253 11.8353C30.5241 11.9258 30.523 12.0163 30.5218 12.1096C30.5235 12.2454 30.5235 12.2454 30.5253 12.384C30.5249 12.471 30.5245 12.5579 30.5241 12.6475C30.5238 12.727 30.5234 12.8064 30.5231 12.8883C30.4757 13.1509 30.4086 13.2375 30.1922 13.3914C30.0043 13.4246 30.0043 13.4246 29.7951 13.42C29.6825 13.4186 29.6825 13.4186 29.5677 13.4171C29.4508 13.4134 29.4508 13.4134 29.3316 13.4097C29.2131 13.4077 29.2131 13.4077 29.0922 13.4057C28.8973 13.4022 28.7025 13.3974 28.5077 13.3914C28.5092 13.4409 28.5107 13.4904 28.5123 13.5414C28.5184 13.766 28.5222 13.9906 28.526 14.2153C28.5297 14.3322 28.5297 14.3322 28.5334 14.4514C28.5344 14.5264 28.5353 14.6015 28.5363 14.6788C28.5378 14.7479 28.5393 14.8169 28.5409 14.888C28.4964 15.1398 28.4219 15.2213 28.2147 15.3689C27.9967 15.4057 27.9967 15.4057 27.7452 15.4052C27.6093 15.4053 27.6093 15.4053 27.4707 15.4054C27.3763 15.4039 27.2819 15.4025 27.1847 15.401C27.0427 15.4017 27.0427 15.4017 26.8979 15.4025C26.2099 15.3979 26.2099 15.3979 26.0267 15.2824C25.9116 15.0965 25.9193 14.961 25.9227 14.7432C25.9234 14.6646 25.9241 14.586 25.9249 14.505C25.9267 14.423 25.9286 14.341 25.9304 14.2565C25.9319 14.1323 25.9319 14.1323 25.9335 14.0055C25.936 13.8008 25.9397 13.5961 25.9442 13.3914C25.8921 13.3925 25.84 13.3937 25.7863 13.3949C25.5505 13.3994 25.3148 13.4023 25.079 13.4051C24.997 13.4069 24.915 13.4088 24.8305 13.4107C24.7519 13.4114 24.6733 13.4121 24.5923 13.4128C24.5199 13.414 24.4474 13.4151 24.3727 13.4163C24.1864 13.3914 24.1864 13.3914 24.0557 13.2985C23.8158 12.9568 23.8799 12.5134 23.8797 12.1142C23.8788 12.0452 23.8779 11.9763 23.8769 11.9052C23.8756 11.249 23.8756 11.249 24.0399 10.9744C24.2853 10.8107 24.3635 10.8104 24.6496 10.8136C24.7625 10.8143 24.7625 10.8143 24.8777 10.815C24.9562 10.8162 25.0347 10.8175 25.1156 10.8187C25.195 10.8194 25.2743 10.8201 25.3561 10.8207C25.5521 10.8225 25.7482 10.8249 25.9442 10.8279C25.9426 10.7784 25.9411 10.7289 25.9395 10.6779C25.9334 10.4533 25.9296 10.2286 25.9259 10.0039C25.9234 9.92603 25.921 9.84814 25.9184 9.76789C25.9175 9.69283 25.9165 9.61777 25.9156 9.54044C25.914 9.4714 25.9125 9.40236 25.9109 9.33122C25.9896 8.88687 26.2791 8.81315 26.688 8.81145ZM26.9696 9.87575C26.9454 10.5042 26.9212 11.1326 26.8963 11.78C26.6556 11.8402 26.4667 11.8665 26.2223 11.8765C26.1505 11.8795 26.0788 11.8826 26.0048 11.8858C25.9304 11.8886 25.856 11.8915 25.7794 11.8945C25.6661 11.8992 25.6661 11.8992 25.5505 11.9041C25.3644 11.9118 25.1782 11.9193 24.992 11.9265C24.992 12.0715 24.992 12.2166 24.992 12.366C25.0708 12.3682 25.0708 12.3682 25.1511 12.3704C25.388 12.3773 25.6249 12.3854 25.8618 12.3934C25.9857 12.3968 25.9857 12.3968 26.1121 12.4003C26.2304 12.4046 26.2304 12.4046 26.351 12.4089C26.4239 12.4112 26.4968 12.4135 26.5719 12.4159C26.7498 12.4392 26.7498 12.4392 26.8963 12.5857C26.9197 12.7637 26.9197 12.7637 26.9267 12.9845C26.9295 13.0634 26.9323 13.1422 26.9352 13.2234C26.9375 13.306 26.9398 13.3887 26.9421 13.4738C26.9449 13.5569 26.9478 13.6401 26.9507 13.7258C26.9576 13.9317 26.9639 14.1376 26.9696 14.3435C27.1146 14.3435 27.2596 14.3435 27.409 14.3435C27.4118 14.272 27.4118 14.272 27.4146 14.1991C27.4231 13.9832 27.4321 13.7674 27.4411 13.5516C27.4439 13.4766 27.4468 13.4016 27.4498 13.3243C27.4544 13.2163 27.4544 13.2163 27.4591 13.1061C27.4618 13.0398 27.4645 12.9734 27.4672 12.9051C27.4823 12.7322 27.4823 12.7322 27.5555 12.5125C27.7439 12.4183 27.8902 12.4238 28.1008 12.416C28.1797 12.413 28.2585 12.4099 28.3397 12.4068C28.4223 12.4039 28.5049 12.401 28.5901 12.398C28.6732 12.3949 28.7564 12.3917 28.8421 12.3884C29.048 12.3807 29.2539 12.3732 29.4598 12.366C29.4598 12.221 29.4598 12.0759 29.4598 11.9265C29.4125 11.9251 29.3653 11.9236 29.3165 11.9221C29.1018 11.9151 28.8871 11.9071 28.6725 11.8991C28.5609 11.8957 28.5609 11.8957 28.447 11.8922C28.3752 11.8894 28.3035 11.8865 28.2296 11.8836C28.1636 11.8813 28.0976 11.879 28.0297 11.8766C27.8378 11.8519 27.7162 11.8142 27.5555 11.7068C27.4842 11.493 27.4681 11.3366 27.4591 11.1131C27.456 11.0411 27.453 10.9692 27.4498 10.895C27.4469 10.82 27.444 10.745 27.4411 10.6677C27.4379 10.5918 27.4347 10.516 27.4315 10.4378C27.4237 10.2505 27.4162 10.0631 27.409 9.87575C27.264 9.87575 27.119 9.87575 26.9696 9.87575Z" fill="white"/>
<path d="M30.5723 28.984C31.0182 29.2569 31.3328 29.6536 31.4778 30.1575C31.6088 30.766 31.461 31.239 31.1373 31.7574C30.8388 32.1602 30.426 32.3515 29.9406 32.4252C29.3758 32.463 28.9331 32.3376 28.4926 31.9789C28.1026 31.5914 27.9156 31.1721 27.8989 30.6262C27.9048 30.1263 28.0683 29.7514 28.3887 29.3719C29.028 28.8392 29.776 28.6323 30.5723 28.984ZM29.144 30.1776C28.9843 30.4438 28.9713 30.5905 29.0204 30.8963C29.2087 31.1587 29.3321 31.2469 29.643 31.3357C29.9318 31.3357 30.045 31.2988 30.2656 31.116C30.4361 30.8805 30.4519 30.6685 30.412 30.3836C30.251 30.1398 30.1371 29.9806 29.8627 29.8709C29.5437 29.8709 29.3746 29.9595 29.144 30.1776Z" fill="white"/>
<path d="M20.8904 19.8368C21.0598 19.9536 21.1016 20.0281 21.1611 20.225C21.2018 20.5857 21.0154 20.8637 20.8172 21.1552C20.4154 21.5505 19.9932 21.7618 19.4256 21.764C19.3516 21.7652 19.2775 21.7664 19.2013 21.7677C18.9348 21.7347 18.7379 21.6394 18.5467 21.4481C18.5124 21.0236 18.5124 21.0236 18.5467 20.8622C18.7111 20.6891 18.8126 20.6459 19.0502 20.6153C19.2028 20.612 19.3554 20.609 19.508 20.6061C19.7684 20.5605 19.847 20.4787 20.0115 20.2762C20.0629 20.1992 20.1142 20.1222 20.1672 20.0428C20.3863 19.7141 20.5225 19.7467 20.8904 19.8368Z" fill="white"/>
<path d="M10.5361 7.82031C10.7833 7.89813 10.7833 7.89813 10.9066 8.00599C11.0559 8.29251 11.0377 8.56869 11.0351 8.8869C11.0365 8.9495 11.038 9.01209 11.0395 9.07659C11.0392 9.5316 11.0392 9.5316 10.8706 9.7701C10.6322 9.92686 10.4757 9.9204 10.1974 9.87567C9.96728 9.66781 9.88586 9.50047 9.86292 9.19818C9.86147 9.08222 9.8616 8.96624 9.8632 8.85028C9.86146 8.79212 9.85971 8.73396 9.85791 8.67404C9.8587 8.35833 9.87762 8.22658 10.0735 7.96708C10.2706 7.82489 10.2706 7.82489 10.5361 7.82031Z" fill="white"/>
<path d="M11.9458 6.78129C12.0235 6.77902 12.0235 6.77902 12.1028 6.77671C12.4355 6.77423 12.6406 6.81869 12.9071 7.01932C12.9803 7.09256 12.9803 7.09256 13.0032 7.33518C12.9803 7.60526 12.9803 7.60526 12.8782 7.76634C12.5841 7.96958 12.3039 7.94083 11.9549 7.93485C11.8558 7.93655 11.8558 7.93655 11.7546 7.93828C11.2749 7.93544 11.2749 7.93544 11.0322 7.76319C10.8922 7.54793 10.8928 7.41795 10.9295 7.16581C11.1662 6.74888 11.5088 6.78443 11.9458 6.78129Z" fill="white"/>
<path d="M8.94283 6.78129C9.02058 6.77902 9.02058 6.77902 9.0999 6.77671C9.43262 6.77423 9.63764 6.81869 9.90414 7.01932C9.97738 7.09256 9.97738 7.09256 10.0003 7.33518C9.97738 7.60526 9.97738 7.60526 9.87524 7.76634C9.58117 7.96958 9.30099 7.94083 8.95199 7.93485C8.85285 7.93655 8.85285 7.93655 8.75172 7.93828C8.272 7.93544 8.272 7.93544 8.02931 7.76319C7.88931 7.54793 7.88983 7.41795 7.9266 7.16581C8.16323 6.74888 8.50584 6.78443 8.94283 6.78129Z" fill="white"/>
<path d="M10.7833 4.89514C10.9377 5.02789 10.9954 5.13629 11.0248 5.3378C11.0353 5.52038 11.0366 5.70105 11.0351 5.88391C11.0365 5.94651 11.038 6.00911 11.0395 6.0736C11.0391 6.52834 11.0391 6.52834 10.8708 6.76768C10.6371 6.92029 10.4699 6.90738 10.1973 6.87268C10.0433 6.7597 9.9893 6.67631 9.90437 6.50647C9.89329 6.30253 9.88743 6.10165 9.88606 5.89765C9.88455 5.84199 9.88304 5.78633 9.88149 5.72899C9.87913 5.39022 9.90466 5.17051 10.1241 4.89514C10.3572 4.77857 10.5352 4.83857 10.7833 4.89514Z" fill="white"/>
<path d="M14.6879 16.5132C14.9504 16.5165 15.0091 16.5223 15.2189 16.6963C15.3436 16.9457 15.3757 17.0716 15.3242 17.3463C15.1732 17.5569 15.1732 17.5569 14.958 17.7125C14.6652 17.7588 14.518 17.7623 14.2714 17.5935C14.1241 17.3783 14.0844 17.2409 14.0791 16.9801C14.2449 16.641 14.3158 16.529 14.6879 16.5132Z" fill="white"/>
<path d="M21.9894 16.5408C22.1679 16.6232 22.1679 16.6232 22.2823 16.7605C22.3758 17.041 22.3691 17.1659 22.2594 17.4426C22.1358 17.6394 22.1358 17.6394 21.9894 17.7127C21.672 17.7486 21.5265 17.7476 21.2615 17.5616C21.0724 17.2922 21.0576 17.1566 21.1105 16.8338C21.3253 16.4847 21.6139 16.4783 21.9894 16.5408Z" fill="white"/>
<path d="M5.18018 13.4005C5.43652 13.4645 5.43652 13.4645 5.57843 13.5881C5.68272 13.8151 5.69665 13.9495 5.65625 14.197C5.50519 14.4121 5.50519 14.4121 5.29004 14.5632C5.02843 14.5632 4.85929 14.5446 4.64001 14.3984C4.52945 14.2264 4.49414 14.1091 4.48438 13.904C4.64349 13.5619 4.78372 13.3863 5.18018 13.4005Z" fill="white"/>
<path d="M32.9025 23.9383C33.0853 24.0503 33.1128 24.1303 33.1818 24.332C33.1983 24.5627 33.1586 24.6878 33.049 24.8905C32.7765 25.0721 32.639 25.0709 32.3166 25.0369C32.1381 24.9225 32.1381 24.9225 32.0236 24.744C31.9828 24.4579 31.9809 24.3008 32.1335 24.0528C32.4081 23.8811 32.581 23.9026 32.9025 23.9383Z" fill="white"/>
</svg>
