<svg width="81" height="81" viewBox="0 0 81 81" fill="none" xmlns="http://www.w3.org/2000/svg">
<g clip-path="url(#clip0_225_111)">
<path d="M80.7318 39.7336C72.3989 26.4398 57.955 18.2104 42.2703 17.8202V7.11084H39.6036V17.8202C23.9189 18.2104 9.47501 26.4398 1.14214 39.7336C0.868636 40.168 0.868636 40.7206 1.14214 41.155C9.47501 54.4489 23.9189 62.6782 39.6036 63.0684V73.7778H42.2703V63.0684C57.955 62.6782 72.3989 54.4489 80.7318 41.155C81.0055 40.7206 81.0055 40.168 80.7318 39.7336ZM3.85548 40.4443C9.29901 32.1208 17.3944 25.8799 26.8289 22.7336C21.8001 26.7383 18.7127 32.6933 18.3382 39.111H7.6035V41.7777H18.3382C18.7127 48.1953 21.8001 54.1504 26.8289 58.1551C17.3944 55.0087 9.29901 48.7678 3.85548 40.4443ZM39.6036 52.4444V60.3764C29.6261 59.6987 21.6826 51.7552 21.0049 41.7777H28.9369V39.111H21.0049C21.6826 29.1334 29.6261 21.1899 39.6036 20.5122V28.4443H42.2703V20.5122C52.2479 21.1899 60.1914 29.1333 60.8691 39.111H52.937V41.7777H60.8691C60.1914 51.7552 52.2479 59.6987 42.2703 60.3764V52.4444H39.6036ZM78.0185 40.4443C72.5749 48.7678 64.4796 55.0087 55.045 58.1551C60.0739 54.1504 63.1612 48.1953 63.5357 41.7777H74.2704V39.111H63.5357C63.1612 32.6933 60.0739 26.7381 55.045 22.7336C64.4797 25.8801 72.5749 32.1208 78.0185 40.4443Z" fill="#5E5EEE"/>
<path d="M40.9369 31.111C35.7822 31.111 31.6035 35.2896 31.6035 40.4443C31.6093 45.5965 35.7847 49.7719 40.9369 49.7777C46.0916 49.7777 50.2703 45.599 50.2703 40.4443C50.2703 35.2896 46.0916 31.111 40.9369 31.111ZM40.9369 47.111C37.255 47.111 34.2702 44.1262 34.2702 40.4443C34.2745 36.7643 37.2569 33.782 40.9369 33.7776C44.6187 33.7776 47.6036 36.7625 47.6036 40.4443C47.6036 44.1262 44.6189 47.111 40.9369 47.111Z" fill="#0B0B38"/>
<path d="M8.93685 7.11084C8.20052 7.11084 7.60352 7.70784 7.60352 8.44418V19.1109H10.2702V9.77752H19.6036V7.11084H8.93685Z" fill="#0B0B38"/>
<path d="M72.9372 7.11084H62.2705V9.77752H71.6039V19.1109H74.2706V8.44418C74.2706 7.70784 73.6736 7.11084 72.9372 7.11084Z" fill="#0B0B38"/>
<path d="M71.6039 61.7777V71.1111H62.2705V73.7778H72.9372C73.6736 73.7778 74.2706 73.1808 74.2706 72.4444V61.7777H71.6039Z" fill="#0B0B38"/>
<path d="M10.2702 71.1111V61.7777H7.60352V72.4444C7.60352 73.1808 8.20052 73.7778 8.93685 73.7778H19.6036V71.1111H10.2702Z" fill="#0B0B38"/>
</g>
<defs>
<clipPath id="clip0_225_111">
<rect width="80" height="80" fill="white" transform="translate(0.937012 0.444336)"/>
</clipPath>
</defs>
</svg>
