<svg width="40" height="38" viewBox="0 0 40 38" fill="none" xmlns="http://www.w3.org/2000/svg">
<path d="M10.5 19.8043C10.5 10.3311 21.2739 10.9937 21.6421 17.4728C21.7648 19.5834 18.5743 19.7552 18.4516 17.6446C18.2307 15.1904 13.6659 14.5032 13.6659 19.8043C13.6659 23.2647 20.415 34.4558 26.1087 34.4558C31.2625 34.4558 36.9072 19.7797 36.9072 13.5461C36.9072 8.4168 33.8885 3.2139 27.1886 3.2139C20.6604 3.2139 18.2798 11.6318 13.715 11.6318C11.6044 11.6318 11.6044 8.44134 13.715 8.44134C15.8256 8.44134 19.4824 0.0234375 27.1886 0.0234375C36.7108 0.0234375 45.1042 9.0058 36.2445 27.8541C25.0289 51.7825 10.5 24.9581 10.5 19.8043Z" fill="url(#paint0_linear_1013_74)"/>
<path d="M0 13.5351C0 2.44214 10.3322 -2.24538 17.3512 1.0187C19.2655 1.90221 17.9157 4.79817 16.0014 3.91466C10.9703 1.55862 3.16592 4.84725 3.16592 13.5351C3.16592 19.7688 8.81057 34.4449 13.9644 34.4449C19.6581 34.4449 26.4072 23.2783 26.4072 19.7933C26.4072 14.4923 21.8424 15.1549 21.6215 17.6582C21.5724 18.5417 20.8116 19.2043 19.9281 19.1552C16.934 18.9834 18.5537 12.6271 23.8303 12.6271C28.4933 12.6271 33.4016 19.0571 24.7383 30.4691C9.1787 51.0353 0 21.3149 0 13.5351Z" fill="url(#paint1_linear_1013_74)"/>
<defs>
<linearGradient id="paint0_linear_1013_74" x1="8.25998" y1="14.9785" x2="46.3534" y2="20.4423" gradientUnits="userSpaceOnUse">
<stop stop-color="white"/>
<stop offset="1" stop-color="white"/>
</linearGradient>
<linearGradient id="paint1_linear_1013_74" x1="-2.24069" y1="14.9453" x2="35.8627" y2="20.4157" gradientUnits="userSpaceOnUse">
<stop stop-color="white"/>
<stop offset="1" stop-color="white"/>
</linearGradient>
</defs>
</svg>
