<svg width="180" height="40" viewBox="0 0 180 40" fill="none" xmlns="http://www.w3.org/2000/svg">
<path d="M11.1655 21.0395C11.1655 10.9698 22.6178 11.6742 23.0091 18.5612C23.1395 20.8047 19.7482 20.9873 19.6177 18.7438C19.383 16.1351 14.5308 15.4046 14.5308 21.0395C14.5308 24.7177 21.7047 36.6134 27.7569 36.6134C33.2352 36.6134 39.2352 21.0134 39.2352 14.3872C39.2352 8.93505 36.0265 3.40459 28.9047 3.40459C21.9656 3.40459 19.4351 12.3525 14.5829 12.3525C12.3394 12.3525 12.3394 8.96113 14.5829 8.96113C16.8264 8.96113 20.7134 0.0132675 28.9047 0.0132675C39.0265 0.0132675 47.9483 9.56114 38.5309 29.596C26.6091 55.0309 11.1655 26.5177 11.1655 21.0395Z" fill="url(#paint0_linear_1_155)"/>
<path d="M0 14.3872C0 2.59589 10.9827 -2.38675 18.4436 1.08283C20.4784 2.02197 19.0436 5.10025 17.0088 4.16111C11.6609 1.65675 3.36523 5.15242 3.36523 14.3872C3.36523 21.0134 9.36526 36.6134 14.8436 36.6134C20.8958 36.6134 28.0697 24.7438 28.0697 21.0395C28.0697 15.4046 23.2175 16.109 22.9827 18.7699C22.9306 19.709 22.1218 20.4134 21.1827 20.3612C18.0001 20.1786 19.7218 13.422 25.3306 13.422C30.2871 13.422 35.5045 20.2568 26.2958 32.3873C9.75657 54.2483 0 22.6569 0 14.3872Z" fill="url(#paint1_linear_1_155)"/>
<path d="M54.4346 29.5V10.384H62.1836C63.6596 10.384 64.9466 10.6 66.0446 11.032C67.1606 11.464 68.0246 12.166 68.6366 13.138C69.2666 14.11 69.5816 15.424 69.5816 17.08C69.5816 18.61 69.2486 19.888 68.5826 20.914C67.9166 21.94 67.0076 22.705 65.8556 23.209C64.7036 23.695 63.3896 23.938 61.9136 23.938H58.8086V29.5H54.4346ZM58.8086 20.05H61.9136C62.9396 20.05 63.7496 19.798 64.3436 19.294C64.9556 18.79 65.2616 18.052 65.2616 17.08C65.2616 16.216 65.0006 15.559 64.4786 15.109C63.9746 14.659 63.1376 14.434 61.9676 14.434H58.8086V20.05ZM71.7452 29.5V15.271H75.5252L75.8222 16.783C76.1822 16.261 76.5782 15.874 77.0102 15.622C77.4602 15.37 77.9102 15.208 78.3602 15.136C78.8282 15.046 79.2782 15.001 79.7102 15.001C79.9802 15.001 80.2232 15.01 80.4392 15.028C80.6732 15.028 80.8262 15.037 80.8982 15.055V19.159H80.0072C79.2512 19.159 78.5672 19.276 77.9552 19.51C77.3612 19.744 76.8932 20.131 76.5512 20.671C76.2092 21.211 76.0382 21.967 76.0382 22.939V29.5H71.7452ZM82.5293 29.5V15.271H86.8223V29.5H82.5293ZM84.6893 14.083C83.8973 14.083 83.2583 13.849 82.7723 13.381C82.3043 12.913 82.0703 12.301 82.0703 11.545C82.0703 10.771 82.3223 10.141 82.8263 9.655C83.3303 9.169 83.9603 8.926 84.7163 8.926C85.4363 8.926 86.0483 9.16 86.5523 9.628C87.0563 10.096 87.3083 10.726 87.3083 11.518C87.3083 12.292 87.0653 12.913 86.5793 13.381C86.0933 13.849 85.4633 14.083 84.6893 14.083ZM89.5694 29.5V15.271H93.3764L93.7544 16.81C94.1504 16.288 94.5734 15.901 95.0234 15.649C95.4914 15.379 95.9414 15.208 96.3734 15.136C96.8234 15.064 97.2014 15.028 97.5074 15.028C98.2994 15.028 99.0284 15.172 99.6944 15.46C100.36 15.748 100.9 16.27 101.314 17.026C101.71 16.486 102.142 16.081 102.61 15.811C103.078 15.523 103.555 15.325 104.041 15.217C104.527 15.091 105.013 15.028 105.499 15.028C106.633 15.028 107.542 15.262 108.226 15.73C108.91 16.18 109.414 16.828 109.738 17.674C110.062 18.502 110.224 19.465 110.224 20.563V29.5H105.958V21.508C105.958 21.256 105.94 20.977 105.904 20.671C105.868 20.365 105.787 20.086 105.661 19.834C105.553 19.564 105.382 19.348 105.148 19.186C104.914 19.006 104.59 18.916 104.176 18.916C103.762 18.916 103.42 19.006 103.15 19.186C102.88 19.348 102.664 19.573 102.502 19.861C102.34 20.131 102.223 20.437 102.151 20.779C102.097 21.121 102.07 21.463 102.07 21.805V29.5H97.8044V21.481C97.8044 21.247 97.7774 20.986 97.7234 20.698C97.6874 20.392 97.6064 20.104 97.4804 19.834C97.3724 19.564 97.1924 19.348 96.9404 19.186C96.7064 19.006 96.3644 18.916 95.9144 18.916C95.3024 18.916 94.8434 19.087 94.5374 19.429C94.2494 19.771 94.0604 20.176 93.9704 20.644C93.8984 21.112 93.8624 21.544 93.8624 21.94V29.5H89.5694ZM119.493 29.716C118.017 29.716 116.739 29.419 115.659 28.825C114.597 28.231 113.778 27.394 113.202 26.314C112.626 25.216 112.338 23.929 112.338 22.453C112.338 20.977 112.635 19.681 113.229 18.565C113.823 17.449 114.651 16.576 115.713 15.946C116.793 15.316 118.062 15.001 119.52 15.001C120.582 15.001 121.518 15.172 122.328 15.514C123.156 15.856 123.858 16.342 124.434 16.972C125.028 17.602 125.469 18.349 125.757 19.213C126.063 20.077 126.216 21.022 126.216 22.048C126.198 22.318 126.18 22.588 126.162 22.858C126.144 23.11 126.099 23.371 126.027 23.641H116.577C116.631 24.091 116.766 24.505 116.982 24.883C117.198 25.261 117.504 25.558 117.9 25.774C118.296 25.99 118.8 26.098 119.412 26.098C119.844 26.098 120.231 26.053 120.573 25.963C120.933 25.855 121.23 25.711 121.464 25.531C121.698 25.333 121.851 25.117 121.923 24.883H126.135C125.901 26.017 125.451 26.944 124.785 27.664C124.119 28.366 123.327 28.888 122.409 29.23C121.491 29.554 120.519 29.716 119.493 29.716ZM116.658 20.752H122.139C122.139 20.374 122.04 20.005 121.842 19.645C121.662 19.285 121.374 18.997 120.978 18.781C120.582 18.547 120.069 18.43 119.439 18.43C118.827 18.43 118.314 18.547 117.9 18.781C117.486 19.015 117.18 19.312 116.982 19.672C116.784 20.032 116.676 20.392 116.658 20.752Z" fill="#0B0B38"/>
<path d="M129.11 21.562C129.38 20.266 129.785 19.186 130.325 18.322C130.883 17.458 131.513 16.765 132.215 16.243C132.917 15.721 133.664 15.352 134.456 15.136C135.248 14.92 136.022 14.812 136.778 14.812C137.534 14.812 138.209 14.902 138.803 15.082C139.415 15.244 139.91 15.469 140.288 15.757C140.684 16.027 140.972 16.342 141.152 16.702C141.332 17.062 141.377 17.422 141.287 17.782C141.161 18.358 140.9 18.79 140.504 19.078C140.108 19.366 139.649 19.51 139.127 19.51C138.551 19.51 138.182 19.339 138.02 18.997C137.858 18.655 137.822 18.25 137.912 17.782C138.038 17.206 137.975 16.711 137.723 16.297C137.489 15.865 137.057 15.649 136.427 15.649C135.887 15.649 135.401 15.829 134.969 16.189C134.555 16.531 134.186 16.981 133.862 17.539C133.556 18.097 133.286 18.736 133.052 19.456C132.836 20.158 132.647 20.869 132.485 21.589C132.269 22.615 132.206 23.524 132.296 24.316C132.404 25.09 132.62 25.738 132.944 26.26C133.268 26.764 133.682 27.151 134.186 27.421C134.69 27.673 135.248 27.799 135.86 27.799C136.706 27.799 137.453 27.583 138.101 27.151C138.749 26.701 139.379 26.197 139.991 25.639L140.261 25.936C139.991 26.26 139.649 26.629 139.235 27.043C138.839 27.457 138.371 27.853 137.831 28.231C137.291 28.591 136.679 28.897 135.995 29.149C135.311 29.383 134.564 29.5 133.754 29.5C132.674 29.5 131.783 29.284 131.081 28.852C130.397 28.402 129.866 27.817 129.488 27.097C129.128 26.359 128.921 25.513 128.867 24.559C128.813 23.605 128.894 22.606 129.11 21.562ZM140.8 25.207C141.034 24.127 141.493 23.254 142.177 22.588C142.879 21.904 143.68 21.373 144.58 20.995C145.498 20.599 146.461 20.32 147.469 20.158C148.477 19.996 149.413 19.906 150.277 19.888C150.349 19.456 150.403 18.997 150.439 18.511C150.475 18.007 150.448 17.539 150.358 17.107C150.268 16.675 150.097 16.324 149.845 16.054C149.593 15.766 149.215 15.622 148.711 15.622C148.297 15.622 147.919 15.721 147.577 15.919C147.253 16.099 146.956 16.351 146.686 16.675C146.434 16.981 146.218 17.341 146.038 17.755C145.858 18.151 145.723 18.565 145.633 18.997C145.525 18.997 145.3 18.997 144.958 18.997C144.616 18.997 144.265 18.97 143.905 18.916C143.563 18.862 143.266 18.754 143.014 18.592C142.762 18.43 142.672 18.187 142.744 17.863C142.798 17.575 142.996 17.26 143.338 16.918C143.68 16.558 144.121 16.225 144.661 15.919C145.201 15.595 145.822 15.334 146.524 15.136C147.244 14.92 148.018 14.812 148.846 14.812C150.124 14.812 151.096 15.028 151.762 15.46C152.428 15.874 152.896 16.405 153.166 17.053C153.436 17.683 153.553 18.367 153.517 19.105C153.499 19.825 153.418 20.491 153.274 21.103L152.302 25.693C152.176 26.269 152.14 26.683 152.194 26.935C152.248 27.187 152.347 27.313 152.491 27.313C152.671 27.313 152.896 27.151 153.166 26.827C153.454 26.503 153.724 26.107 153.976 25.639L154.354 25.774C154.174 26.224 153.922 26.692 153.598 27.178C153.292 27.646 152.941 28.069 152.545 28.447C152.149 28.825 151.726 29.14 151.276 29.392C150.826 29.626 150.385 29.743 149.953 29.743C149.539 29.743 149.215 29.644 148.981 29.446C148.765 29.23 148.621 28.96 148.549 28.636C148.045 28.996 147.478 29.275 146.848 29.473C146.218 29.653 145.543 29.743 144.823 29.743C144.067 29.743 143.401 29.635 142.825 29.419C142.267 29.203 141.808 28.897 141.448 28.501C141.106 28.105 140.872 27.628 140.746 27.07C140.638 26.512 140.656 25.891 140.8 25.207ZM150.034 21.103C150.052 21.049 150.061 20.995 150.061 20.941C150.079 20.887 150.097 20.815 150.115 20.725C149.539 20.779 148.918 20.923 148.252 21.157C147.604 21.391 146.992 21.706 146.416 22.102C145.84 22.498 145.327 22.966 144.877 23.506C144.445 24.028 144.157 24.631 144.013 25.315C143.815 26.233 143.95 26.971 144.418 27.529C144.904 28.087 145.651 28.366 146.659 28.366C147.307 28.366 147.955 28.213 148.603 27.907L150.034 21.103ZM160.977 15.055L160.599 16.837C161.157 16.261 161.778 15.784 162.462 15.406C163.146 15.01 163.92 14.812 164.784 14.812C165.342 14.812 165.801 14.893 166.161 15.055C166.539 15.217 166.827 15.433 167.025 15.703C167.223 15.955 167.349 16.243 167.403 16.567C167.475 16.891 167.475 17.215 167.403 17.539C167.277 18.061 167.025 18.52 166.647 18.916C166.287 19.294 165.873 19.483 165.405 19.483C165.207 19.483 165.009 19.438 164.811 19.348C164.613 19.258 164.451 19.105 164.325 18.889C164.199 18.673 164.118 18.394 164.082 18.052C164.046 17.71 164.082 17.296 164.19 16.81C164.208 16.738 164.226 16.648 164.244 16.54C164.262 16.414 164.253 16.297 164.217 16.189C164.199 16.063 164.145 15.964 164.055 15.892C163.965 15.802 163.821 15.757 163.623 15.757C163.155 15.757 162.606 16.018 161.976 16.54C161.364 17.062 160.752 17.89 160.14 19.024L159.114 23.776C158.934 24.676 158.808 25.441 158.736 26.071C158.664 26.701 158.646 27.214 158.682 27.61C158.718 27.988 158.799 28.267 158.925 28.447C159.069 28.609 159.258 28.69 159.492 28.69L159.33 29.5H153.228L153.417 28.69C153.885 28.69 154.317 28.321 154.713 27.583C155.109 26.845 155.496 25.576 155.874 23.776L157.089 18.052C157.179 17.602 157.215 17.242 157.197 16.972C157.179 16.684 157.116 16.459 157.008 16.297C156.9 16.135 156.765 16.027 156.603 15.973C156.441 15.901 156.261 15.865 156.063 15.865L156.252 15.055H160.977ZM170.454 21.589C170.256 22.597 170.202 23.488 170.292 24.262C170.4 25.036 170.616 25.684 170.94 26.206C171.264 26.728 171.669 27.124 172.155 27.394C172.659 27.664 173.208 27.799 173.802 27.799C174.648 27.799 175.431 27.574 176.151 27.124C176.889 26.674 177.492 26.179 177.96 25.639L178.23 25.936C177.96 26.26 177.627 26.629 177.231 27.043C176.835 27.457 176.367 27.853 175.827 28.231C175.287 28.591 174.675 28.897 173.991 29.149C173.307 29.383 172.551 29.5 171.723 29.5C170.643 29.5 169.752 29.284 169.05 28.852C168.366 28.402 167.835 27.817 167.457 27.097C167.097 26.359 166.89 25.513 166.836 24.559C166.782 23.605 166.863 22.606 167.079 21.562C167.313 20.464 167.664 19.501 168.132 18.673C168.618 17.827 169.185 17.125 169.833 16.567C170.499 15.991 171.246 15.559 172.074 15.271C172.92 14.965 173.811 14.812 174.747 14.812C176.655 14.812 177.951 15.388 178.635 16.54C179.337 17.692 179.454 19.366 178.986 21.562L170.454 21.589ZM170.67 20.779H175.773C175.917 20.131 176.025 19.501 176.097 18.889C176.169 18.277 176.169 17.737 176.097 17.269C176.025 16.783 175.872 16.396 175.638 16.108C175.404 15.802 175.044 15.649 174.558 15.649C174.072 15.649 173.622 15.793 173.208 16.081C172.812 16.369 172.452 16.756 172.128 17.242C171.804 17.71 171.516 18.259 171.264 18.889C171.03 19.501 170.832 20.131 170.67 20.779Z" fill="#5E5EEE"/>
<defs>
<linearGradient id="paint0_linear_1_155" x1="8.78448" y1="15.9099" x2="49.2762" y2="21.7176" gradientUnits="userSpaceOnUse">
<stop stop-color="#5E5EEE"/>
<stop offset="1" stop-color="#0B0B38"/>
</linearGradient>
<linearGradient id="paint1_linear_1_155" x1="-2.38176" y1="15.8862" x2="38.1205" y2="21.701" gradientUnits="userSpaceOnUse">
<stop stop-color="#5E5EEE"/>
<stop offset="1" stop-color="#0B0B38"/>
</linearGradient>
</defs>
</svg>
