<svg width="1920" height="642" viewBox="0 0 1920 642" fill="none" xmlns="http://www.w3.org/2000/svg">
<g clip-path="url(#clip0_70_453)">
<g opacity="0.3">
<line y1="16.3794" x2="1008.03" y2="16.3794" stroke="white" stroke-opacity="0.08"/>
<line y1="76.1147" x2="1008.03" y2="76.1147" stroke="white" stroke-opacity="0.08"/>
<line y1="136.917" x2="1008.03" y2="136.917" stroke="white" stroke-opacity="0.08"/>
<line y1="197.719" x2="1008.03" y2="197.719" stroke="white" stroke-opacity="0.08"/>
<line y1="258.521" x2="1008.03" y2="258.521" stroke="white" stroke-opacity="0.08"/>
<line y1="318.256" x2="1008.03" y2="318.256" stroke="white" stroke-opacity="0.08"/>
<line y1="379.057" x2="1008.03" y2="379.057" stroke="white" stroke-opacity="0.08"/>
<line y1="439.859" x2="1008.03" y2="439.859" stroke="white" stroke-opacity="0.08"/>
<line y1="500.661" x2="1008.03" y2="500.661" stroke="white" stroke-opacity="0.08"/>
<line y1="561.463" x2="1008.03" y2="561.463" stroke="white" stroke-opacity="0.08"/>
<line y1="621.198" x2="1008.03" y2="621.198" stroke="white" stroke-opacity="0.08"/>
<line y1="46.2471" x2="1008.03" y2="46.2471" stroke="white" stroke-opacity="0.08"/>
<line y1="105.982" x2="1008.03" y2="105.982" stroke="white" stroke-opacity="0.08"/>
<line y1="166.784" x2="1008.03" y2="166.784" stroke="white" stroke-opacity="0.08"/>
<line y1="227.586" x2="1008.03" y2="227.586" stroke="white" stroke-opacity="0.08"/>
<line y1="288.388" x2="1008.03" y2="288.388" stroke="white" stroke-opacity="0.08"/>
<line y1="348.123" x2="1008.03" y2="348.123" stroke="white" stroke-opacity="0.08"/>
<line y1="408.925" x2="1008.03" y2="408.925" stroke="white" stroke-opacity="0.08"/>
<line y1="469.727" x2="1008.03" y2="469.727" stroke="white" stroke-opacity="0.08"/>
<line y1="530.528" x2="1008.03" y2="530.528" stroke="white" stroke-opacity="0.08"/>
<line y1="591.331" x2="1008.03" y2="591.331" stroke="white" stroke-opacity="0.08"/>
<line x1="29.9014" y1="641.528" x2="29.9014" y2="-13.4717" stroke="white" stroke-opacity="0.08"/>
<line x1="60.8354" y1="641.528" x2="60.8355" y2="-13.4717" stroke="white" stroke-opacity="0.08"/>
<line x1="90.7031" y1="641.528" x2="90.7032" y2="-13.4717" stroke="white" stroke-opacity="0.08"/>
<line x1="121.638" y1="641.528" x2="121.638" y2="-13.4717" stroke="white" stroke-opacity="0.08"/>
<line x1="151.505" y1="641.528" x2="151.505" y2="-13.4717" stroke="white" stroke-opacity="0.08"/>
<line x1="182.439" y1="641.528" x2="182.439" y2="-13.4717" stroke="white" stroke-opacity="0.08"/>
<line x1="213.374" y1="641.528" x2="213.374" y2="-13.4717" stroke="white" stroke-opacity="0.08"/>
<line x1="243.241" y1="641.528" x2="243.241" y2="-13.4717" stroke="white" stroke-opacity="0.08"/>
<line x1="274.176" y1="641.528" x2="274.176" y2="-13.4717" stroke="white" stroke-opacity="0.08"/>
<line x1="304.043" y1="641.528" x2="304.043" y2="-13.4717" stroke="white" stroke-opacity="0.08"/>
<line x1="334.978" y1="641.528" x2="334.978" y2="-13.4717" stroke="white" stroke-opacity="0.08"/>
<line x1="364.845" y1="641.528" x2="364.845" y2="-13.4717" stroke="white" stroke-opacity="0.08"/>
<line x1="395.779" y1="641.528" x2="395.779" y2="-13.4717" stroke="white" stroke-opacity="0.08"/>
<line x1="426.714" y1="641.528" x2="426.714" y2="-13.4717" stroke="white" stroke-opacity="0.08"/>
<line x1="456.582" y1="641.528" x2="456.582" y2="-13.4717" stroke="white" stroke-opacity="0.08"/>
<line x1="487.516" y1="641.528" x2="487.516" y2="-13.4717" stroke="white" stroke-opacity="0.08"/>
<line x1="517.383" y1="641.528" x2="517.383" y2="-13.4717" stroke="white" stroke-opacity="0.08"/>
<line x1="548.317" y1="641.528" x2="548.317" y2="-13.4717" stroke="white" stroke-opacity="0.08"/>
<line x1="579.252" y1="641.528" x2="579.252" y2="-13.4717" stroke="white" stroke-opacity="0.08"/>
<line x1="609.12" y1="641.528" x2="609.12" y2="-13.4717" stroke="white" stroke-opacity="0.08"/>
<line x1="640.054" y1="641.528" x2="640.054" y2="-13.4717" stroke="white" stroke-opacity="0.08"/>
<line x1="669.921" y1="641.528" x2="669.921" y2="-13.4717" stroke="white" stroke-opacity="0.08"/>
<line x1="700.856" y1="641.528" x2="700.856" y2="-13.4717" stroke="white" stroke-opacity="0.08"/>
<line x1="730.723" y1="641.528" x2="730.723" y2="-13.4717" stroke="white" stroke-opacity="0.08"/>
<line x1="761.658" y1="641.528" x2="761.658" y2="-13.4717" stroke="white" stroke-opacity="0.08"/>
<line x1="792.592" y1="641.528" x2="792.592" y2="-13.4717" stroke="white" stroke-opacity="0.08"/>
<line x1="822.459" y1="641.528" x2="822.459" y2="-13.4717" stroke="white" stroke-opacity="0.08"/>
<line x1="853.394" y1="641.528" x2="853.394" y2="-13.4717" stroke="white" stroke-opacity="0.08"/>
<line x1="883.262" y1="641.528" x2="883.262" y2="-13.4717" stroke="white" stroke-opacity="0.08"/>
<line x1="914.196" y1="641.528" x2="914.196" y2="-13.4717" stroke="white" stroke-opacity="0.08"/>
<line x1="945.13" y1="641.528" x2="945.13" y2="-13.4717" stroke="white" stroke-opacity="0.08"/>
<line x1="945.13" y1="641.528" x2="945.13" y2="-13.4717" stroke="white" stroke-opacity="0.08"/>
<line x1="976.064" y1="641.528" x2="976.064" y2="-13.4717" stroke="white" stroke-opacity="0.08"/>
</g>
<g opacity="0.3">
<line x1="1008.03" y1="16.3794" x2="2016.06" y2="16.3794" stroke="white" stroke-opacity="0.08"/>
<line x1="1008.03" y1="76.1147" x2="2016.06" y2="76.1147" stroke="white" stroke-opacity="0.08"/>
<line x1="1008.03" y1="136.917" x2="2016.06" y2="136.917" stroke="white" stroke-opacity="0.08"/>
<line x1="1008.03" y1="197.719" x2="2016.06" y2="197.719" stroke="white" stroke-opacity="0.08"/>
<line x1="1008.03" y1="258.521" x2="2016.06" y2="258.521" stroke="white" stroke-opacity="0.08"/>
<line x1="1008.03" y1="318.256" x2="2016.06" y2="318.256" stroke="white" stroke-opacity="0.08"/>
<line x1="1008.03" y1="379.057" x2="2016.06" y2="379.057" stroke="white" stroke-opacity="0.08"/>
<line x1="1008.03" y1="439.859" x2="2016.06" y2="439.859" stroke="white" stroke-opacity="0.08"/>
<line x1="1008.03" y1="500.661" x2="2016.06" y2="500.661" stroke="white" stroke-opacity="0.08"/>
<line x1="1008.03" y1="561.463" x2="2016.06" y2="561.463" stroke="white" stroke-opacity="0.08"/>
<line x1="1008.03" y1="621.198" x2="2016.06" y2="621.198" stroke="white" stroke-opacity="0.08"/>
<line x1="1008.03" y1="46.2471" x2="2016.06" y2="46.2471" stroke="white" stroke-opacity="0.08"/>
<line x1="1008.03" y1="105.982" x2="2016.06" y2="105.982" stroke="white" stroke-opacity="0.08"/>
<line x1="1008.03" y1="166.784" x2="2016.06" y2="166.784" stroke="white" stroke-opacity="0.08"/>
<line x1="1008.03" y1="227.586" x2="2016.06" y2="227.586" stroke="white" stroke-opacity="0.08"/>
<line x1="1008.03" y1="288.388" x2="2016.06" y2="288.388" stroke="white" stroke-opacity="0.08"/>
<line x1="1008.03" y1="348.123" x2="2016.06" y2="348.123" stroke="white" stroke-opacity="0.08"/>
<line x1="1008.03" y1="408.925" x2="2016.06" y2="408.925" stroke="white" stroke-opacity="0.08"/>
<line x1="1008.03" y1="469.727" x2="2016.06" y2="469.727" stroke="white" stroke-opacity="0.08"/>
<line x1="1008.03" y1="530.528" x2="2016.06" y2="530.528" stroke="white" stroke-opacity="0.08"/>
<line x1="1008.03" y1="591.331" x2="2016.06" y2="591.331" stroke="white" stroke-opacity="0.08"/>
<line x1="1037.93" y1="641.528" x2="1037.93" y2="-13.4717" stroke="white" stroke-opacity="0.08"/>
<line x1="1068.87" y1="641.528" x2="1068.87" y2="-13.4717" stroke="white" stroke-opacity="0.08"/>
<line x1="1098.74" y1="641.528" x2="1098.74" y2="-13.4717" stroke="white" stroke-opacity="0.08"/>
<line x1="1129.67" y1="641.528" x2="1129.67" y2="-13.4717" stroke="white" stroke-opacity="0.08"/>
<line x1="1159.54" y1="641.528" x2="1159.54" y2="-13.4717" stroke="white" stroke-opacity="0.08"/>
<line x1="1190.47" y1="641.528" x2="1190.47" y2="-13.4717" stroke="white" stroke-opacity="0.08"/>
<line x1="1221.41" y1="641.528" x2="1221.41" y2="-13.4717" stroke="white" stroke-opacity="0.08"/>
<line x1="1251.27" y1="641.528" x2="1251.27" y2="-13.4717" stroke="white" stroke-opacity="0.08"/>
<line x1="1282.21" y1="641.528" x2="1282.21" y2="-13.4717" stroke="white" stroke-opacity="0.08"/>
<line x1="1312.08" y1="641.528" x2="1312.08" y2="-13.4717" stroke="white" stroke-opacity="0.08"/>
<line x1="1343.01" y1="641.528" x2="1343.01" y2="-13.4717" stroke="white" stroke-opacity="0.08"/>
<line x1="1372.88" y1="641.528" x2="1372.88" y2="-13.4717" stroke="white" stroke-opacity="0.08"/>
<line x1="1403.81" y1="641.528" x2="1403.81" y2="-13.4717" stroke="white" stroke-opacity="0.08"/>
<line x1="1434.75" y1="641.528" x2="1434.75" y2="-13.4717" stroke="white" stroke-opacity="0.08"/>
<line x1="1464.61" y1="641.528" x2="1464.61" y2="-13.4717" stroke="white" stroke-opacity="0.08"/>
<line x1="1495.55" y1="641.528" x2="1495.55" y2="-13.4717" stroke="white" stroke-opacity="0.08"/>
<line x1="1525.42" y1="641.528" x2="1525.42" y2="-13.4717" stroke="white" stroke-opacity="0.08"/>
<line x1="1556.35" y1="641.528" x2="1556.35" y2="-13.4717" stroke="white" stroke-opacity="0.08"/>
<line x1="1587.28" y1="641.528" x2="1587.28" y2="-13.4717" stroke="white" stroke-opacity="0.08"/>
<line x1="1617.15" y1="641.528" x2="1617.15" y2="-13.4717" stroke="white" stroke-opacity="0.08"/>
<line x1="1648.09" y1="641.528" x2="1648.09" y2="-13.4717" stroke="white" stroke-opacity="0.08"/>
<line x1="1677.95" y1="641.528" x2="1677.95" y2="-13.4717" stroke="white" stroke-opacity="0.08"/>
<line x1="1708.89" y1="641.528" x2="1708.89" y2="-13.4717" stroke="white" stroke-opacity="0.08"/>
<line x1="1738.76" y1="641.528" x2="1738.76" y2="-13.4717" stroke="white" stroke-opacity="0.08"/>
<line x1="1769.69" y1="641.528" x2="1769.69" y2="-13.4717" stroke="white" stroke-opacity="0.08"/>
<line x1="1800.62" y1="641.528" x2="1800.62" y2="-13.4717" stroke="white" stroke-opacity="0.08"/>
<line x1="1830.49" y1="641.528" x2="1830.49" y2="-13.4717" stroke="white" stroke-opacity="0.08"/>
<line x1="1861.43" y1="641.528" x2="1861.43" y2="-13.4717" stroke="white" stroke-opacity="0.08"/>
<line x1="1891.29" y1="641.528" x2="1891.29" y2="-13.4717" stroke="white" stroke-opacity="0.08"/>
</g>
</g>
<defs>
<clipPath id="clip0_70_453">
<rect width="1920" height="641" fill="white" transform="translate(0 0.843018)"/>
</clipPath>
</defs>
</svg>
